%TF.GenerationSoftware,KiCad,Pcbnew,(5.1.2)-1*%
%TF.CreationDate,2019-05-30T19:23:31-07:00*%
%TF.ProjectId,Voyager4,566f7961-6765-4723-942e-6b696361645f,rev?*%
%TF.SameCoordinates,Original*%
%TF.FileFunction,Copper,L1,Top*%
%TF.FilePolarity,Positive*%
%FSLAX46Y46*%
G04 Gerber Fmt 4.6, Leading zero omitted, Abs format (unit mm)*
G04 Created by KiCad (PCBNEW (5.1.2)-1) date 2019-05-30 19:23:31*
%MOMM*%
%LPD*%
G04 APERTURE LIST*
%ADD10C,2.250000*%
%ADD11C,2.250000*%
%ADD12C,1.905000*%
%ADD13R,1.905000X1.905000*%
%ADD14O,1.000000X1.600000*%
%ADD15O,1.000000X2.100000*%
%ADD16C,0.600000*%
%ADD17C,0.381000*%
%ADD18C,0.254000*%
G04 APERTURE END LIST*
D10*
X61257500Y-53947500D03*
D11*
X61237500Y-54237500D02*
X61277500Y-53657500D01*
D10*
X61277500Y-53657500D03*
X55582501Y-55467500D03*
D11*
X54927500Y-56197500D02*
X56237502Y-54737500D01*
D10*
X56237500Y-54737500D03*
D12*
X57467500Y-63817500D03*
D13*
X60007500Y-63817500D03*
D10*
X61257500Y-34897500D03*
D11*
X61237500Y-35187500D02*
X61277500Y-34607500D01*
D10*
X61277500Y-34607500D03*
X55582501Y-36417500D03*
D11*
X54927500Y-37147500D02*
X56237502Y-35687500D01*
D10*
X56237500Y-35687500D03*
D12*
X57467500Y-44767500D03*
D13*
X60007500Y-44767500D03*
X79057500Y-44767500D03*
D12*
X76517500Y-44767500D03*
D10*
X75287500Y-35687500D03*
X74632501Y-36417500D03*
D11*
X73977500Y-37147500D02*
X75287502Y-35687500D01*
D10*
X80327500Y-34607500D03*
X80307500Y-34897500D03*
D11*
X80287500Y-35187500D02*
X80327500Y-34607500D01*
D10*
X80307500Y-53947500D03*
D11*
X80287500Y-54237500D02*
X80327500Y-53657500D01*
D10*
X80327500Y-53657500D03*
X74632501Y-55467500D03*
D11*
X73977500Y-56197500D02*
X75287502Y-54737500D01*
D10*
X75287500Y-54737500D03*
D12*
X76517500Y-63817500D03*
D13*
X79057500Y-63817500D03*
D14*
X72582500Y-29587500D03*
X63942500Y-29587500D03*
D15*
X72582500Y-33767500D03*
X63942500Y-33767500D03*
D16*
X82804000Y-41529000D03*
X81788000Y-37338000D03*
X56007000Y-47625000D03*
X61468000Y-41656000D03*
X56007000Y-52451000D03*
X72644000Y-47879000D03*
X64516000Y-52324000D03*
X58801000Y-52451000D03*
X76073000Y-51054000D03*
X73406000Y-62357000D03*
X61976000Y-47879000D03*
X62103000Y-61849000D03*
X62484000Y-46101000D03*
X70231000Y-37084000D03*
X66167000Y-37084000D03*
X64516000Y-45974000D03*
X65278000Y-37719000D03*
X70612000Y-39497000D03*
X61722000Y-56642000D03*
X58801000Y-56007000D03*
X66929000Y-52324000D03*
X71882000Y-52324000D03*
X68961000Y-44958000D03*
X74676000Y-58293000D03*
X72517000Y-62357000D03*
X72517000Y-65024000D03*
X63500000Y-45720000D03*
X63500000Y-48518000D03*
X59436000Y-50673000D03*
X62357000Y-50927000D03*
X66675000Y-44958000D03*
X71374000Y-49784000D03*
X69850000Y-44958000D03*
X71374000Y-48768000D03*
X74549000Y-39243000D03*
X69723000Y-36195000D03*
X67056000Y-36195000D03*
X62611000Y-37719000D03*
X71628000Y-65024000D03*
X56769000Y-60706000D03*
X52959000Y-60325000D03*
X52705000Y-48895000D03*
X82677000Y-37338000D03*
X84328000Y-42799000D03*
X84201000Y-34544000D03*
X74168000Y-62992000D03*
X82550000Y-60579000D03*
X79756000Y-61468000D03*
X67691000Y-45212000D03*
X77978000Y-36830000D03*
D17*
X81407000Y-37719000D02*
X81788000Y-37338000D01*
X81407000Y-40386000D02*
X81407000Y-37719000D01*
X82550000Y-41529000D02*
X81407000Y-40386000D01*
X82804000Y-41529000D02*
X82550000Y-41529000D01*
X56007000Y-47625000D02*
X55880000Y-47498000D01*
X55880000Y-47498000D02*
X55880000Y-44069000D01*
X55880000Y-44069000D02*
X56896000Y-43053000D01*
X56896000Y-43053000D02*
X60071000Y-43053000D01*
X60071000Y-43053000D02*
X61468000Y-41656000D01*
X56007000Y-52451000D02*
X56007000Y-47625000D01*
X61468000Y-41656000D02*
X61468000Y-38481000D01*
X61468000Y-38481000D02*
X59436000Y-36449000D01*
X59436000Y-36449000D02*
X59436000Y-33909000D01*
X59436000Y-33909000D02*
X60452000Y-32893000D01*
X63068000Y-32893000D02*
X63942500Y-33767500D01*
X60452000Y-32893000D02*
X63068000Y-32893000D01*
X72644000Y-47879000D02*
X72644000Y-49657000D01*
X72644000Y-49657000D02*
X71755000Y-50546000D01*
X58039000Y-45339000D02*
X57467500Y-44767500D01*
X58801000Y-52451000D02*
X58039000Y-52451000D01*
X58039000Y-52451000D02*
X58039000Y-45339000D01*
X76073000Y-51054000D02*
X76517500Y-51054000D01*
X72263000Y-51054000D02*
X71755000Y-50546000D01*
X72644000Y-51435000D02*
X72263000Y-51054000D01*
X72644000Y-54864000D02*
X72644000Y-51435000D01*
X73406000Y-61595000D02*
X71247000Y-59436000D01*
X73406000Y-62357000D02*
X73406000Y-61595000D01*
X71247000Y-59436000D02*
X71247000Y-58039000D01*
X71247000Y-58039000D02*
X72263000Y-57023000D01*
X72263000Y-57023000D02*
X72263000Y-55245000D01*
X72263000Y-55245000D02*
X72644000Y-54864000D01*
X74549000Y-65786000D02*
X76517500Y-63817500D01*
X59055000Y-65786000D02*
X74549000Y-65786000D01*
X57467500Y-63817500D02*
X57467500Y-64198500D01*
X57467500Y-64198500D02*
X59055000Y-65786000D01*
X58039000Y-55626000D02*
X58039000Y-52451000D01*
X56007000Y-57658000D02*
X58039000Y-55626000D01*
X56007000Y-62357000D02*
X56007000Y-57658000D01*
X57467500Y-63817500D02*
X56007000Y-62357000D01*
X67564000Y-50546000D02*
X71755000Y-50546000D01*
X76517500Y-63309500D02*
X76517500Y-63817500D01*
X80137000Y-62230000D02*
X77597000Y-62230000D01*
X76517500Y-51054000D02*
X76517500Y-52641500D01*
X76517500Y-52641500D02*
X77597000Y-53721000D01*
X77597000Y-53721000D02*
X77597000Y-54737000D01*
X77597000Y-54737000D02*
X80518000Y-57658000D01*
X77597000Y-62230000D02*
X76517500Y-63309500D01*
X80518000Y-57658000D02*
X80518000Y-61849000D01*
X80518000Y-61849000D02*
X80137000Y-62230000D01*
X61976000Y-48641000D02*
X61976000Y-47879000D01*
X64516000Y-51181000D02*
X61976000Y-48641000D01*
X64516000Y-52324000D02*
X64516000Y-51181000D01*
X65151000Y-50546000D02*
X64516000Y-51181000D01*
X67564000Y-50546000D02*
X65151000Y-50546000D01*
X76517500Y-44767500D02*
X76517500Y-51054000D01*
D18*
X80287500Y-36853500D02*
X80287500Y-35187500D01*
X80772000Y-37338000D02*
X80287500Y-36853500D01*
X80772000Y-43815000D02*
X80772000Y-37338000D01*
X80645000Y-43942000D02*
X80772000Y-43815000D01*
X80645000Y-53340000D02*
X80645000Y-43942000D01*
X80327500Y-53657500D02*
X80645000Y-53340000D01*
X61237500Y-55014500D02*
X61237500Y-54237500D01*
X62357000Y-56134000D02*
X61237500Y-55014500D01*
X62357000Y-57023000D02*
X62357000Y-56134000D01*
X62103000Y-57277000D02*
X62357000Y-57023000D01*
X62103000Y-61849000D02*
X62103000Y-57277000D01*
X61595000Y-35545000D02*
X61237500Y-35187500D01*
X61595000Y-37719000D02*
X61595000Y-35545000D01*
X62357000Y-41910000D02*
X62357000Y-38481000D01*
X61237500Y-53617500D02*
X58674000Y-51054000D01*
X62357000Y-38481000D02*
X61595000Y-37719000D01*
X61237500Y-54237500D02*
X61237500Y-53617500D01*
X58674000Y-51054000D02*
X58674000Y-49022000D01*
X58674000Y-49022000D02*
X61468000Y-46228000D01*
X61468000Y-46228000D02*
X61468000Y-42799000D01*
X61468000Y-42799000D02*
X62357000Y-41910000D01*
X62357000Y-46228000D02*
X62484000Y-46101000D01*
X61468000Y-46228000D02*
X62357000Y-46228000D01*
D17*
X70231000Y-37084000D02*
X68453000Y-37084000D01*
X68453000Y-37084000D02*
X66167000Y-37084000D01*
D18*
X65151000Y-37846000D02*
X65278000Y-37719000D01*
X65151000Y-40259000D02*
X65151000Y-37846000D01*
X64516000Y-40894000D02*
X65151000Y-40259000D01*
X64516000Y-45974000D02*
X64516000Y-40894000D01*
X73977500Y-37147500D02*
X72961500Y-37147500D01*
X72961500Y-37147500D02*
X70612000Y-39497000D01*
X61722000Y-56642000D02*
X61087000Y-56007000D01*
X61087000Y-56007000D02*
X58801000Y-56007000D01*
X66929000Y-52070000D02*
X66929000Y-52324000D01*
X67818000Y-51181000D02*
X66929000Y-52070000D01*
X71501000Y-51181000D02*
X67818000Y-51181000D01*
X71882000Y-52324000D02*
X71882000Y-51562000D01*
X71882000Y-51562000D02*
X71501000Y-51181000D01*
X72517000Y-62357000D02*
X72517000Y-64516000D01*
X72517000Y-65024000D02*
X72517000Y-64516000D01*
X74676000Y-57912000D02*
X74676000Y-58293000D01*
X76962000Y-55626000D02*
X74676000Y-57912000D01*
X76962000Y-53975000D02*
X76962000Y-55626000D01*
X68961000Y-44831000D02*
X69469000Y-44323000D01*
X68961000Y-44958000D02*
X68961000Y-44831000D01*
X69469000Y-44323000D02*
X70231000Y-44323000D01*
X70231000Y-44323000D02*
X73406000Y-47498000D01*
X73406000Y-47498000D02*
X73406000Y-50419000D01*
X73406000Y-50419000D02*
X76962000Y-53975000D01*
X63500000Y-45720000D02*
X63500000Y-48518000D01*
X62103000Y-50673000D02*
X59436000Y-50673000D01*
X62357000Y-50927000D02*
X62103000Y-50673000D01*
X66675000Y-45974000D02*
X66675000Y-44958000D01*
X70231000Y-49530000D02*
X66675000Y-45974000D01*
X70231000Y-49530000D02*
X71120000Y-49530000D01*
X71120000Y-49530000D02*
X71374000Y-49784000D01*
X69850000Y-48387000D02*
X69850000Y-44958000D01*
X70485000Y-49022000D02*
X69850000Y-48387000D01*
X71374000Y-48768000D02*
X71120000Y-49022000D01*
X71120000Y-49022000D02*
X70485000Y-49022000D01*
X70866000Y-36703000D02*
X70358000Y-36195000D01*
X70358000Y-36195000D02*
X69723000Y-36195000D01*
X70866000Y-37465000D02*
X70866000Y-36703000D01*
X74549000Y-39243000D02*
X74549000Y-39878000D01*
X74549000Y-39878000D02*
X73406000Y-41021000D01*
X73406000Y-41021000D02*
X71120000Y-41021000D01*
X71120000Y-41021000D02*
X69977000Y-39878000D01*
X69977000Y-39878000D02*
X69977000Y-38354000D01*
X69977000Y-38354000D02*
X70866000Y-37465000D01*
X67056000Y-36195000D02*
X65659000Y-36195000D01*
X65659000Y-36195000D02*
X64135000Y-36195000D01*
X64135000Y-36195000D02*
X62611000Y-37719000D01*
X52959000Y-60325000D02*
X52197000Y-59563000D01*
X52197000Y-59563000D02*
X52197000Y-49403000D01*
X52197000Y-49403000D02*
X52705000Y-48895000D01*
X57404000Y-61341000D02*
X56769000Y-60706000D01*
X58293000Y-62230000D02*
X57404000Y-61341000D01*
X61468000Y-62230000D02*
X58293000Y-62230000D01*
X64262000Y-65024000D02*
X61468000Y-62230000D01*
X71628000Y-65024000D02*
X64262000Y-65024000D01*
X78613000Y-35941000D02*
X78613000Y-33909000D01*
X78613000Y-33909000D02*
X79629000Y-32893000D01*
X80264000Y-43561000D02*
X79057500Y-44767500D01*
X80264000Y-37592000D02*
X80264000Y-43561000D01*
X80264000Y-37592000D02*
X78613000Y-35941000D01*
X80772000Y-32893000D02*
X81026000Y-32893000D01*
X79629000Y-32893000D02*
X80772000Y-32893000D01*
X81026000Y-32893000D02*
X82677000Y-34544000D01*
X82677000Y-34544000D02*
X82677000Y-37338000D01*
D17*
X84328000Y-42799000D02*
X84328000Y-34671000D01*
X84328000Y-34671000D02*
X84201000Y-34544000D01*
X75057000Y-62992000D02*
X76454000Y-61595000D01*
X74168000Y-62992000D02*
X75057000Y-62992000D01*
X76454000Y-61595000D02*
X79629000Y-61595000D01*
X79629000Y-61595000D02*
X79756000Y-61468000D01*
X84328000Y-53975000D02*
X84328000Y-42799000D01*
X84328000Y-54864000D02*
X84328000Y-53975000D01*
X81407000Y-57785000D02*
X84328000Y-54864000D01*
X81407000Y-59436000D02*
X81407000Y-57785000D01*
X82550000Y-60579000D02*
X81407000Y-59436000D01*
D18*
X77724000Y-37084000D02*
X77978000Y-36830000D01*
X67691000Y-45212000D02*
X69088000Y-43815000D01*
X71374000Y-43815000D02*
X75311000Y-39878000D01*
X75311000Y-39878000D02*
X75311000Y-38481000D01*
X75311000Y-38481000D02*
X76708000Y-37084000D01*
X69088000Y-43815000D02*
X71374000Y-43815000D01*
X76708000Y-37084000D02*
X77724000Y-37084000D01*
M02*
