M48
; DRILL file {KiCad (5.1.2)-1} date 08/09/19 17:52:43
; FORMAT={-:-/ absolute / inch / decimal}
; #@! TF.CreationDate,2019-08-09T17:52:43+09:00
; #@! TF.GenerationSoftware,Kicad,Pcbnew,(5.1.2)-1
; #@! TF.FileFunction,Plated,1,2,PTH
FMAT,2
INCH
T1C0.0157
T2C0.0236
T3C0.0866
%
G90
G05
T1
X2.1875Y-1.8125
X2.255Y-1.87
X2.325Y-1.28
X2.39Y-1.705
X2.39Y-1.81
X2.415Y-1.88
X2.425Y-1.81
X2.455Y-1.785
X2.465Y-1.61
X2.465Y-2.185
X2.475Y-1.445
X2.51Y-1.285
X2.54Y-2.03
X2.545Y-1.805
X2.585Y-1.665
X2.66Y-1.385
X2.66Y-1.42
X2.665Y-2.195
X2.665Y-2.3
X2.715Y-2.08
X2.735Y-2.11
X2.765Y-1.31
X2.77Y-1.55
X2.795Y-2.11
X2.8Y-1.575
X2.815Y-1.315
X2.875Y-2.025
X2.91Y-1.61
X2.94Y-1.58
T3
X2.0328Y-1.0906
T2
G00X2.5174Y-1.0591
M15
G01X2.5174Y-1.0354
M16
G05
G00X2.5174Y-1.2335
M15
G01X2.5174Y-1.1902
M16
G05
G00X2.8576Y-1.0591
M15
G01X2.8576Y-1.0354
M16
G05
G00X2.8576Y-1.2335
M15
G01X2.8576Y-1.1902
M16
G05
T0
M30
