%TF.GenerationSoftware,KiCad,Pcbnew,(5.1.2)-1*%
%TF.CreationDate,2019-08-09T17:52:41+09:00*%
%TF.ProjectId,Voyager4,566f7961-6765-4723-942e-6b696361645f,rev?*%
%TF.SameCoordinates,Original*%
%TF.FileFunction,Soldermask,Bot*%
%TF.FilePolarity,Negative*%
%FSLAX46Y46*%
G04 Gerber Fmt 4.6, Leading zero omitted, Abs format (unit mm)*
G04 Created by KiCad (PCBNEW (5.1.2)-1) date 2019-08-09 17:52:41*
%MOMM*%
%LPD*%
G04 APERTURE LIST*
%ADD10C,0.010000*%
%ADD11C,4.800000*%
%ADD12R,2.950000X2.900000*%
%ADD13C,2.150000*%
%ADD14C,3.400000*%
%ADD15C,4.387800*%
%ADD16R,1.400000X1.600000*%
%ADD17R,1.400000X1.300000*%
%ADD18R,1.900000X2.100000*%
%ADD19C,3.250000*%
%ADD20O,1.300000X0.650000*%
%ADD21O,0.650000X1.300000*%
%ADD22C,0.100000*%
%ADD23C,1.275000*%
%ADD24C,1.650000*%
%ADD25O,1.400000X2.000000*%
%ADD26O,1.400000X2.500000*%
%ADD27C,1.050000*%
G04 APERTURE END LIST*
D10*
G36*
X68072000Y-62420500D02*
G01*
X68476812Y-62420500D01*
X68476812Y-62015688D01*
X68072000Y-62015688D01*
X68072000Y-62420500D01*
X68072000Y-62420500D01*
G37*
X68072000Y-62420500D02*
X68476812Y-62420500D01*
X68476812Y-62015688D01*
X68072000Y-62015688D01*
X68072000Y-62420500D01*
G36*
X67667187Y-63206313D02*
G01*
X68072000Y-63206313D01*
X68072000Y-62825313D01*
X67667187Y-62825313D01*
X67667187Y-63206313D01*
X67667187Y-63206313D01*
G37*
X67667187Y-63206313D02*
X68072000Y-63206313D01*
X68072000Y-62825313D01*
X67667187Y-62825313D01*
X67667187Y-63206313D01*
G36*
X68476812Y-63206313D02*
G01*
X68857812Y-63206313D01*
X68857812Y-62825313D01*
X68476812Y-62825313D01*
X68476812Y-63206313D01*
X68476812Y-63206313D01*
G37*
X68476812Y-63206313D02*
X68857812Y-63206313D01*
X68857812Y-62825313D01*
X68476812Y-62825313D01*
X68476812Y-63206313D01*
G36*
X67286187Y-64015938D02*
G01*
X67667187Y-64015938D01*
X67667187Y-63611125D01*
X67286187Y-63611125D01*
X67286187Y-64015938D01*
X67286187Y-64015938D01*
G37*
X67286187Y-64015938D02*
X67667187Y-64015938D01*
X67667187Y-63611125D01*
X67286187Y-63611125D01*
X67286187Y-64015938D01*
G36*
X68072000Y-64015938D02*
G01*
X68476812Y-64015938D01*
X68476812Y-63611125D01*
X68072000Y-63611125D01*
X68072000Y-64015938D01*
X68072000Y-64015938D01*
G37*
X68072000Y-64015938D02*
X68476812Y-64015938D01*
X68476812Y-63611125D01*
X68072000Y-63611125D01*
X68072000Y-64015938D01*
G36*
X68857812Y-64015938D02*
G01*
X69262625Y-64015938D01*
X69262625Y-63611125D01*
X68857812Y-63611125D01*
X68857812Y-64015938D01*
X68857812Y-64015938D01*
G37*
X68857812Y-64015938D02*
X69262625Y-64015938D01*
X69262625Y-63611125D01*
X68857812Y-63611125D01*
X68857812Y-64015938D01*
G36*
X66881375Y-64801750D02*
G01*
X67286187Y-64801750D01*
X67286187Y-64396938D01*
X66881375Y-64396938D01*
X66881375Y-64801750D01*
X66881375Y-64801750D01*
G37*
X66881375Y-64801750D02*
X67286187Y-64801750D01*
X67286187Y-64396938D01*
X66881375Y-64396938D01*
X66881375Y-64801750D01*
G36*
X69262625Y-64801750D02*
G01*
X69667437Y-64801750D01*
X69667437Y-64396938D01*
X69262625Y-64396938D01*
X69262625Y-64801750D01*
X69262625Y-64801750D01*
G37*
X69262625Y-64801750D02*
X69667437Y-64801750D01*
X69667437Y-64396938D01*
X69262625Y-64396938D01*
X69262625Y-64801750D01*
G36*
X68258531Y-60528045D02*
G01*
X68134413Y-60529415D01*
X68022701Y-60533572D01*
X67920108Y-60540919D01*
X67823344Y-60551860D01*
X67729122Y-60566798D01*
X67634153Y-60586137D01*
X67535149Y-60610281D01*
X67489870Y-60622418D01*
X67281323Y-60687656D01*
X67079235Y-60766992D01*
X66884372Y-60860028D01*
X66697501Y-60966368D01*
X66519386Y-61085616D01*
X66367240Y-61203617D01*
X66209572Y-61344342D01*
X66062235Y-61495787D01*
X65925914Y-61656885D01*
X65801292Y-61826567D01*
X65689053Y-62003766D01*
X65589880Y-62187416D01*
X65504458Y-62376447D01*
X65433470Y-62569793D01*
X65384716Y-62737803D01*
X65351645Y-62877789D01*
X65326285Y-63009725D01*
X65307893Y-63138997D01*
X65295725Y-63270993D01*
X65289039Y-63411100D01*
X65288386Y-63436500D01*
X65291105Y-63654797D01*
X65309300Y-63869580D01*
X65342965Y-64080821D01*
X65392094Y-64288489D01*
X65456681Y-64492555D01*
X65520878Y-64656487D01*
X65548961Y-64721752D01*
X65573023Y-64775910D01*
X65594892Y-64822613D01*
X65616393Y-64865513D01*
X65639354Y-64908263D01*
X65665600Y-64954515D01*
X65694725Y-65004156D01*
X65813944Y-65190427D01*
X65944048Y-65365153D01*
X66085171Y-65528465D01*
X66237445Y-65680496D01*
X66401003Y-65821380D01*
X66575976Y-65951248D01*
X66758344Y-66067775D01*
X66811173Y-66098744D01*
X66857086Y-66124721D01*
X66899735Y-66147531D01*
X66942772Y-66169001D01*
X66989849Y-66190957D01*
X67044619Y-66215225D01*
X67106013Y-66241622D01*
X67202246Y-66281169D01*
X67290964Y-66314208D01*
X67378078Y-66342695D01*
X67469502Y-66368589D01*
X67552094Y-66389322D01*
X67716610Y-66424876D01*
X67873705Y-66450553D01*
X68027933Y-66466893D01*
X68183851Y-66474436D01*
X68274406Y-66475013D01*
X68325625Y-66474498D01*
X68373746Y-66473793D01*
X68415626Y-66472960D01*
X68448122Y-66472063D01*
X68468090Y-66471165D01*
X68468875Y-66471109D01*
X68685049Y-66447157D01*
X68897806Y-66408170D01*
X69106287Y-66354467D01*
X69309632Y-66286363D01*
X69506984Y-66204176D01*
X69697482Y-66108225D01*
X69880268Y-65998826D01*
X70031224Y-65893796D01*
X70204151Y-65755449D01*
X70364835Y-65607088D01*
X70513049Y-65449039D01*
X70648571Y-65281632D01*
X70771176Y-65105194D01*
X70880639Y-64920052D01*
X70976737Y-64726535D01*
X71059244Y-64524971D01*
X71127937Y-64315688D01*
X71140082Y-64272630D01*
X71166448Y-64170835D01*
X71187833Y-64074511D01*
X71204641Y-63980367D01*
X71217275Y-63885117D01*
X71226140Y-63785470D01*
X71231638Y-63678140D01*
X71234174Y-63559836D01*
X71234455Y-63503969D01*
X71233780Y-63448608D01*
X70701706Y-63448608D01*
X70701603Y-63528746D01*
X70699937Y-63608410D01*
X70696741Y-63683537D01*
X70692044Y-63750060D01*
X70688324Y-63785750D01*
X70656450Y-63983048D01*
X70609799Y-64174663D01*
X70548549Y-64360222D01*
X70472881Y-64539349D01*
X70382973Y-64711669D01*
X70279006Y-64876809D01*
X70161159Y-65034393D01*
X70029612Y-65184047D01*
X70007276Y-65207260D01*
X69873042Y-65334334D01*
X69727340Y-65452270D01*
X69572869Y-65559090D01*
X69412331Y-65652816D01*
X69366542Y-65676504D01*
X69292134Y-65713153D01*
X69226893Y-65743372D01*
X69166396Y-65768940D01*
X69106222Y-65791634D01*
X69041949Y-65813233D01*
X68976875Y-65833227D01*
X68787662Y-65882640D01*
X68601911Y-65917091D01*
X68418173Y-65936714D01*
X68234997Y-65941642D01*
X68050936Y-65932011D01*
X67984394Y-65925031D01*
X67797062Y-65896087D01*
X67617481Y-65854278D01*
X67443143Y-65798854D01*
X67271541Y-65729064D01*
X67174584Y-65682866D01*
X67003952Y-65589447D01*
X66844536Y-65485712D01*
X66695578Y-65370974D01*
X66556321Y-65244550D01*
X66426006Y-65105754D01*
X66303876Y-64953903D01*
X66195608Y-64798259D01*
X66170482Y-64757068D01*
X66141159Y-64704940D01*
X66109459Y-64645496D01*
X66077201Y-64582356D01*
X66046207Y-64519140D01*
X66018294Y-64459467D01*
X65995285Y-64406957D01*
X65981847Y-64373125D01*
X65918980Y-64181584D01*
X65871584Y-63988845D01*
X65839700Y-63795450D01*
X65823370Y-63601940D01*
X65822632Y-63408857D01*
X65837528Y-63216742D01*
X65868098Y-63026136D01*
X65877901Y-62980094D01*
X65911550Y-62843801D01*
X65949858Y-62717618D01*
X65994796Y-62596007D01*
X66048337Y-62473432D01*
X66085996Y-62395958D01*
X66179701Y-62227110D01*
X66286526Y-62066673D01*
X66405702Y-61915368D01*
X66536463Y-61773914D01*
X66678040Y-61643031D01*
X66829666Y-61523440D01*
X66990573Y-61415860D01*
X67159993Y-61321011D01*
X67304175Y-61253480D01*
X67475803Y-61187085D01*
X67648357Y-61135087D01*
X67823844Y-61097078D01*
X68004274Y-61072651D01*
X68191655Y-61061397D01*
X68254562Y-61060507D01*
X68452657Y-61066877D01*
X68644285Y-61087522D01*
X68830219Y-61122673D01*
X69011235Y-61172567D01*
X69188106Y-61237435D01*
X69361606Y-61317513D01*
X69532509Y-61413035D01*
X69633206Y-61477244D01*
X69772639Y-61578772D01*
X69906837Y-61693278D01*
X70034159Y-61818839D01*
X70152965Y-61953531D01*
X70261614Y-62095431D01*
X70358465Y-62242615D01*
X70441878Y-62393161D01*
X70476674Y-62466080D01*
X70538077Y-62610939D01*
X70588308Y-62750178D01*
X70628565Y-62888126D01*
X70660044Y-63029114D01*
X70683944Y-63177471D01*
X70692345Y-63246000D01*
X70697108Y-63303170D01*
X70700218Y-63372061D01*
X70701706Y-63448608D01*
X71233780Y-63448608D01*
X71232710Y-63360973D01*
X71226836Y-63230106D01*
X71216262Y-63108025D01*
X71200415Y-62991385D01*
X71178723Y-62876844D01*
X71150613Y-62761059D01*
X71115514Y-62640687D01*
X71072853Y-62512384D01*
X71057159Y-62468125D01*
X70978774Y-62273406D01*
X70885934Y-62085072D01*
X70778828Y-61903385D01*
X70657648Y-61728608D01*
X70522583Y-61561003D01*
X70373826Y-61400833D01*
X70211567Y-61248360D01*
X70104729Y-61158179D01*
X70018900Y-61092686D01*
X69921361Y-61025360D01*
X69815752Y-60958412D01*
X69705714Y-60894055D01*
X69594887Y-60834500D01*
X69486911Y-60781958D01*
X69480906Y-60779215D01*
X69410946Y-60749342D01*
X69329765Y-60717956D01*
X69241733Y-60686536D01*
X69151221Y-60656562D01*
X69062599Y-60629511D01*
X68980236Y-60606864D01*
X68948350Y-60598971D01*
X68855125Y-60578203D01*
X68766151Y-60561543D01*
X68678147Y-60548652D01*
X68587831Y-60539195D01*
X68491922Y-60532832D01*
X68387140Y-60529228D01*
X68270205Y-60528044D01*
X68258531Y-60528045D01*
X68258531Y-60528045D01*
G37*
X68258531Y-60528045D02*
X68134413Y-60529415D01*
X68022701Y-60533572D01*
X67920108Y-60540919D01*
X67823344Y-60551860D01*
X67729122Y-60566798D01*
X67634153Y-60586137D01*
X67535149Y-60610281D01*
X67489870Y-60622418D01*
X67281323Y-60687656D01*
X67079235Y-60766992D01*
X66884372Y-60860028D01*
X66697501Y-60966368D01*
X66519386Y-61085616D01*
X66367240Y-61203617D01*
X66209572Y-61344342D01*
X66062235Y-61495787D01*
X65925914Y-61656885D01*
X65801292Y-61826567D01*
X65689053Y-62003766D01*
X65589880Y-62187416D01*
X65504458Y-62376447D01*
X65433470Y-62569793D01*
X65384716Y-62737803D01*
X65351645Y-62877789D01*
X65326285Y-63009725D01*
X65307893Y-63138997D01*
X65295725Y-63270993D01*
X65289039Y-63411100D01*
X65288386Y-63436500D01*
X65291105Y-63654797D01*
X65309300Y-63869580D01*
X65342965Y-64080821D01*
X65392094Y-64288489D01*
X65456681Y-64492555D01*
X65520878Y-64656487D01*
X65548961Y-64721752D01*
X65573023Y-64775910D01*
X65594892Y-64822613D01*
X65616393Y-64865513D01*
X65639354Y-64908263D01*
X65665600Y-64954515D01*
X65694725Y-65004156D01*
X65813944Y-65190427D01*
X65944048Y-65365153D01*
X66085171Y-65528465D01*
X66237445Y-65680496D01*
X66401003Y-65821380D01*
X66575976Y-65951248D01*
X66758344Y-66067775D01*
X66811173Y-66098744D01*
X66857086Y-66124721D01*
X66899735Y-66147531D01*
X66942772Y-66169001D01*
X66989849Y-66190957D01*
X67044619Y-66215225D01*
X67106013Y-66241622D01*
X67202246Y-66281169D01*
X67290964Y-66314208D01*
X67378078Y-66342695D01*
X67469502Y-66368589D01*
X67552094Y-66389322D01*
X67716610Y-66424876D01*
X67873705Y-66450553D01*
X68027933Y-66466893D01*
X68183851Y-66474436D01*
X68274406Y-66475013D01*
X68325625Y-66474498D01*
X68373746Y-66473793D01*
X68415626Y-66472960D01*
X68448122Y-66472063D01*
X68468090Y-66471165D01*
X68468875Y-66471109D01*
X68685049Y-66447157D01*
X68897806Y-66408170D01*
X69106287Y-66354467D01*
X69309632Y-66286363D01*
X69506984Y-66204176D01*
X69697482Y-66108225D01*
X69880268Y-65998826D01*
X70031224Y-65893796D01*
X70204151Y-65755449D01*
X70364835Y-65607088D01*
X70513049Y-65449039D01*
X70648571Y-65281632D01*
X70771176Y-65105194D01*
X70880639Y-64920052D01*
X70976737Y-64726535D01*
X71059244Y-64524971D01*
X71127937Y-64315688D01*
X71140082Y-64272630D01*
X71166448Y-64170835D01*
X71187833Y-64074511D01*
X71204641Y-63980367D01*
X71217275Y-63885117D01*
X71226140Y-63785470D01*
X71231638Y-63678140D01*
X71234174Y-63559836D01*
X71234455Y-63503969D01*
X71233780Y-63448608D01*
X70701706Y-63448608D01*
X70701603Y-63528746D01*
X70699937Y-63608410D01*
X70696741Y-63683537D01*
X70692044Y-63750060D01*
X70688324Y-63785750D01*
X70656450Y-63983048D01*
X70609799Y-64174663D01*
X70548549Y-64360222D01*
X70472881Y-64539349D01*
X70382973Y-64711669D01*
X70279006Y-64876809D01*
X70161159Y-65034393D01*
X70029612Y-65184047D01*
X70007276Y-65207260D01*
X69873042Y-65334334D01*
X69727340Y-65452270D01*
X69572869Y-65559090D01*
X69412331Y-65652816D01*
X69366542Y-65676504D01*
X69292134Y-65713153D01*
X69226893Y-65743372D01*
X69166396Y-65768940D01*
X69106222Y-65791634D01*
X69041949Y-65813233D01*
X68976875Y-65833227D01*
X68787662Y-65882640D01*
X68601911Y-65917091D01*
X68418173Y-65936714D01*
X68234997Y-65941642D01*
X68050936Y-65932011D01*
X67984394Y-65925031D01*
X67797062Y-65896087D01*
X67617481Y-65854278D01*
X67443143Y-65798854D01*
X67271541Y-65729064D01*
X67174584Y-65682866D01*
X67003952Y-65589447D01*
X66844536Y-65485712D01*
X66695578Y-65370974D01*
X66556321Y-65244550D01*
X66426006Y-65105754D01*
X66303876Y-64953903D01*
X66195608Y-64798259D01*
X66170482Y-64757068D01*
X66141159Y-64704940D01*
X66109459Y-64645496D01*
X66077201Y-64582356D01*
X66046207Y-64519140D01*
X66018294Y-64459467D01*
X65995285Y-64406957D01*
X65981847Y-64373125D01*
X65918980Y-64181584D01*
X65871584Y-63988845D01*
X65839700Y-63795450D01*
X65823370Y-63601940D01*
X65822632Y-63408857D01*
X65837528Y-63216742D01*
X65868098Y-63026136D01*
X65877901Y-62980094D01*
X65911550Y-62843801D01*
X65949858Y-62717618D01*
X65994796Y-62596007D01*
X66048337Y-62473432D01*
X66085996Y-62395958D01*
X66179701Y-62227110D01*
X66286526Y-62066673D01*
X66405702Y-61915368D01*
X66536463Y-61773914D01*
X66678040Y-61643031D01*
X66829666Y-61523440D01*
X66990573Y-61415860D01*
X67159993Y-61321011D01*
X67304175Y-61253480D01*
X67475803Y-61187085D01*
X67648357Y-61135087D01*
X67823844Y-61097078D01*
X68004274Y-61072651D01*
X68191655Y-61061397D01*
X68254562Y-61060507D01*
X68452657Y-61066877D01*
X68644285Y-61087522D01*
X68830219Y-61122673D01*
X69011235Y-61172567D01*
X69188106Y-61237435D01*
X69361606Y-61317513D01*
X69532509Y-61413035D01*
X69633206Y-61477244D01*
X69772639Y-61578772D01*
X69906837Y-61693278D01*
X70034159Y-61818839D01*
X70152965Y-61953531D01*
X70261614Y-62095431D01*
X70358465Y-62242615D01*
X70441878Y-62393161D01*
X70476674Y-62466080D01*
X70538077Y-62610939D01*
X70588308Y-62750178D01*
X70628565Y-62888126D01*
X70660044Y-63029114D01*
X70683944Y-63177471D01*
X70692345Y-63246000D01*
X70697108Y-63303170D01*
X70700218Y-63372061D01*
X70701706Y-63448608D01*
X71233780Y-63448608D01*
X71232710Y-63360973D01*
X71226836Y-63230106D01*
X71216262Y-63108025D01*
X71200415Y-62991385D01*
X71178723Y-62876844D01*
X71150613Y-62761059D01*
X71115514Y-62640687D01*
X71072853Y-62512384D01*
X71057159Y-62468125D01*
X70978774Y-62273406D01*
X70885934Y-62085072D01*
X70778828Y-61903385D01*
X70657648Y-61728608D01*
X70522583Y-61561003D01*
X70373826Y-61400833D01*
X70211567Y-61248360D01*
X70104729Y-61158179D01*
X70018900Y-61092686D01*
X69921361Y-61025360D01*
X69815752Y-60958412D01*
X69705714Y-60894055D01*
X69594887Y-60834500D01*
X69486911Y-60781958D01*
X69480906Y-60779215D01*
X69410946Y-60749342D01*
X69329765Y-60717956D01*
X69241733Y-60686536D01*
X69151221Y-60656562D01*
X69062599Y-60629511D01*
X68980236Y-60606864D01*
X68948350Y-60598971D01*
X68855125Y-60578203D01*
X68766151Y-60561543D01*
X68678147Y-60548652D01*
X68587831Y-60539195D01*
X68491922Y-60532832D01*
X68387140Y-60529228D01*
X68270205Y-60528044D01*
X68258531Y-60528045D01*
D11*
X51632800Y-27700799D03*
D12*
X64579500Y-34607500D03*
X51652500Y-37147500D03*
D13*
X63817500Y-39687500D03*
X53657500Y-39687500D03*
D14*
X54927500Y-37147500D03*
D15*
X58737500Y-39687500D03*
D14*
X61277500Y-34607500D03*
D16*
X68079000Y-37604000D03*
D17*
X65779000Y-37404000D03*
X68079000Y-39304000D03*
X65779000Y-39304000D03*
D18*
X76469750Y-44882750D03*
X76469750Y-47382750D03*
X74469750Y-47382750D03*
X74469750Y-44882750D03*
D19*
X68453000Y-47752000D03*
D20*
X70953000Y-46002000D03*
X70953000Y-46502000D03*
X70953000Y-47002000D03*
X70953000Y-47502000D03*
X70953000Y-48002000D03*
X70953000Y-48502000D03*
X70953000Y-49002000D03*
X70953000Y-49502000D03*
D21*
X70203000Y-50252000D03*
X69703000Y-50252000D03*
X69203000Y-50252000D03*
X68703000Y-50252000D03*
X68203000Y-50252000D03*
X67703000Y-50252000D03*
X67203000Y-50252000D03*
X66703000Y-50252000D03*
D20*
X65953000Y-49502000D03*
X65953000Y-49002000D03*
X65953000Y-48502000D03*
X65953000Y-48002000D03*
X65953000Y-47502000D03*
X65953000Y-47002000D03*
X65953000Y-46502000D03*
X65953000Y-46002000D03*
D21*
X66703000Y-45252000D03*
X67203000Y-45252000D03*
X67703000Y-45252000D03*
X68203000Y-45252000D03*
X68703000Y-45252000D03*
X69203000Y-45252000D03*
X69703000Y-45252000D03*
X70203000Y-45252000D03*
D22*
G36*
X58299993Y-45364035D02*
G01*
X58330935Y-45368625D01*
X58361278Y-45376225D01*
X58390730Y-45386763D01*
X58419008Y-45400138D01*
X58445838Y-45416219D01*
X58470963Y-45434853D01*
X58494140Y-45455860D01*
X58515147Y-45479037D01*
X58533781Y-45504162D01*
X58549862Y-45530992D01*
X58563237Y-45559270D01*
X58573775Y-45588722D01*
X58581375Y-45619065D01*
X58585965Y-45650007D01*
X58587500Y-45681250D01*
X58587500Y-46393750D01*
X58585965Y-46424993D01*
X58581375Y-46455935D01*
X58573775Y-46486278D01*
X58563237Y-46515730D01*
X58549862Y-46544008D01*
X58533781Y-46570838D01*
X58515147Y-46595963D01*
X58494140Y-46619140D01*
X58470963Y-46640147D01*
X58445838Y-46658781D01*
X58419008Y-46674862D01*
X58390730Y-46688237D01*
X58361278Y-46698775D01*
X58330935Y-46706375D01*
X58299993Y-46710965D01*
X58268750Y-46712500D01*
X57631250Y-46712500D01*
X57600007Y-46710965D01*
X57569065Y-46706375D01*
X57538722Y-46698775D01*
X57509270Y-46688237D01*
X57480992Y-46674862D01*
X57454162Y-46658781D01*
X57429037Y-46640147D01*
X57405860Y-46619140D01*
X57384853Y-46595963D01*
X57366219Y-46570838D01*
X57350138Y-46544008D01*
X57336763Y-46515730D01*
X57326225Y-46486278D01*
X57318625Y-46455935D01*
X57314035Y-46424993D01*
X57312500Y-46393750D01*
X57312500Y-45681250D01*
X57314035Y-45650007D01*
X57318625Y-45619065D01*
X57326225Y-45588722D01*
X57336763Y-45559270D01*
X57350138Y-45530992D01*
X57366219Y-45504162D01*
X57384853Y-45479037D01*
X57405860Y-45455860D01*
X57429037Y-45434853D01*
X57454162Y-45416219D01*
X57480992Y-45400138D01*
X57509270Y-45386763D01*
X57538722Y-45376225D01*
X57569065Y-45368625D01*
X57600007Y-45364035D01*
X57631250Y-45362500D01*
X58268750Y-45362500D01*
X58299993Y-45364035D01*
X58299993Y-45364035D01*
G37*
D23*
X57950000Y-46037500D03*
D22*
G36*
X59874993Y-45364035D02*
G01*
X59905935Y-45368625D01*
X59936278Y-45376225D01*
X59965730Y-45386763D01*
X59994008Y-45400138D01*
X60020838Y-45416219D01*
X60045963Y-45434853D01*
X60069140Y-45455860D01*
X60090147Y-45479037D01*
X60108781Y-45504162D01*
X60124862Y-45530992D01*
X60138237Y-45559270D01*
X60148775Y-45588722D01*
X60156375Y-45619065D01*
X60160965Y-45650007D01*
X60162500Y-45681250D01*
X60162500Y-46393750D01*
X60160965Y-46424993D01*
X60156375Y-46455935D01*
X60148775Y-46486278D01*
X60138237Y-46515730D01*
X60124862Y-46544008D01*
X60108781Y-46570838D01*
X60090147Y-46595963D01*
X60069140Y-46619140D01*
X60045963Y-46640147D01*
X60020838Y-46658781D01*
X59994008Y-46674862D01*
X59965730Y-46688237D01*
X59936278Y-46698775D01*
X59905935Y-46706375D01*
X59874993Y-46710965D01*
X59843750Y-46712500D01*
X59206250Y-46712500D01*
X59175007Y-46710965D01*
X59144065Y-46706375D01*
X59113722Y-46698775D01*
X59084270Y-46688237D01*
X59055992Y-46674862D01*
X59029162Y-46658781D01*
X59004037Y-46640147D01*
X58980860Y-46619140D01*
X58959853Y-46595963D01*
X58941219Y-46570838D01*
X58925138Y-46544008D01*
X58911763Y-46515730D01*
X58901225Y-46486278D01*
X58893625Y-46455935D01*
X58889035Y-46424993D01*
X58887500Y-46393750D01*
X58887500Y-45681250D01*
X58889035Y-45650007D01*
X58893625Y-45619065D01*
X58901225Y-45588722D01*
X58911763Y-45559270D01*
X58925138Y-45530992D01*
X58941219Y-45504162D01*
X58959853Y-45479037D01*
X58980860Y-45455860D01*
X59004037Y-45434853D01*
X59029162Y-45416219D01*
X59055992Y-45400138D01*
X59084270Y-45386763D01*
X59113722Y-45376225D01*
X59144065Y-45368625D01*
X59175007Y-45364035D01*
X59206250Y-45362500D01*
X59843750Y-45362500D01*
X59874993Y-45364035D01*
X59874993Y-45364035D01*
G37*
D23*
X59525000Y-46037500D03*
D22*
G36*
X66491493Y-56476535D02*
G01*
X66522435Y-56481125D01*
X66552778Y-56488725D01*
X66582230Y-56499263D01*
X66610508Y-56512638D01*
X66637338Y-56528719D01*
X66662463Y-56547353D01*
X66685640Y-56568360D01*
X66706647Y-56591537D01*
X66725281Y-56616662D01*
X66741362Y-56643492D01*
X66754737Y-56671770D01*
X66765275Y-56701222D01*
X66772875Y-56731565D01*
X66777465Y-56762507D01*
X66779000Y-56793750D01*
X66779000Y-57506250D01*
X66777465Y-57537493D01*
X66772875Y-57568435D01*
X66765275Y-57598778D01*
X66754737Y-57628230D01*
X66741362Y-57656508D01*
X66725281Y-57683338D01*
X66706647Y-57708463D01*
X66685640Y-57731640D01*
X66662463Y-57752647D01*
X66637338Y-57771281D01*
X66610508Y-57787362D01*
X66582230Y-57800737D01*
X66552778Y-57811275D01*
X66522435Y-57818875D01*
X66491493Y-57823465D01*
X66460250Y-57825000D01*
X65822750Y-57825000D01*
X65791507Y-57823465D01*
X65760565Y-57818875D01*
X65730222Y-57811275D01*
X65700770Y-57800737D01*
X65672492Y-57787362D01*
X65645662Y-57771281D01*
X65620537Y-57752647D01*
X65597360Y-57731640D01*
X65576353Y-57708463D01*
X65557719Y-57683338D01*
X65541638Y-57656508D01*
X65528263Y-57628230D01*
X65517725Y-57598778D01*
X65510125Y-57568435D01*
X65505535Y-57537493D01*
X65504000Y-57506250D01*
X65504000Y-56793750D01*
X65505535Y-56762507D01*
X65510125Y-56731565D01*
X65517725Y-56701222D01*
X65528263Y-56671770D01*
X65541638Y-56643492D01*
X65557719Y-56616662D01*
X65576353Y-56591537D01*
X65597360Y-56568360D01*
X65620537Y-56547353D01*
X65645662Y-56528719D01*
X65672492Y-56512638D01*
X65700770Y-56499263D01*
X65730222Y-56488725D01*
X65760565Y-56481125D01*
X65791507Y-56476535D01*
X65822750Y-56475000D01*
X66460250Y-56475000D01*
X66491493Y-56476535D01*
X66491493Y-56476535D01*
G37*
D23*
X66141500Y-57150000D03*
D22*
G36*
X68066493Y-56476535D02*
G01*
X68097435Y-56481125D01*
X68127778Y-56488725D01*
X68157230Y-56499263D01*
X68185508Y-56512638D01*
X68212338Y-56528719D01*
X68237463Y-56547353D01*
X68260640Y-56568360D01*
X68281647Y-56591537D01*
X68300281Y-56616662D01*
X68316362Y-56643492D01*
X68329737Y-56671770D01*
X68340275Y-56701222D01*
X68347875Y-56731565D01*
X68352465Y-56762507D01*
X68354000Y-56793750D01*
X68354000Y-57506250D01*
X68352465Y-57537493D01*
X68347875Y-57568435D01*
X68340275Y-57598778D01*
X68329737Y-57628230D01*
X68316362Y-57656508D01*
X68300281Y-57683338D01*
X68281647Y-57708463D01*
X68260640Y-57731640D01*
X68237463Y-57752647D01*
X68212338Y-57771281D01*
X68185508Y-57787362D01*
X68157230Y-57800737D01*
X68127778Y-57811275D01*
X68097435Y-57818875D01*
X68066493Y-57823465D01*
X68035250Y-57825000D01*
X67397750Y-57825000D01*
X67366507Y-57823465D01*
X67335565Y-57818875D01*
X67305222Y-57811275D01*
X67275770Y-57800737D01*
X67247492Y-57787362D01*
X67220662Y-57771281D01*
X67195537Y-57752647D01*
X67172360Y-57731640D01*
X67151353Y-57708463D01*
X67132719Y-57683338D01*
X67116638Y-57656508D01*
X67103263Y-57628230D01*
X67092725Y-57598778D01*
X67085125Y-57568435D01*
X67080535Y-57537493D01*
X67079000Y-57506250D01*
X67079000Y-56793750D01*
X67080535Y-56762507D01*
X67085125Y-56731565D01*
X67092725Y-56701222D01*
X67103263Y-56671770D01*
X67116638Y-56643492D01*
X67132719Y-56616662D01*
X67151353Y-56591537D01*
X67172360Y-56568360D01*
X67195537Y-56547353D01*
X67220662Y-56528719D01*
X67247492Y-56512638D01*
X67275770Y-56499263D01*
X67305222Y-56488725D01*
X67335565Y-56481125D01*
X67366507Y-56476535D01*
X67397750Y-56475000D01*
X68035250Y-56475000D01*
X68066493Y-56476535D01*
X68066493Y-56476535D01*
G37*
D23*
X67716500Y-57150000D03*
D22*
G36*
X58299993Y-42982785D02*
G01*
X58330935Y-42987375D01*
X58361278Y-42994975D01*
X58390730Y-43005513D01*
X58419008Y-43018888D01*
X58445838Y-43034969D01*
X58470963Y-43053603D01*
X58494140Y-43074610D01*
X58515147Y-43097787D01*
X58533781Y-43122912D01*
X58549862Y-43149742D01*
X58563237Y-43178020D01*
X58573775Y-43207472D01*
X58581375Y-43237815D01*
X58585965Y-43268757D01*
X58587500Y-43300000D01*
X58587500Y-44012500D01*
X58585965Y-44043743D01*
X58581375Y-44074685D01*
X58573775Y-44105028D01*
X58563237Y-44134480D01*
X58549862Y-44162758D01*
X58533781Y-44189588D01*
X58515147Y-44214713D01*
X58494140Y-44237890D01*
X58470963Y-44258897D01*
X58445838Y-44277531D01*
X58419008Y-44293612D01*
X58390730Y-44306987D01*
X58361278Y-44317525D01*
X58330935Y-44325125D01*
X58299993Y-44329715D01*
X58268750Y-44331250D01*
X57631250Y-44331250D01*
X57600007Y-44329715D01*
X57569065Y-44325125D01*
X57538722Y-44317525D01*
X57509270Y-44306987D01*
X57480992Y-44293612D01*
X57454162Y-44277531D01*
X57429037Y-44258897D01*
X57405860Y-44237890D01*
X57384853Y-44214713D01*
X57366219Y-44189588D01*
X57350138Y-44162758D01*
X57336763Y-44134480D01*
X57326225Y-44105028D01*
X57318625Y-44074685D01*
X57314035Y-44043743D01*
X57312500Y-44012500D01*
X57312500Y-43300000D01*
X57314035Y-43268757D01*
X57318625Y-43237815D01*
X57326225Y-43207472D01*
X57336763Y-43178020D01*
X57350138Y-43149742D01*
X57366219Y-43122912D01*
X57384853Y-43097787D01*
X57405860Y-43074610D01*
X57429037Y-43053603D01*
X57454162Y-43034969D01*
X57480992Y-43018888D01*
X57509270Y-43005513D01*
X57538722Y-42994975D01*
X57569065Y-42987375D01*
X57600007Y-42982785D01*
X57631250Y-42981250D01*
X58268750Y-42981250D01*
X58299993Y-42982785D01*
X58299993Y-42982785D01*
G37*
D23*
X57950000Y-43656250D03*
D22*
G36*
X59874993Y-42982785D02*
G01*
X59905935Y-42987375D01*
X59936278Y-42994975D01*
X59965730Y-43005513D01*
X59994008Y-43018888D01*
X60020838Y-43034969D01*
X60045963Y-43053603D01*
X60069140Y-43074610D01*
X60090147Y-43097787D01*
X60108781Y-43122912D01*
X60124862Y-43149742D01*
X60138237Y-43178020D01*
X60148775Y-43207472D01*
X60156375Y-43237815D01*
X60160965Y-43268757D01*
X60162500Y-43300000D01*
X60162500Y-44012500D01*
X60160965Y-44043743D01*
X60156375Y-44074685D01*
X60148775Y-44105028D01*
X60138237Y-44134480D01*
X60124862Y-44162758D01*
X60108781Y-44189588D01*
X60090147Y-44214713D01*
X60069140Y-44237890D01*
X60045963Y-44258897D01*
X60020838Y-44277531D01*
X59994008Y-44293612D01*
X59965730Y-44306987D01*
X59936278Y-44317525D01*
X59905935Y-44325125D01*
X59874993Y-44329715D01*
X59843750Y-44331250D01*
X59206250Y-44331250D01*
X59175007Y-44329715D01*
X59144065Y-44325125D01*
X59113722Y-44317525D01*
X59084270Y-44306987D01*
X59055992Y-44293612D01*
X59029162Y-44277531D01*
X59004037Y-44258897D01*
X58980860Y-44237890D01*
X58959853Y-44214713D01*
X58941219Y-44189588D01*
X58925138Y-44162758D01*
X58911763Y-44134480D01*
X58901225Y-44105028D01*
X58893625Y-44074685D01*
X58889035Y-44043743D01*
X58887500Y-44012500D01*
X58887500Y-43300000D01*
X58889035Y-43268757D01*
X58893625Y-43237815D01*
X58901225Y-43207472D01*
X58911763Y-43178020D01*
X58925138Y-43149742D01*
X58941219Y-43122912D01*
X58959853Y-43097787D01*
X58980860Y-43074610D01*
X59004037Y-43053603D01*
X59029162Y-43034969D01*
X59055992Y-43018888D01*
X59084270Y-43005513D01*
X59113722Y-42994975D01*
X59144065Y-42987375D01*
X59175007Y-42982785D01*
X59206250Y-42981250D01*
X59843750Y-42981250D01*
X59874993Y-42982785D01*
X59874993Y-42982785D01*
G37*
D23*
X59525000Y-43656250D03*
D22*
G36*
X67443493Y-42220285D02*
G01*
X67474435Y-42224875D01*
X67504778Y-42232475D01*
X67534230Y-42243013D01*
X67562508Y-42256388D01*
X67589338Y-42272469D01*
X67614463Y-42291103D01*
X67637640Y-42312110D01*
X67658647Y-42335287D01*
X67677281Y-42360412D01*
X67693362Y-42387242D01*
X67706737Y-42415520D01*
X67717275Y-42444972D01*
X67724875Y-42475315D01*
X67729465Y-42506257D01*
X67731000Y-42537500D01*
X67731000Y-43175000D01*
X67729465Y-43206243D01*
X67724875Y-43237185D01*
X67717275Y-43267528D01*
X67706737Y-43296980D01*
X67693362Y-43325258D01*
X67677281Y-43352088D01*
X67658647Y-43377213D01*
X67637640Y-43400390D01*
X67614463Y-43421397D01*
X67589338Y-43440031D01*
X67562508Y-43456112D01*
X67534230Y-43469487D01*
X67504778Y-43480025D01*
X67474435Y-43487625D01*
X67443493Y-43492215D01*
X67412250Y-43493750D01*
X66699750Y-43493750D01*
X66668507Y-43492215D01*
X66637565Y-43487625D01*
X66607222Y-43480025D01*
X66577770Y-43469487D01*
X66549492Y-43456112D01*
X66522662Y-43440031D01*
X66497537Y-43421397D01*
X66474360Y-43400390D01*
X66453353Y-43377213D01*
X66434719Y-43352088D01*
X66418638Y-43325258D01*
X66405263Y-43296980D01*
X66394725Y-43267528D01*
X66387125Y-43237185D01*
X66382535Y-43206243D01*
X66381000Y-43175000D01*
X66381000Y-42537500D01*
X66382535Y-42506257D01*
X66387125Y-42475315D01*
X66394725Y-42444972D01*
X66405263Y-42415520D01*
X66418638Y-42387242D01*
X66434719Y-42360412D01*
X66453353Y-42335287D01*
X66474360Y-42312110D01*
X66497537Y-42291103D01*
X66522662Y-42272469D01*
X66549492Y-42256388D01*
X66577770Y-42243013D01*
X66607222Y-42232475D01*
X66637565Y-42224875D01*
X66668507Y-42220285D01*
X66699750Y-42218750D01*
X67412250Y-42218750D01*
X67443493Y-42220285D01*
X67443493Y-42220285D01*
G37*
D23*
X67056000Y-42856250D03*
D22*
G36*
X67443493Y-40645285D02*
G01*
X67474435Y-40649875D01*
X67504778Y-40657475D01*
X67534230Y-40668013D01*
X67562508Y-40681388D01*
X67589338Y-40697469D01*
X67614463Y-40716103D01*
X67637640Y-40737110D01*
X67658647Y-40760287D01*
X67677281Y-40785412D01*
X67693362Y-40812242D01*
X67706737Y-40840520D01*
X67717275Y-40869972D01*
X67724875Y-40900315D01*
X67729465Y-40931257D01*
X67731000Y-40962500D01*
X67731000Y-41600000D01*
X67729465Y-41631243D01*
X67724875Y-41662185D01*
X67717275Y-41692528D01*
X67706737Y-41721980D01*
X67693362Y-41750258D01*
X67677281Y-41777088D01*
X67658647Y-41802213D01*
X67637640Y-41825390D01*
X67614463Y-41846397D01*
X67589338Y-41865031D01*
X67562508Y-41881112D01*
X67534230Y-41894487D01*
X67504778Y-41905025D01*
X67474435Y-41912625D01*
X67443493Y-41917215D01*
X67412250Y-41918750D01*
X66699750Y-41918750D01*
X66668507Y-41917215D01*
X66637565Y-41912625D01*
X66607222Y-41905025D01*
X66577770Y-41894487D01*
X66549492Y-41881112D01*
X66522662Y-41865031D01*
X66497537Y-41846397D01*
X66474360Y-41825390D01*
X66453353Y-41802213D01*
X66434719Y-41777088D01*
X66418638Y-41750258D01*
X66405263Y-41721980D01*
X66394725Y-41692528D01*
X66387125Y-41662185D01*
X66382535Y-41631243D01*
X66381000Y-41600000D01*
X66381000Y-40962500D01*
X66382535Y-40931257D01*
X66387125Y-40900315D01*
X66394725Y-40869972D01*
X66405263Y-40840520D01*
X66418638Y-40812242D01*
X66434719Y-40785412D01*
X66453353Y-40760287D01*
X66474360Y-40737110D01*
X66497537Y-40716103D01*
X66522662Y-40697469D01*
X66549492Y-40681388D01*
X66577770Y-40668013D01*
X66607222Y-40657475D01*
X66637565Y-40649875D01*
X66668507Y-40645285D01*
X66699750Y-40643750D01*
X67412250Y-40643750D01*
X67443493Y-40645285D01*
X67443493Y-40645285D01*
G37*
D23*
X67056000Y-41281250D03*
D22*
G36*
X69443743Y-40645285D02*
G01*
X69474685Y-40649875D01*
X69505028Y-40657475D01*
X69534480Y-40668013D01*
X69562758Y-40681388D01*
X69589588Y-40697469D01*
X69614713Y-40716103D01*
X69637890Y-40737110D01*
X69658897Y-40760287D01*
X69677531Y-40785412D01*
X69693612Y-40812242D01*
X69706987Y-40840520D01*
X69717525Y-40869972D01*
X69725125Y-40900315D01*
X69729715Y-40931257D01*
X69731250Y-40962500D01*
X69731250Y-41600000D01*
X69729715Y-41631243D01*
X69725125Y-41662185D01*
X69717525Y-41692528D01*
X69706987Y-41721980D01*
X69693612Y-41750258D01*
X69677531Y-41777088D01*
X69658897Y-41802213D01*
X69637890Y-41825390D01*
X69614713Y-41846397D01*
X69589588Y-41865031D01*
X69562758Y-41881112D01*
X69534480Y-41894487D01*
X69505028Y-41905025D01*
X69474685Y-41912625D01*
X69443743Y-41917215D01*
X69412500Y-41918750D01*
X68700000Y-41918750D01*
X68668757Y-41917215D01*
X68637815Y-41912625D01*
X68607472Y-41905025D01*
X68578020Y-41894487D01*
X68549742Y-41881112D01*
X68522912Y-41865031D01*
X68497787Y-41846397D01*
X68474610Y-41825390D01*
X68453603Y-41802213D01*
X68434969Y-41777088D01*
X68418888Y-41750258D01*
X68405513Y-41721980D01*
X68394975Y-41692528D01*
X68387375Y-41662185D01*
X68382785Y-41631243D01*
X68381250Y-41600000D01*
X68381250Y-40962500D01*
X68382785Y-40931257D01*
X68387375Y-40900315D01*
X68394975Y-40869972D01*
X68405513Y-40840520D01*
X68418888Y-40812242D01*
X68434969Y-40785412D01*
X68453603Y-40760287D01*
X68474610Y-40737110D01*
X68497787Y-40716103D01*
X68522912Y-40697469D01*
X68549742Y-40681388D01*
X68578020Y-40668013D01*
X68607472Y-40657475D01*
X68637815Y-40649875D01*
X68668757Y-40645285D01*
X68700000Y-40643750D01*
X69412500Y-40643750D01*
X69443743Y-40645285D01*
X69443743Y-40645285D01*
G37*
D23*
X69056250Y-41281250D03*
D22*
G36*
X69443743Y-42220285D02*
G01*
X69474685Y-42224875D01*
X69505028Y-42232475D01*
X69534480Y-42243013D01*
X69562758Y-42256388D01*
X69589588Y-42272469D01*
X69614713Y-42291103D01*
X69637890Y-42312110D01*
X69658897Y-42335287D01*
X69677531Y-42360412D01*
X69693612Y-42387242D01*
X69706987Y-42415520D01*
X69717525Y-42444972D01*
X69725125Y-42475315D01*
X69729715Y-42506257D01*
X69731250Y-42537500D01*
X69731250Y-43175000D01*
X69729715Y-43206243D01*
X69725125Y-43237185D01*
X69717525Y-43267528D01*
X69706987Y-43296980D01*
X69693612Y-43325258D01*
X69677531Y-43352088D01*
X69658897Y-43377213D01*
X69637890Y-43400390D01*
X69614713Y-43421397D01*
X69589588Y-43440031D01*
X69562758Y-43456112D01*
X69534480Y-43469487D01*
X69505028Y-43480025D01*
X69474685Y-43487625D01*
X69443743Y-43492215D01*
X69412500Y-43493750D01*
X68700000Y-43493750D01*
X68668757Y-43492215D01*
X68637815Y-43487625D01*
X68607472Y-43480025D01*
X68578020Y-43469487D01*
X68549742Y-43456112D01*
X68522912Y-43440031D01*
X68497787Y-43421397D01*
X68474610Y-43400390D01*
X68453603Y-43377213D01*
X68434969Y-43352088D01*
X68418888Y-43325258D01*
X68405513Y-43296980D01*
X68394975Y-43267528D01*
X68387375Y-43237185D01*
X68382785Y-43206243D01*
X68381250Y-43175000D01*
X68381250Y-42537500D01*
X68382785Y-42506257D01*
X68387375Y-42475315D01*
X68394975Y-42444972D01*
X68405513Y-42415520D01*
X68418888Y-42387242D01*
X68434969Y-42360412D01*
X68453603Y-42335287D01*
X68474610Y-42312110D01*
X68497787Y-42291103D01*
X68522912Y-42272469D01*
X68549742Y-42256388D01*
X68578020Y-42243013D01*
X68607472Y-42232475D01*
X68637815Y-42224875D01*
X68668757Y-42220285D01*
X68700000Y-42218750D01*
X69412500Y-42218750D01*
X69443743Y-42220285D01*
X69443743Y-42220285D01*
G37*
D23*
X69056250Y-42856250D03*
D22*
G36*
X68078493Y-52170535D02*
G01*
X68109435Y-52175125D01*
X68139778Y-52182725D01*
X68169230Y-52193263D01*
X68197508Y-52206638D01*
X68224338Y-52222719D01*
X68249463Y-52241353D01*
X68272640Y-52262360D01*
X68293647Y-52285537D01*
X68312281Y-52310662D01*
X68328362Y-52337492D01*
X68341737Y-52365770D01*
X68352275Y-52395222D01*
X68359875Y-52425565D01*
X68364465Y-52456507D01*
X68366000Y-52487750D01*
X68366000Y-53125250D01*
X68364465Y-53156493D01*
X68359875Y-53187435D01*
X68352275Y-53217778D01*
X68341737Y-53247230D01*
X68328362Y-53275508D01*
X68312281Y-53302338D01*
X68293647Y-53327463D01*
X68272640Y-53350640D01*
X68249463Y-53371647D01*
X68224338Y-53390281D01*
X68197508Y-53406362D01*
X68169230Y-53419737D01*
X68139778Y-53430275D01*
X68109435Y-53437875D01*
X68078493Y-53442465D01*
X68047250Y-53444000D01*
X67334750Y-53444000D01*
X67303507Y-53442465D01*
X67272565Y-53437875D01*
X67242222Y-53430275D01*
X67212770Y-53419737D01*
X67184492Y-53406362D01*
X67157662Y-53390281D01*
X67132537Y-53371647D01*
X67109360Y-53350640D01*
X67088353Y-53327463D01*
X67069719Y-53302338D01*
X67053638Y-53275508D01*
X67040263Y-53247230D01*
X67029725Y-53217778D01*
X67022125Y-53187435D01*
X67017535Y-53156493D01*
X67016000Y-53125250D01*
X67016000Y-52487750D01*
X67017535Y-52456507D01*
X67022125Y-52425565D01*
X67029725Y-52395222D01*
X67040263Y-52365770D01*
X67053638Y-52337492D01*
X67069719Y-52310662D01*
X67088353Y-52285537D01*
X67109360Y-52262360D01*
X67132537Y-52241353D01*
X67157662Y-52222719D01*
X67184492Y-52206638D01*
X67212770Y-52193263D01*
X67242222Y-52182725D01*
X67272565Y-52175125D01*
X67303507Y-52170535D01*
X67334750Y-52169000D01*
X68047250Y-52169000D01*
X68078493Y-52170535D01*
X68078493Y-52170535D01*
G37*
D23*
X67691000Y-52806500D03*
D22*
G36*
X68078493Y-53745535D02*
G01*
X68109435Y-53750125D01*
X68139778Y-53757725D01*
X68169230Y-53768263D01*
X68197508Y-53781638D01*
X68224338Y-53797719D01*
X68249463Y-53816353D01*
X68272640Y-53837360D01*
X68293647Y-53860537D01*
X68312281Y-53885662D01*
X68328362Y-53912492D01*
X68341737Y-53940770D01*
X68352275Y-53970222D01*
X68359875Y-54000565D01*
X68364465Y-54031507D01*
X68366000Y-54062750D01*
X68366000Y-54700250D01*
X68364465Y-54731493D01*
X68359875Y-54762435D01*
X68352275Y-54792778D01*
X68341737Y-54822230D01*
X68328362Y-54850508D01*
X68312281Y-54877338D01*
X68293647Y-54902463D01*
X68272640Y-54925640D01*
X68249463Y-54946647D01*
X68224338Y-54965281D01*
X68197508Y-54981362D01*
X68169230Y-54994737D01*
X68139778Y-55005275D01*
X68109435Y-55012875D01*
X68078493Y-55017465D01*
X68047250Y-55019000D01*
X67334750Y-55019000D01*
X67303507Y-55017465D01*
X67272565Y-55012875D01*
X67242222Y-55005275D01*
X67212770Y-54994737D01*
X67184492Y-54981362D01*
X67157662Y-54965281D01*
X67132537Y-54946647D01*
X67109360Y-54925640D01*
X67088353Y-54902463D01*
X67069719Y-54877338D01*
X67053638Y-54850508D01*
X67040263Y-54822230D01*
X67029725Y-54792778D01*
X67022125Y-54762435D01*
X67017535Y-54731493D01*
X67016000Y-54700250D01*
X67016000Y-54062750D01*
X67017535Y-54031507D01*
X67022125Y-54000565D01*
X67029725Y-53970222D01*
X67040263Y-53940770D01*
X67053638Y-53912492D01*
X67069719Y-53885662D01*
X67088353Y-53860537D01*
X67109360Y-53837360D01*
X67132537Y-53816353D01*
X67157662Y-53797719D01*
X67184492Y-53781638D01*
X67212770Y-53768263D01*
X67242222Y-53757725D01*
X67272565Y-53750125D01*
X67303507Y-53745535D01*
X67334750Y-53744000D01*
X68047250Y-53744000D01*
X68078493Y-53745535D01*
X68078493Y-53745535D01*
G37*
D23*
X67691000Y-54381500D03*
D22*
G36*
X57864846Y-48139089D02*
G01*
X57896880Y-48143841D01*
X57928294Y-48151710D01*
X57958786Y-48162620D01*
X57988061Y-48176466D01*
X58015838Y-48193115D01*
X58041850Y-48212407D01*
X58065845Y-48234155D01*
X58087593Y-48258150D01*
X58106885Y-48284162D01*
X58123534Y-48311939D01*
X58137380Y-48341214D01*
X58148290Y-48371706D01*
X58156159Y-48403120D01*
X58160911Y-48435154D01*
X58162500Y-48467500D01*
X58162500Y-49957500D01*
X58160911Y-49989846D01*
X58156159Y-50021880D01*
X58148290Y-50053294D01*
X58137380Y-50083786D01*
X58123534Y-50113061D01*
X58106885Y-50140838D01*
X58087593Y-50166850D01*
X58065845Y-50190845D01*
X58041850Y-50212593D01*
X58015838Y-50231885D01*
X57988061Y-50248534D01*
X57958786Y-50262380D01*
X57928294Y-50273290D01*
X57896880Y-50281159D01*
X57864846Y-50285911D01*
X57832500Y-50287500D01*
X56842500Y-50287500D01*
X56810154Y-50285911D01*
X56778120Y-50281159D01*
X56746706Y-50273290D01*
X56716214Y-50262380D01*
X56686939Y-50248534D01*
X56659162Y-50231885D01*
X56633150Y-50212593D01*
X56609155Y-50190845D01*
X56587407Y-50166850D01*
X56568115Y-50140838D01*
X56551466Y-50113061D01*
X56537620Y-50083786D01*
X56526710Y-50053294D01*
X56518841Y-50021880D01*
X56514089Y-49989846D01*
X56512500Y-49957500D01*
X56512500Y-48467500D01*
X56514089Y-48435154D01*
X56518841Y-48403120D01*
X56526710Y-48371706D01*
X56537620Y-48341214D01*
X56551466Y-48311939D01*
X56568115Y-48284162D01*
X56587407Y-48258150D01*
X56609155Y-48234155D01*
X56633150Y-48212407D01*
X56659162Y-48193115D01*
X56686939Y-48176466D01*
X56716214Y-48162620D01*
X56746706Y-48151710D01*
X56778120Y-48143841D01*
X56810154Y-48139089D01*
X56842500Y-48137500D01*
X57832500Y-48137500D01*
X57864846Y-48139089D01*
X57864846Y-48139089D01*
G37*
D24*
X57337500Y-49212500D03*
D22*
G36*
X60664846Y-48139089D02*
G01*
X60696880Y-48143841D01*
X60728294Y-48151710D01*
X60758786Y-48162620D01*
X60788061Y-48176466D01*
X60815838Y-48193115D01*
X60841850Y-48212407D01*
X60865845Y-48234155D01*
X60887593Y-48258150D01*
X60906885Y-48284162D01*
X60923534Y-48311939D01*
X60937380Y-48341214D01*
X60948290Y-48371706D01*
X60956159Y-48403120D01*
X60960911Y-48435154D01*
X60962500Y-48467500D01*
X60962500Y-49957500D01*
X60960911Y-49989846D01*
X60956159Y-50021880D01*
X60948290Y-50053294D01*
X60937380Y-50083786D01*
X60923534Y-50113061D01*
X60906885Y-50140838D01*
X60887593Y-50166850D01*
X60865845Y-50190845D01*
X60841850Y-50212593D01*
X60815838Y-50231885D01*
X60788061Y-50248534D01*
X60758786Y-50262380D01*
X60728294Y-50273290D01*
X60696880Y-50281159D01*
X60664846Y-50285911D01*
X60632500Y-50287500D01*
X59642500Y-50287500D01*
X59610154Y-50285911D01*
X59578120Y-50281159D01*
X59546706Y-50273290D01*
X59516214Y-50262380D01*
X59486939Y-50248534D01*
X59459162Y-50231885D01*
X59433150Y-50212593D01*
X59409155Y-50190845D01*
X59387407Y-50166850D01*
X59368115Y-50140838D01*
X59351466Y-50113061D01*
X59337620Y-50083786D01*
X59326710Y-50053294D01*
X59318841Y-50021880D01*
X59314089Y-49989846D01*
X59312500Y-49957500D01*
X59312500Y-48467500D01*
X59314089Y-48435154D01*
X59318841Y-48403120D01*
X59326710Y-48371706D01*
X59337620Y-48341214D01*
X59351466Y-48311939D01*
X59368115Y-48284162D01*
X59387407Y-48258150D01*
X59409155Y-48234155D01*
X59433150Y-48212407D01*
X59459162Y-48193115D01*
X59486939Y-48176466D01*
X59516214Y-48162620D01*
X59546706Y-48151710D01*
X59578120Y-48143841D01*
X59610154Y-48139089D01*
X59642500Y-48137500D01*
X60632500Y-48137500D01*
X60664846Y-48139089D01*
X60664846Y-48139089D01*
G37*
D24*
X60137500Y-49212500D03*
D22*
G36*
X75051493Y-41395285D02*
G01*
X75082435Y-41399875D01*
X75112778Y-41407475D01*
X75142230Y-41418013D01*
X75170508Y-41431388D01*
X75197338Y-41447469D01*
X75222463Y-41466103D01*
X75245640Y-41487110D01*
X75266647Y-41510287D01*
X75285281Y-41535412D01*
X75301362Y-41562242D01*
X75314737Y-41590520D01*
X75325275Y-41619972D01*
X75332875Y-41650315D01*
X75337465Y-41681257D01*
X75339000Y-41712500D01*
X75339000Y-42425000D01*
X75337465Y-42456243D01*
X75332875Y-42487185D01*
X75325275Y-42517528D01*
X75314737Y-42546980D01*
X75301362Y-42575258D01*
X75285281Y-42602088D01*
X75266647Y-42627213D01*
X75245640Y-42650390D01*
X75222463Y-42671397D01*
X75197338Y-42690031D01*
X75170508Y-42706112D01*
X75142230Y-42719487D01*
X75112778Y-42730025D01*
X75082435Y-42737625D01*
X75051493Y-42742215D01*
X75020250Y-42743750D01*
X74382750Y-42743750D01*
X74351507Y-42742215D01*
X74320565Y-42737625D01*
X74290222Y-42730025D01*
X74260770Y-42719487D01*
X74232492Y-42706112D01*
X74205662Y-42690031D01*
X74180537Y-42671397D01*
X74157360Y-42650390D01*
X74136353Y-42627213D01*
X74117719Y-42602088D01*
X74101638Y-42575258D01*
X74088263Y-42546980D01*
X74077725Y-42517528D01*
X74070125Y-42487185D01*
X74065535Y-42456243D01*
X74064000Y-42425000D01*
X74064000Y-41712500D01*
X74065535Y-41681257D01*
X74070125Y-41650315D01*
X74077725Y-41619972D01*
X74088263Y-41590520D01*
X74101638Y-41562242D01*
X74117719Y-41535412D01*
X74136353Y-41510287D01*
X74157360Y-41487110D01*
X74180537Y-41466103D01*
X74205662Y-41447469D01*
X74232492Y-41431388D01*
X74260770Y-41418013D01*
X74290222Y-41407475D01*
X74320565Y-41399875D01*
X74351507Y-41395285D01*
X74382750Y-41393750D01*
X75020250Y-41393750D01*
X75051493Y-41395285D01*
X75051493Y-41395285D01*
G37*
D23*
X74701500Y-42068750D03*
D22*
G36*
X73476493Y-41395285D02*
G01*
X73507435Y-41399875D01*
X73537778Y-41407475D01*
X73567230Y-41418013D01*
X73595508Y-41431388D01*
X73622338Y-41447469D01*
X73647463Y-41466103D01*
X73670640Y-41487110D01*
X73691647Y-41510287D01*
X73710281Y-41535412D01*
X73726362Y-41562242D01*
X73739737Y-41590520D01*
X73750275Y-41619972D01*
X73757875Y-41650315D01*
X73762465Y-41681257D01*
X73764000Y-41712500D01*
X73764000Y-42425000D01*
X73762465Y-42456243D01*
X73757875Y-42487185D01*
X73750275Y-42517528D01*
X73739737Y-42546980D01*
X73726362Y-42575258D01*
X73710281Y-42602088D01*
X73691647Y-42627213D01*
X73670640Y-42650390D01*
X73647463Y-42671397D01*
X73622338Y-42690031D01*
X73595508Y-42706112D01*
X73567230Y-42719487D01*
X73537778Y-42730025D01*
X73507435Y-42737625D01*
X73476493Y-42742215D01*
X73445250Y-42743750D01*
X72807750Y-42743750D01*
X72776507Y-42742215D01*
X72745565Y-42737625D01*
X72715222Y-42730025D01*
X72685770Y-42719487D01*
X72657492Y-42706112D01*
X72630662Y-42690031D01*
X72605537Y-42671397D01*
X72582360Y-42650390D01*
X72561353Y-42627213D01*
X72542719Y-42602088D01*
X72526638Y-42575258D01*
X72513263Y-42546980D01*
X72502725Y-42517528D01*
X72495125Y-42487185D01*
X72490535Y-42456243D01*
X72489000Y-42425000D01*
X72489000Y-41712500D01*
X72490535Y-41681257D01*
X72495125Y-41650315D01*
X72502725Y-41619972D01*
X72513263Y-41590520D01*
X72526638Y-41562242D01*
X72542719Y-41535412D01*
X72561353Y-41510287D01*
X72582360Y-41487110D01*
X72605537Y-41466103D01*
X72630662Y-41447469D01*
X72657492Y-41431388D01*
X72685770Y-41418013D01*
X72715222Y-41407475D01*
X72745565Y-41399875D01*
X72776507Y-41395285D01*
X72807750Y-41393750D01*
X73445250Y-41393750D01*
X73476493Y-41395285D01*
X73476493Y-41395285D01*
G37*
D23*
X73126500Y-42068750D03*
D22*
G36*
X71507493Y-40613535D02*
G01*
X71538435Y-40618125D01*
X71568778Y-40625725D01*
X71598230Y-40636263D01*
X71626508Y-40649638D01*
X71653338Y-40665719D01*
X71678463Y-40684353D01*
X71701640Y-40705360D01*
X71722647Y-40728537D01*
X71741281Y-40753662D01*
X71757362Y-40780492D01*
X71770737Y-40808770D01*
X71781275Y-40838222D01*
X71788875Y-40868565D01*
X71793465Y-40899507D01*
X71795000Y-40930750D01*
X71795000Y-41568250D01*
X71793465Y-41599493D01*
X71788875Y-41630435D01*
X71781275Y-41660778D01*
X71770737Y-41690230D01*
X71757362Y-41718508D01*
X71741281Y-41745338D01*
X71722647Y-41770463D01*
X71701640Y-41793640D01*
X71678463Y-41814647D01*
X71653338Y-41833281D01*
X71626508Y-41849362D01*
X71598230Y-41862737D01*
X71568778Y-41873275D01*
X71538435Y-41880875D01*
X71507493Y-41885465D01*
X71476250Y-41887000D01*
X70763750Y-41887000D01*
X70732507Y-41885465D01*
X70701565Y-41880875D01*
X70671222Y-41873275D01*
X70641770Y-41862737D01*
X70613492Y-41849362D01*
X70586662Y-41833281D01*
X70561537Y-41814647D01*
X70538360Y-41793640D01*
X70517353Y-41770463D01*
X70498719Y-41745338D01*
X70482638Y-41718508D01*
X70469263Y-41690230D01*
X70458725Y-41660778D01*
X70451125Y-41630435D01*
X70446535Y-41599493D01*
X70445000Y-41568250D01*
X70445000Y-40930750D01*
X70446535Y-40899507D01*
X70451125Y-40868565D01*
X70458725Y-40838222D01*
X70469263Y-40808770D01*
X70482638Y-40780492D01*
X70498719Y-40753662D01*
X70517353Y-40728537D01*
X70538360Y-40705360D01*
X70561537Y-40684353D01*
X70586662Y-40665719D01*
X70613492Y-40649638D01*
X70641770Y-40636263D01*
X70671222Y-40625725D01*
X70701565Y-40618125D01*
X70732507Y-40613535D01*
X70763750Y-40612000D01*
X71476250Y-40612000D01*
X71507493Y-40613535D01*
X71507493Y-40613535D01*
G37*
D23*
X71120000Y-41249500D03*
D22*
G36*
X71507493Y-42188535D02*
G01*
X71538435Y-42193125D01*
X71568778Y-42200725D01*
X71598230Y-42211263D01*
X71626508Y-42224638D01*
X71653338Y-42240719D01*
X71678463Y-42259353D01*
X71701640Y-42280360D01*
X71722647Y-42303537D01*
X71741281Y-42328662D01*
X71757362Y-42355492D01*
X71770737Y-42383770D01*
X71781275Y-42413222D01*
X71788875Y-42443565D01*
X71793465Y-42474507D01*
X71795000Y-42505750D01*
X71795000Y-43143250D01*
X71793465Y-43174493D01*
X71788875Y-43205435D01*
X71781275Y-43235778D01*
X71770737Y-43265230D01*
X71757362Y-43293508D01*
X71741281Y-43320338D01*
X71722647Y-43345463D01*
X71701640Y-43368640D01*
X71678463Y-43389647D01*
X71653338Y-43408281D01*
X71626508Y-43424362D01*
X71598230Y-43437737D01*
X71568778Y-43448275D01*
X71538435Y-43455875D01*
X71507493Y-43460465D01*
X71476250Y-43462000D01*
X70763750Y-43462000D01*
X70732507Y-43460465D01*
X70701565Y-43455875D01*
X70671222Y-43448275D01*
X70641770Y-43437737D01*
X70613492Y-43424362D01*
X70586662Y-43408281D01*
X70561537Y-43389647D01*
X70538360Y-43368640D01*
X70517353Y-43345463D01*
X70498719Y-43320338D01*
X70482638Y-43293508D01*
X70469263Y-43265230D01*
X70458725Y-43235778D01*
X70451125Y-43205435D01*
X70446535Y-43174493D01*
X70445000Y-43143250D01*
X70445000Y-42505750D01*
X70446535Y-42474507D01*
X70451125Y-42443565D01*
X70458725Y-42413222D01*
X70469263Y-42383770D01*
X70482638Y-42355492D01*
X70498719Y-42328662D01*
X70517353Y-42303537D01*
X70538360Y-42280360D01*
X70561537Y-42259353D01*
X70586662Y-42240719D01*
X70613492Y-42224638D01*
X70641770Y-42211263D01*
X70671222Y-42200725D01*
X70701565Y-42193125D01*
X70732507Y-42188535D01*
X70763750Y-42187000D01*
X71476250Y-42187000D01*
X71507493Y-42188535D01*
X71507493Y-42188535D01*
G37*
D23*
X71120000Y-42824500D03*
D22*
G36*
X76067493Y-49618535D02*
G01*
X76098435Y-49623125D01*
X76128778Y-49630725D01*
X76158230Y-49641263D01*
X76186508Y-49654638D01*
X76213338Y-49670719D01*
X76238463Y-49689353D01*
X76261640Y-49710360D01*
X76282647Y-49733537D01*
X76301281Y-49758662D01*
X76317362Y-49785492D01*
X76330737Y-49813770D01*
X76341275Y-49843222D01*
X76348875Y-49873565D01*
X76353465Y-49904507D01*
X76355000Y-49935750D01*
X76355000Y-50648250D01*
X76353465Y-50679493D01*
X76348875Y-50710435D01*
X76341275Y-50740778D01*
X76330737Y-50770230D01*
X76317362Y-50798508D01*
X76301281Y-50825338D01*
X76282647Y-50850463D01*
X76261640Y-50873640D01*
X76238463Y-50894647D01*
X76213338Y-50913281D01*
X76186508Y-50929362D01*
X76158230Y-50942737D01*
X76128778Y-50953275D01*
X76098435Y-50960875D01*
X76067493Y-50965465D01*
X76036250Y-50967000D01*
X75398750Y-50967000D01*
X75367507Y-50965465D01*
X75336565Y-50960875D01*
X75306222Y-50953275D01*
X75276770Y-50942737D01*
X75248492Y-50929362D01*
X75221662Y-50913281D01*
X75196537Y-50894647D01*
X75173360Y-50873640D01*
X75152353Y-50850463D01*
X75133719Y-50825338D01*
X75117638Y-50798508D01*
X75104263Y-50770230D01*
X75093725Y-50740778D01*
X75086125Y-50710435D01*
X75081535Y-50679493D01*
X75080000Y-50648250D01*
X75080000Y-49935750D01*
X75081535Y-49904507D01*
X75086125Y-49873565D01*
X75093725Y-49843222D01*
X75104263Y-49813770D01*
X75117638Y-49785492D01*
X75133719Y-49758662D01*
X75152353Y-49733537D01*
X75173360Y-49710360D01*
X75196537Y-49689353D01*
X75221662Y-49670719D01*
X75248492Y-49654638D01*
X75276770Y-49641263D01*
X75306222Y-49630725D01*
X75336565Y-49623125D01*
X75367507Y-49618535D01*
X75398750Y-49617000D01*
X76036250Y-49617000D01*
X76067493Y-49618535D01*
X76067493Y-49618535D01*
G37*
D23*
X75717500Y-50292000D03*
D22*
G36*
X74492493Y-49618535D02*
G01*
X74523435Y-49623125D01*
X74553778Y-49630725D01*
X74583230Y-49641263D01*
X74611508Y-49654638D01*
X74638338Y-49670719D01*
X74663463Y-49689353D01*
X74686640Y-49710360D01*
X74707647Y-49733537D01*
X74726281Y-49758662D01*
X74742362Y-49785492D01*
X74755737Y-49813770D01*
X74766275Y-49843222D01*
X74773875Y-49873565D01*
X74778465Y-49904507D01*
X74780000Y-49935750D01*
X74780000Y-50648250D01*
X74778465Y-50679493D01*
X74773875Y-50710435D01*
X74766275Y-50740778D01*
X74755737Y-50770230D01*
X74742362Y-50798508D01*
X74726281Y-50825338D01*
X74707647Y-50850463D01*
X74686640Y-50873640D01*
X74663463Y-50894647D01*
X74638338Y-50913281D01*
X74611508Y-50929362D01*
X74583230Y-50942737D01*
X74553778Y-50953275D01*
X74523435Y-50960875D01*
X74492493Y-50965465D01*
X74461250Y-50967000D01*
X73823750Y-50967000D01*
X73792507Y-50965465D01*
X73761565Y-50960875D01*
X73731222Y-50953275D01*
X73701770Y-50942737D01*
X73673492Y-50929362D01*
X73646662Y-50913281D01*
X73621537Y-50894647D01*
X73598360Y-50873640D01*
X73577353Y-50850463D01*
X73558719Y-50825338D01*
X73542638Y-50798508D01*
X73529263Y-50770230D01*
X73518725Y-50740778D01*
X73511125Y-50710435D01*
X73506535Y-50679493D01*
X73505000Y-50648250D01*
X73505000Y-49935750D01*
X73506535Y-49904507D01*
X73511125Y-49873565D01*
X73518725Y-49843222D01*
X73529263Y-49813770D01*
X73542638Y-49785492D01*
X73558719Y-49758662D01*
X73577353Y-49733537D01*
X73598360Y-49710360D01*
X73621537Y-49689353D01*
X73646662Y-49670719D01*
X73673492Y-49654638D01*
X73701770Y-49641263D01*
X73731222Y-49630725D01*
X73761565Y-49623125D01*
X73792507Y-49618535D01*
X73823750Y-49617000D01*
X74461250Y-49617000D01*
X74492493Y-49618535D01*
X74492493Y-49618535D01*
G37*
D23*
X74142500Y-50292000D03*
D22*
G36*
X64681243Y-42232785D02*
G01*
X64712185Y-42237375D01*
X64742528Y-42244975D01*
X64771980Y-42255513D01*
X64800258Y-42268888D01*
X64827088Y-42284969D01*
X64852213Y-42303603D01*
X64875390Y-42324610D01*
X64896397Y-42347787D01*
X64915031Y-42372912D01*
X64931112Y-42399742D01*
X64944487Y-42428020D01*
X64955025Y-42457472D01*
X64962625Y-42487815D01*
X64967215Y-42518757D01*
X64968750Y-42550000D01*
X64968750Y-43187500D01*
X64967215Y-43218743D01*
X64962625Y-43249685D01*
X64955025Y-43280028D01*
X64944487Y-43309480D01*
X64931112Y-43337758D01*
X64915031Y-43364588D01*
X64896397Y-43389713D01*
X64875390Y-43412890D01*
X64852213Y-43433897D01*
X64827088Y-43452531D01*
X64800258Y-43468612D01*
X64771980Y-43481987D01*
X64742528Y-43492525D01*
X64712185Y-43500125D01*
X64681243Y-43504715D01*
X64650000Y-43506250D01*
X63937500Y-43506250D01*
X63906257Y-43504715D01*
X63875315Y-43500125D01*
X63844972Y-43492525D01*
X63815520Y-43481987D01*
X63787242Y-43468612D01*
X63760412Y-43452531D01*
X63735287Y-43433897D01*
X63712110Y-43412890D01*
X63691103Y-43389713D01*
X63672469Y-43364588D01*
X63656388Y-43337758D01*
X63643013Y-43309480D01*
X63632475Y-43280028D01*
X63624875Y-43249685D01*
X63620285Y-43218743D01*
X63618750Y-43187500D01*
X63618750Y-42550000D01*
X63620285Y-42518757D01*
X63624875Y-42487815D01*
X63632475Y-42457472D01*
X63643013Y-42428020D01*
X63656388Y-42399742D01*
X63672469Y-42372912D01*
X63691103Y-42347787D01*
X63712110Y-42324610D01*
X63735287Y-42303603D01*
X63760412Y-42284969D01*
X63787242Y-42268888D01*
X63815520Y-42255513D01*
X63844972Y-42244975D01*
X63875315Y-42237375D01*
X63906257Y-42232785D01*
X63937500Y-42231250D01*
X64650000Y-42231250D01*
X64681243Y-42232785D01*
X64681243Y-42232785D01*
G37*
D23*
X64293750Y-42868750D03*
D22*
G36*
X64681243Y-43807785D02*
G01*
X64712185Y-43812375D01*
X64742528Y-43819975D01*
X64771980Y-43830513D01*
X64800258Y-43843888D01*
X64827088Y-43859969D01*
X64852213Y-43878603D01*
X64875390Y-43899610D01*
X64896397Y-43922787D01*
X64915031Y-43947912D01*
X64931112Y-43974742D01*
X64944487Y-44003020D01*
X64955025Y-44032472D01*
X64962625Y-44062815D01*
X64967215Y-44093757D01*
X64968750Y-44125000D01*
X64968750Y-44762500D01*
X64967215Y-44793743D01*
X64962625Y-44824685D01*
X64955025Y-44855028D01*
X64944487Y-44884480D01*
X64931112Y-44912758D01*
X64915031Y-44939588D01*
X64896397Y-44964713D01*
X64875390Y-44987890D01*
X64852213Y-45008897D01*
X64827088Y-45027531D01*
X64800258Y-45043612D01*
X64771980Y-45056987D01*
X64742528Y-45067525D01*
X64712185Y-45075125D01*
X64681243Y-45079715D01*
X64650000Y-45081250D01*
X63937500Y-45081250D01*
X63906257Y-45079715D01*
X63875315Y-45075125D01*
X63844972Y-45067525D01*
X63815520Y-45056987D01*
X63787242Y-45043612D01*
X63760412Y-45027531D01*
X63735287Y-45008897D01*
X63712110Y-44987890D01*
X63691103Y-44964713D01*
X63672469Y-44939588D01*
X63656388Y-44912758D01*
X63643013Y-44884480D01*
X63632475Y-44855028D01*
X63624875Y-44824685D01*
X63620285Y-44793743D01*
X63618750Y-44762500D01*
X63618750Y-44125000D01*
X63620285Y-44093757D01*
X63624875Y-44062815D01*
X63632475Y-44032472D01*
X63643013Y-44003020D01*
X63656388Y-43974742D01*
X63672469Y-43947912D01*
X63691103Y-43922787D01*
X63712110Y-43899610D01*
X63735287Y-43878603D01*
X63760412Y-43859969D01*
X63787242Y-43843888D01*
X63815520Y-43830513D01*
X63844972Y-43819975D01*
X63875315Y-43812375D01*
X63906257Y-43807785D01*
X63937500Y-43806250D01*
X64650000Y-43806250D01*
X64681243Y-43807785D01*
X64681243Y-43807785D01*
G37*
D23*
X64293750Y-44443750D03*
D22*
G36*
X80988743Y-46538785D02*
G01*
X81019685Y-46543375D01*
X81050028Y-46550975D01*
X81079480Y-46561513D01*
X81107758Y-46574888D01*
X81134588Y-46590969D01*
X81159713Y-46609603D01*
X81182890Y-46630610D01*
X81203897Y-46653787D01*
X81222531Y-46678912D01*
X81238612Y-46705742D01*
X81251987Y-46734020D01*
X81262525Y-46763472D01*
X81270125Y-46793815D01*
X81274715Y-46824757D01*
X81276250Y-46856000D01*
X81276250Y-47568500D01*
X81274715Y-47599743D01*
X81270125Y-47630685D01*
X81262525Y-47661028D01*
X81251987Y-47690480D01*
X81238612Y-47718758D01*
X81222531Y-47745588D01*
X81203897Y-47770713D01*
X81182890Y-47793890D01*
X81159713Y-47814897D01*
X81134588Y-47833531D01*
X81107758Y-47849612D01*
X81079480Y-47862987D01*
X81050028Y-47873525D01*
X81019685Y-47881125D01*
X80988743Y-47885715D01*
X80957500Y-47887250D01*
X80320000Y-47887250D01*
X80288757Y-47885715D01*
X80257815Y-47881125D01*
X80227472Y-47873525D01*
X80198020Y-47862987D01*
X80169742Y-47849612D01*
X80142912Y-47833531D01*
X80117787Y-47814897D01*
X80094610Y-47793890D01*
X80073603Y-47770713D01*
X80054969Y-47745588D01*
X80038888Y-47718758D01*
X80025513Y-47690480D01*
X80014975Y-47661028D01*
X80007375Y-47630685D01*
X80002785Y-47599743D01*
X80001250Y-47568500D01*
X80001250Y-46856000D01*
X80002785Y-46824757D01*
X80007375Y-46793815D01*
X80014975Y-46763472D01*
X80025513Y-46734020D01*
X80038888Y-46705742D01*
X80054969Y-46678912D01*
X80073603Y-46653787D01*
X80094610Y-46630610D01*
X80117787Y-46609603D01*
X80142912Y-46590969D01*
X80169742Y-46574888D01*
X80198020Y-46561513D01*
X80227472Y-46550975D01*
X80257815Y-46543375D01*
X80288757Y-46538785D01*
X80320000Y-46537250D01*
X80957500Y-46537250D01*
X80988743Y-46538785D01*
X80988743Y-46538785D01*
G37*
D23*
X80638750Y-47212250D03*
D22*
G36*
X79413743Y-46538785D02*
G01*
X79444685Y-46543375D01*
X79475028Y-46550975D01*
X79504480Y-46561513D01*
X79532758Y-46574888D01*
X79559588Y-46590969D01*
X79584713Y-46609603D01*
X79607890Y-46630610D01*
X79628897Y-46653787D01*
X79647531Y-46678912D01*
X79663612Y-46705742D01*
X79676987Y-46734020D01*
X79687525Y-46763472D01*
X79695125Y-46793815D01*
X79699715Y-46824757D01*
X79701250Y-46856000D01*
X79701250Y-47568500D01*
X79699715Y-47599743D01*
X79695125Y-47630685D01*
X79687525Y-47661028D01*
X79676987Y-47690480D01*
X79663612Y-47718758D01*
X79647531Y-47745588D01*
X79628897Y-47770713D01*
X79607890Y-47793890D01*
X79584713Y-47814897D01*
X79559588Y-47833531D01*
X79532758Y-47849612D01*
X79504480Y-47862987D01*
X79475028Y-47873525D01*
X79444685Y-47881125D01*
X79413743Y-47885715D01*
X79382500Y-47887250D01*
X78745000Y-47887250D01*
X78713757Y-47885715D01*
X78682815Y-47881125D01*
X78652472Y-47873525D01*
X78623020Y-47862987D01*
X78594742Y-47849612D01*
X78567912Y-47833531D01*
X78542787Y-47814897D01*
X78519610Y-47793890D01*
X78498603Y-47770713D01*
X78479969Y-47745588D01*
X78463888Y-47718758D01*
X78450513Y-47690480D01*
X78439975Y-47661028D01*
X78432375Y-47630685D01*
X78427785Y-47599743D01*
X78426250Y-47568500D01*
X78426250Y-46856000D01*
X78427785Y-46824757D01*
X78432375Y-46793815D01*
X78439975Y-46763472D01*
X78450513Y-46734020D01*
X78463888Y-46705742D01*
X78479969Y-46678912D01*
X78498603Y-46653787D01*
X78519610Y-46630610D01*
X78542787Y-46609603D01*
X78567912Y-46590969D01*
X78594742Y-46574888D01*
X78623020Y-46561513D01*
X78652472Y-46550975D01*
X78682815Y-46543375D01*
X78713757Y-46538785D01*
X78745000Y-46537250D01*
X79382500Y-46537250D01*
X79413743Y-46538785D01*
X79413743Y-46538785D01*
G37*
D23*
X79063750Y-47212250D03*
D22*
G36*
X80988743Y-44379785D02*
G01*
X81019685Y-44384375D01*
X81050028Y-44391975D01*
X81079480Y-44402513D01*
X81107758Y-44415888D01*
X81134588Y-44431969D01*
X81159713Y-44450603D01*
X81182890Y-44471610D01*
X81203897Y-44494787D01*
X81222531Y-44519912D01*
X81238612Y-44546742D01*
X81251987Y-44575020D01*
X81262525Y-44604472D01*
X81270125Y-44634815D01*
X81274715Y-44665757D01*
X81276250Y-44697000D01*
X81276250Y-45409500D01*
X81274715Y-45440743D01*
X81270125Y-45471685D01*
X81262525Y-45502028D01*
X81251987Y-45531480D01*
X81238612Y-45559758D01*
X81222531Y-45586588D01*
X81203897Y-45611713D01*
X81182890Y-45634890D01*
X81159713Y-45655897D01*
X81134588Y-45674531D01*
X81107758Y-45690612D01*
X81079480Y-45703987D01*
X81050028Y-45714525D01*
X81019685Y-45722125D01*
X80988743Y-45726715D01*
X80957500Y-45728250D01*
X80320000Y-45728250D01*
X80288757Y-45726715D01*
X80257815Y-45722125D01*
X80227472Y-45714525D01*
X80198020Y-45703987D01*
X80169742Y-45690612D01*
X80142912Y-45674531D01*
X80117787Y-45655897D01*
X80094610Y-45634890D01*
X80073603Y-45611713D01*
X80054969Y-45586588D01*
X80038888Y-45559758D01*
X80025513Y-45531480D01*
X80014975Y-45502028D01*
X80007375Y-45471685D01*
X80002785Y-45440743D01*
X80001250Y-45409500D01*
X80001250Y-44697000D01*
X80002785Y-44665757D01*
X80007375Y-44634815D01*
X80014975Y-44604472D01*
X80025513Y-44575020D01*
X80038888Y-44546742D01*
X80054969Y-44519912D01*
X80073603Y-44494787D01*
X80094610Y-44471610D01*
X80117787Y-44450603D01*
X80142912Y-44431969D01*
X80169742Y-44415888D01*
X80198020Y-44402513D01*
X80227472Y-44391975D01*
X80257815Y-44384375D01*
X80288757Y-44379785D01*
X80320000Y-44378250D01*
X80957500Y-44378250D01*
X80988743Y-44379785D01*
X80988743Y-44379785D01*
G37*
D23*
X80638750Y-45053250D03*
D22*
G36*
X79413743Y-44379785D02*
G01*
X79444685Y-44384375D01*
X79475028Y-44391975D01*
X79504480Y-44402513D01*
X79532758Y-44415888D01*
X79559588Y-44431969D01*
X79584713Y-44450603D01*
X79607890Y-44471610D01*
X79628897Y-44494787D01*
X79647531Y-44519912D01*
X79663612Y-44546742D01*
X79676987Y-44575020D01*
X79687525Y-44604472D01*
X79695125Y-44634815D01*
X79699715Y-44665757D01*
X79701250Y-44697000D01*
X79701250Y-45409500D01*
X79699715Y-45440743D01*
X79695125Y-45471685D01*
X79687525Y-45502028D01*
X79676987Y-45531480D01*
X79663612Y-45559758D01*
X79647531Y-45586588D01*
X79628897Y-45611713D01*
X79607890Y-45634890D01*
X79584713Y-45655897D01*
X79559588Y-45674531D01*
X79532758Y-45690612D01*
X79504480Y-45703987D01*
X79475028Y-45714525D01*
X79444685Y-45722125D01*
X79413743Y-45726715D01*
X79382500Y-45728250D01*
X78745000Y-45728250D01*
X78713757Y-45726715D01*
X78682815Y-45722125D01*
X78652472Y-45714525D01*
X78623020Y-45703987D01*
X78594742Y-45690612D01*
X78567912Y-45674531D01*
X78542787Y-45655897D01*
X78519610Y-45634890D01*
X78498603Y-45611713D01*
X78479969Y-45586588D01*
X78463888Y-45559758D01*
X78450513Y-45531480D01*
X78439975Y-45502028D01*
X78432375Y-45471685D01*
X78427785Y-45440743D01*
X78426250Y-45409500D01*
X78426250Y-44697000D01*
X78427785Y-44665757D01*
X78432375Y-44634815D01*
X78439975Y-44604472D01*
X78450513Y-44575020D01*
X78463888Y-44546742D01*
X78479969Y-44519912D01*
X78498603Y-44494787D01*
X78519610Y-44471610D01*
X78542787Y-44450603D01*
X78567912Y-44431969D01*
X78594742Y-44415888D01*
X78623020Y-44402513D01*
X78652472Y-44391975D01*
X78682815Y-44384375D01*
X78713757Y-44379785D01*
X78745000Y-44378250D01*
X79382500Y-44378250D01*
X79413743Y-44379785D01*
X79413743Y-44379785D01*
G37*
D23*
X79063750Y-45053250D03*
D12*
X83629500Y-53657500D03*
X70702500Y-56197500D03*
D13*
X82867500Y-58737500D03*
X72707500Y-58737500D03*
D14*
X73977500Y-56197500D03*
D15*
X77787500Y-58737500D03*
D14*
X80327500Y-53657500D03*
D12*
X64579500Y-53657500D03*
X51652500Y-56197500D03*
D13*
X63817500Y-58737500D03*
X53657500Y-58737500D03*
D14*
X54927500Y-56197500D03*
D15*
X58737500Y-58737500D03*
D14*
X61277500Y-53657500D03*
D12*
X83629500Y-34607500D03*
X70702500Y-37147500D03*
D13*
X82867500Y-39687500D03*
X72707500Y-39687500D03*
D14*
X73977500Y-37147500D03*
D15*
X77787500Y-39687500D03*
D14*
X80327500Y-34607500D03*
D25*
X63942500Y-26600000D03*
X72582500Y-26600000D03*
D26*
X63942500Y-30780000D03*
X72582500Y-30780000D03*
D27*
X71152500Y-30250000D03*
X65372500Y-30250000D03*
M02*
