M48
;DRILL file {KiCad (5.0.0)} date 01/27/19 02:24:26
;FORMAT={-:-/ absolute / inch / decimal}
FMAT,2
INCH,TZ
T1C0.0157
T2C0.0236
T3C0.0409
T4C0.0579
%
G90
G05
M72
T1
X2.075Y-1.925
X2.085Y-2.375
X2.205Y-1.875
X2.205Y-2.065
X2.235Y-2.39
X2.315Y-2.065
X2.315Y-2.205
X2.34Y-1.995
X2.42Y-1.64
X2.43Y-2.23
X2.44Y-1.885
X2.445Y-2.435
X2.455Y-2.005
X2.465Y-1.485
X2.5Y-1.8
X2.5Y-1.9102
X2.54Y-1.81
X2.54Y-2.06
X2.57Y-1.485
X2.605Y-1.46
X2.625Y-1.77
X2.635Y-2.06
X2.64Y-1.425
X2.665Y-1.78
X2.715Y-1.77
X2.745Y-1.425
X2.75Y-1.77
X2.765Y-1.46
X2.78Y-1.555
X2.81Y-1.92
X2.81Y-1.96
X2.82Y-2.56
X2.83Y-2.06
X2.855Y-2.455
X2.855Y-2.56
X2.86Y-1.885
X2.89Y-2.455
X2.92Y-2.48
X2.935Y-1.545
X2.94Y-2.295
X2.995Y-2.01
X3.07Y-1.45
X3.14Y-2.42
X3.22Y-1.47
X3.25Y-2.385
X3.255Y-1.47
X3.26Y-1.635
X3.315Y-1.36
X3.32Y-1.685
T3
X3.0125Y-1.7625
X3.1125Y-1.7625
X2.2625Y-2.5125
X2.3625Y-2.5125
X2.2625Y-1.7625
X2.3625Y-1.7625
X3.0125Y-2.5125
X3.1125Y-2.5125
T4
X2.9125Y-1.4625
X2.9641Y-1.405
X3.1609Y-1.3853
X3.1625Y-1.3625
X2.1625Y-2.2125
X2.2141Y-2.155
X2.4109Y-2.1353
X2.4125Y-2.1125
X2.1625Y-1.4625
X2.2141Y-1.405
X2.4109Y-1.3853
X2.4125Y-1.3625
X2.9125Y-2.2125
X2.9641Y-2.155
X3.1609Y-2.1353
X3.1625Y-2.1125
T2
X2.5174Y-1.1531G85X2.5174Y-1.1767
G05
X2.5174Y-1.3078G85X2.5174Y-1.3511
G05
X2.8576Y-1.1531G85X2.8576Y-1.1767
G05
X2.8576Y-1.3078G85X2.8576Y-1.3511
G05
T0
M30
