%TF.GenerationSoftware,KiCad,Pcbnew,(5.1.2)-1*%
%TF.CreationDate,2019-05-30T19:23:31-07:00*%
%TF.ProjectId,Voyager4,566f7961-6765-4723-942e-6b696361645f,rev?*%
%TF.SameCoordinates,Original*%
%TF.FileFunction,Copper,L2,Bot*%
%TF.FilePolarity,Positive*%
%FSLAX46Y46*%
G04 Gerber Fmt 4.6, Leading zero omitted, Abs format (unit mm)*
G04 Created by KiCad (PCBNEW (5.1.2)-1) date 2019-05-30 19:23:31*
%MOMM*%
%LPD*%
G04 APERTURE LIST*
%ADD10R,0.250000X0.700000*%
%ADD11R,0.700000X0.250000*%
%ADD12R,1.725000X1.725000*%
%ADD13C,2.250000*%
%ADD14C,2.250000*%
%ADD15C,1.905000*%
%ADD16R,1.905000X1.905000*%
%ADD17R,0.750000X0.800000*%
%ADD18R,0.800000X0.750000*%
%ADD19R,1.600000X1.000000*%
%ADD20R,2.030000X1.140000*%
%ADD21R,0.900000X0.800000*%
%ADD22R,1.300000X0.700000*%
%ADD23R,0.700000X0.600000*%
%ADD24R,0.700000X1.000000*%
%ADD25O,1.000000X1.600000*%
%ADD26O,1.000000X2.100000*%
%ADD27R,0.300000X1.450000*%
%ADD28R,0.600000X1.450000*%
%ADD29R,1.400000X1.200000*%
%ADD30R,1.500000X1.500000*%
%ADD31C,0.600000*%
%ADD32C,0.254000*%
%ADD33C,0.381000*%
G04 APERTURE END LIST*
D10*
X69187000Y-51168000D03*
X68687000Y-51168000D03*
X68187000Y-51168000D03*
X67687000Y-51168000D03*
X67187000Y-51168000D03*
X66687000Y-51168000D03*
X66187000Y-51168000D03*
X65687000Y-51168000D03*
D11*
X65037000Y-50518000D03*
X65037000Y-50018000D03*
X65037000Y-49518000D03*
X65037000Y-49018000D03*
X65037000Y-48518000D03*
X65037000Y-48018000D03*
X65037000Y-47518000D03*
X65037000Y-47018000D03*
D10*
X65687000Y-46368000D03*
X66187000Y-46368000D03*
X66687000Y-46368000D03*
X67187000Y-46368000D03*
X67687000Y-46368000D03*
X68187000Y-46368000D03*
X68687000Y-46368000D03*
X69187000Y-46368000D03*
D11*
X69837000Y-47018000D03*
X69837000Y-47518000D03*
X69837000Y-48018000D03*
X69837000Y-48518000D03*
X69837000Y-49018000D03*
X69837000Y-49518000D03*
X69837000Y-50018000D03*
X69837000Y-50518000D03*
D12*
X66574500Y-47905500D03*
X68299500Y-47905500D03*
X66574500Y-49630500D03*
X68299500Y-49630500D03*
D13*
X61257500Y-53947500D03*
D14*
X61237500Y-54237500D02*
X61277500Y-53657500D01*
D13*
X61277500Y-53657500D03*
X55582501Y-55467500D03*
D14*
X54927500Y-56197500D02*
X56237502Y-54737500D01*
D13*
X56237500Y-54737500D03*
D15*
X57467500Y-63817500D03*
D16*
X60007500Y-63817500D03*
D17*
X69850000Y-59194000D03*
X69850000Y-60694000D03*
X67691000Y-60694000D03*
X67691000Y-59194000D03*
X72517000Y-44843000D03*
X72517000Y-46343000D03*
D18*
X72656000Y-48895000D03*
X74156000Y-48895000D03*
D17*
X64516000Y-55106000D03*
X64516000Y-53606000D03*
D18*
X72656000Y-50800000D03*
X74156000Y-50800000D03*
D17*
X60579000Y-49899000D03*
X60579000Y-48399000D03*
X76200000Y-48399000D03*
X76200000Y-49899000D03*
D19*
X52745000Y-50812500D03*
X52745000Y-47612500D03*
X57745000Y-50812500D03*
X57745000Y-47612500D03*
X83780000Y-47612500D03*
X83780000Y-50812500D03*
X78780000Y-47612500D03*
X78780000Y-50812500D03*
D20*
X53181250Y-41662500D03*
X53181250Y-44062500D03*
D13*
X61257500Y-34897500D03*
D14*
X61237500Y-35187500D02*
X61277500Y-34607500D01*
D13*
X61277500Y-34607500D03*
X55582501Y-36417500D03*
D14*
X54927500Y-37147500D02*
X56237502Y-35687500D01*
D13*
X56237500Y-35687500D03*
D15*
X57467500Y-44767500D03*
D16*
X60007500Y-44767500D03*
X79057500Y-44767500D03*
D15*
X76517500Y-44767500D03*
D13*
X75287500Y-35687500D03*
X74632501Y-36417500D03*
D14*
X73977500Y-37147500D02*
X75287502Y-35687500D01*
D13*
X80327500Y-34607500D03*
X80307500Y-34897500D03*
D14*
X80287500Y-35187500D02*
X80327500Y-34607500D01*
D13*
X80307500Y-53947500D03*
D14*
X80287500Y-54237500D02*
X80327500Y-53657500D01*
D13*
X80327500Y-53657500D03*
X74632501Y-55467500D03*
D14*
X73977500Y-56197500D02*
X75287502Y-54737500D01*
D13*
X75287500Y-54737500D03*
D15*
X76517500Y-63817500D03*
D16*
X79057500Y-63817500D03*
D21*
X84343750Y-43942000D03*
X82343750Y-42992000D03*
X82343750Y-44892000D03*
D22*
X74612500Y-61275000D03*
X74612500Y-59375000D03*
X66675000Y-41912500D03*
X66675000Y-43812500D03*
X69850000Y-43812500D03*
X69850000Y-41912500D03*
X74612500Y-42225000D03*
X74612500Y-40325000D03*
X63500000Y-42706250D03*
X63500000Y-44606250D03*
X61912500Y-38737500D03*
X61912500Y-40637500D03*
X61912500Y-59687500D03*
X61912500Y-57787500D03*
X84137500Y-35562500D03*
X84137500Y-37462500D03*
X53975000Y-63656250D03*
X53975000Y-61756250D03*
X82550000Y-63656250D03*
X82550000Y-61756250D03*
X80962500Y-38737500D03*
X80962500Y-40637500D03*
D23*
X67262500Y-39843750D03*
X69262500Y-39843750D03*
X67262500Y-37943750D03*
D24*
X69262500Y-38143750D03*
D25*
X72582500Y-29587500D03*
X63942500Y-29587500D03*
D26*
X72582500Y-33767500D03*
X63942500Y-33767500D03*
D27*
X68012500Y-34682500D03*
X68512500Y-34682500D03*
X69012500Y-34682500D03*
X67512500Y-34682500D03*
X69512500Y-34682500D03*
X67012500Y-34682500D03*
X70012500Y-34682500D03*
X66512500Y-34682500D03*
D28*
X65812500Y-34682500D03*
X70712500Y-34682500D03*
X65037500Y-34682500D03*
X71487500Y-34682500D03*
D29*
X69870500Y-54712500D03*
X67670500Y-54712500D03*
X67670500Y-56412500D03*
X69870500Y-56412500D03*
D30*
X69112500Y-65087500D03*
X67412500Y-65087500D03*
D31*
X82804000Y-41529000D03*
X81788000Y-37338000D03*
X56007000Y-47625000D03*
X61468000Y-41656000D03*
X56007000Y-52451000D03*
X72644000Y-47879000D03*
X64516000Y-52324000D03*
X58801000Y-52451000D03*
X76073000Y-51054000D03*
X73406000Y-62357000D03*
X61976000Y-47879000D03*
X62103000Y-61849000D03*
X62484000Y-46101000D03*
X70231000Y-37084000D03*
X66167000Y-37084000D03*
X64516000Y-45974000D03*
X65278000Y-37719000D03*
X70612000Y-39497000D03*
X61722000Y-56642000D03*
X58801000Y-56007000D03*
X66929000Y-52324000D03*
X71882000Y-52324000D03*
X68961000Y-44958000D03*
X74676000Y-58293000D03*
X72517000Y-62357000D03*
X72517000Y-65024000D03*
X63500000Y-45720000D03*
X63500000Y-48518000D03*
X59436000Y-50673000D03*
X62357000Y-50927000D03*
X66675000Y-44958000D03*
X71374000Y-49784000D03*
X69850000Y-44958000D03*
X71374000Y-48768000D03*
X74549000Y-39243000D03*
X69723000Y-36195000D03*
X67056000Y-36195000D03*
X62611000Y-37719000D03*
X71628000Y-65024000D03*
X56769000Y-60706000D03*
X52959000Y-60325000D03*
X52705000Y-48895000D03*
X82677000Y-37338000D03*
X84328000Y-42799000D03*
X84201000Y-34544000D03*
X74168000Y-62992000D03*
X82550000Y-60579000D03*
X79756000Y-61468000D03*
X67691000Y-45212000D03*
X77978000Y-36830000D03*
D32*
X69187000Y-51168000D02*
X69187000Y-51661000D01*
X69187000Y-51661000D02*
X71120000Y-53594000D01*
X71120000Y-53594000D02*
X71120000Y-55626000D01*
X70333500Y-56412500D02*
X69870500Y-56412500D01*
X71120000Y-55626000D02*
X70333500Y-56412500D01*
X69870500Y-59173500D02*
X69850000Y-59194000D01*
X69870500Y-56412500D02*
X69870500Y-59173500D01*
X69870500Y-54712500D02*
X69620500Y-54712500D01*
X67920500Y-56412500D02*
X67670500Y-56412500D01*
X69620500Y-54712500D02*
X67920500Y-56412500D01*
X67670500Y-56412500D02*
X67670500Y-57383500D01*
X67670500Y-57383500D02*
X68707000Y-58420000D01*
X68707000Y-58420000D02*
X68707000Y-60706000D01*
X67703000Y-60706000D02*
X67691000Y-60694000D01*
X68707000Y-60706000D02*
X67703000Y-60706000D01*
X69838000Y-60706000D02*
X69850000Y-60694000D01*
X68707000Y-60706000D02*
X69838000Y-60706000D01*
X65520000Y-55106000D02*
X65786000Y-55372000D01*
X64516000Y-55106000D02*
X65520000Y-55106000D01*
X65786000Y-55372000D02*
X65786000Y-57785000D01*
X65786000Y-57785000D02*
X66421000Y-58420000D01*
X66917000Y-60694000D02*
X67691000Y-60694000D01*
X66421000Y-58420000D02*
X66421000Y-60198000D01*
X66421000Y-60198000D02*
X66917000Y-60694000D01*
X65786000Y-54356000D02*
X65786000Y-55372000D01*
X66675000Y-53467000D02*
X65786000Y-54356000D01*
X67564000Y-53467000D02*
X66675000Y-53467000D01*
X68187000Y-52844000D02*
X67564000Y-53467000D01*
X68187000Y-51168000D02*
X68187000Y-52844000D01*
X69837000Y-48518000D02*
X68957000Y-48518000D01*
X68187000Y-49288000D02*
X68187000Y-51168000D01*
X68957000Y-48518000D02*
X68187000Y-49288000D01*
D33*
X71487500Y-34682500D02*
X71487500Y-36970500D01*
X70314250Y-38143750D02*
X69262500Y-38143750D01*
X71487500Y-36970500D02*
X70314250Y-38143750D01*
X72582500Y-29587500D02*
X72582500Y-33767500D01*
X72582500Y-29587500D02*
X63942500Y-29587500D01*
X63942500Y-29587500D02*
X63942500Y-33767500D01*
X64122500Y-33767500D02*
X65037500Y-34682500D01*
X63942500Y-33767500D02*
X64122500Y-33767500D01*
X72402500Y-33767500D02*
X71487500Y-34682500D01*
X72582500Y-33767500D02*
X72402500Y-33767500D01*
X61912500Y-41118750D02*
X63500000Y-42706250D01*
X61912500Y-40637500D02*
X61912500Y-41118750D01*
D32*
X70608000Y-48518000D02*
X71882000Y-47244000D01*
X69837000Y-48518000D02*
X70608000Y-48518000D01*
D33*
X76200000Y-48399000D02*
X76974000Y-48399000D01*
X76974000Y-48399000D02*
X77343000Y-48768000D01*
X74612500Y-42225000D02*
X73086000Y-42225000D01*
X72517000Y-42794000D02*
X73086000Y-42225000D01*
X72517000Y-44843000D02*
X72517000Y-42794000D01*
X74156000Y-48895000D02*
X74156000Y-50800000D01*
X74156000Y-47740000D02*
X73660000Y-47244000D01*
X74156000Y-48895000D02*
X74156000Y-47740000D01*
X73660000Y-47244000D02*
X73406000Y-47244000D01*
D32*
X71882000Y-47244000D02*
X73406000Y-47244000D01*
D33*
X82343750Y-42992000D02*
X83375500Y-44023750D01*
X82343750Y-42992000D02*
X82343750Y-41989250D01*
X82343750Y-41989250D02*
X82804000Y-41529000D01*
X81788000Y-37338000D02*
X80010000Y-37338000D01*
X76439500Y-33767500D02*
X72582500Y-33767500D01*
X80010000Y-37338000D02*
X76439500Y-33767500D01*
X57745000Y-47612500D02*
X56019500Y-47612500D01*
X56019500Y-47612500D02*
X56007000Y-47625000D01*
X61912500Y-41211500D02*
X61912500Y-41118750D01*
X61468000Y-41656000D02*
X61912500Y-41211500D01*
X66294000Y-65087500D02*
X67412500Y-65087500D01*
X65976500Y-65405000D02*
X66294000Y-65087500D01*
X53594000Y-65405000D02*
X65976500Y-65405000D01*
X52197000Y-64008000D02*
X53594000Y-65405000D01*
X52197000Y-56261000D02*
X52197000Y-64008000D01*
X56007000Y-52451000D02*
X52197000Y-56261000D01*
X73660000Y-47244000D02*
X73660000Y-45212000D01*
X73291000Y-44843000D02*
X72517000Y-44843000D01*
X73660000Y-45212000D02*
X73291000Y-44843000D01*
X71374000Y-39203500D02*
X70314250Y-38143750D01*
X71374000Y-40513000D02*
X71374000Y-39203500D01*
X73086000Y-42225000D02*
X71374000Y-40513000D01*
X58903500Y-47612500D02*
X59690000Y-48399000D01*
X57745000Y-47612500D02*
X58903500Y-47612500D01*
X60579000Y-48399000D02*
X59690000Y-48399000D01*
X81165500Y-47612500D02*
X80010000Y-48768000D01*
X83780000Y-47612500D02*
X81165500Y-47612500D01*
X77343000Y-48768000D02*
X80010000Y-48768000D01*
X83780000Y-46759500D02*
X83375500Y-46355000D01*
X83780000Y-47612500D02*
X83780000Y-46759500D01*
X83375500Y-44023750D02*
X83375500Y-46355000D01*
X66574500Y-47905500D02*
X68299500Y-47905500D01*
X68299500Y-47905500D02*
X68299500Y-49630500D01*
X68299500Y-49630500D02*
X66574500Y-49630500D01*
D32*
X68687000Y-53696000D02*
X67670500Y-54712500D01*
X68687000Y-51168000D02*
X68687000Y-53696000D01*
X67691000Y-59194000D02*
X67691000Y-58674000D01*
X67691000Y-58674000D02*
X66421000Y-57404000D01*
X66421000Y-57404000D02*
X66421000Y-55372000D01*
X67080500Y-54712500D02*
X67670500Y-54712500D01*
X66421000Y-55372000D02*
X67080500Y-54712500D01*
X69837000Y-48018000D02*
X70346000Y-48018000D01*
X72021000Y-46343000D02*
X72517000Y-46343000D01*
X70346000Y-48018000D02*
X72021000Y-46343000D01*
X69837000Y-50018000D02*
X70592000Y-50018000D01*
X71374000Y-50800000D02*
X72656000Y-50800000D01*
X70592000Y-50018000D02*
X71374000Y-50800000D01*
X69837000Y-50518000D02*
X70457000Y-50518000D01*
X70739000Y-50800000D02*
X71374000Y-50800000D01*
X70457000Y-50518000D02*
X70739000Y-50800000D01*
X72656000Y-50800000D02*
X72656000Y-48895000D01*
X72656000Y-48895000D02*
X72656000Y-47891000D01*
X72656000Y-47891000D02*
X72644000Y-47879000D01*
X67687000Y-51168000D02*
X67687000Y-52582000D01*
X67687000Y-52582000D02*
X67310000Y-52959000D01*
X67310000Y-52959000D02*
X66421000Y-52959000D01*
D33*
X64516000Y-52324000D02*
X64516000Y-53606000D01*
X60579000Y-49899000D02*
X59424000Y-49899000D01*
X59424000Y-49899000D02*
X59182000Y-49657000D01*
X59182000Y-49657000D02*
X56388000Y-49657000D01*
X55232500Y-50812500D02*
X52745000Y-50812500D01*
X56388000Y-49657000D02*
X55232500Y-50812500D01*
X60579000Y-49899000D02*
X60579000Y-50673000D01*
X60579000Y-50673000D02*
X58928000Y-52324000D01*
X58928000Y-52324000D02*
X58801000Y-52451000D01*
X76200000Y-49899000D02*
X76200000Y-50927000D01*
X76200000Y-50927000D02*
X76073000Y-51054000D01*
X74612500Y-61275000D02*
X74488000Y-61275000D01*
X74488000Y-61275000D02*
X73406000Y-62357000D01*
X53181250Y-44062500D02*
X54483000Y-44062500D01*
X55188000Y-44767500D02*
X54483000Y-44062500D01*
X57467500Y-44767500D02*
X55188000Y-44767500D01*
X65925000Y-52959000D02*
X65278000Y-53606000D01*
X66421000Y-52959000D02*
X65925000Y-52959000D01*
D32*
X65278000Y-53606000D02*
X64516000Y-53606000D01*
D33*
X77748500Y-50812500D02*
X76835000Y-49899000D01*
X78780000Y-50812500D02*
X77748500Y-50812500D01*
X76200000Y-49899000D02*
X76835000Y-49899000D01*
X53181250Y-44926250D02*
X53181250Y-44062500D01*
X54610000Y-46355000D02*
X53181250Y-44926250D01*
X60706000Y-46355000D02*
X54610000Y-46355000D01*
X61976000Y-47879000D02*
X61976000Y-47625000D01*
X61976000Y-47625000D02*
X60706000Y-46355000D01*
D32*
X80287500Y-59920500D02*
X80287500Y-54237500D01*
X62357000Y-61849000D02*
X64389000Y-63881000D01*
X64389000Y-63881000D02*
X74295000Y-63881000D01*
X62103000Y-61849000D02*
X62357000Y-61849000D01*
X74295000Y-63881000D02*
X75946000Y-62230000D01*
X75946000Y-62230000D02*
X77978000Y-62230000D01*
X77978000Y-62230000D02*
X80287500Y-59920500D01*
X62484000Y-46482000D02*
X62484000Y-46101000D01*
X64020000Y-48018000D02*
X62484000Y-46482000D01*
X65037000Y-48018000D02*
X64020000Y-48018000D01*
D33*
X65812500Y-34682500D02*
X65812500Y-36094500D01*
X67262500Y-37544500D02*
X67262500Y-37943750D01*
X66167000Y-37084000D02*
X66802000Y-37084000D01*
X65812500Y-36094500D02*
X66802000Y-37084000D01*
X66802000Y-37084000D02*
X67262500Y-37544500D01*
X67262500Y-37943750D02*
X67262500Y-38147500D01*
X67262500Y-38147500D02*
X66802000Y-38608000D01*
X66802000Y-38608000D02*
X65024000Y-38608000D01*
X65024000Y-38608000D02*
X63373000Y-36957000D01*
X63373000Y-36957000D02*
X57785000Y-36957000D01*
X57785000Y-36957000D02*
X56007000Y-38735000D01*
X56007000Y-38735000D02*
X56007000Y-40132000D01*
X54476500Y-41662500D02*
X53181250Y-41662500D01*
X56007000Y-40132000D02*
X54476500Y-41662500D01*
X70712500Y-36602500D02*
X70231000Y-37084000D01*
X70712500Y-34682500D02*
X70712500Y-36602500D01*
D32*
X65037000Y-47018000D02*
X65037000Y-46495000D01*
X65037000Y-46495000D02*
X64516000Y-45974000D01*
X65024000Y-37719000D02*
X65278000Y-37719000D01*
X62928500Y-35623500D02*
X65024000Y-37719000D01*
X62928500Y-33845500D02*
X62928500Y-35623500D01*
X61976000Y-32893000D02*
X62928500Y-33845500D01*
X54927500Y-37147500D02*
X59182000Y-32893000D01*
X59182000Y-32893000D02*
X61976000Y-32893000D01*
X70076000Y-47018000D02*
X69837000Y-47018000D01*
X71501000Y-45593000D02*
X70076000Y-47018000D01*
X71501000Y-41529000D02*
X71501000Y-45593000D01*
X70739000Y-40767000D02*
X71501000Y-41529000D01*
X70612000Y-39497000D02*
X70739000Y-39624000D01*
X70739000Y-39624000D02*
X70739000Y-40767000D01*
X65687000Y-51168000D02*
X64529000Y-51168000D01*
X64529000Y-51168000D02*
X62992000Y-52705000D01*
X62992000Y-52705000D02*
X62992000Y-55372000D01*
X62992000Y-55372000D02*
X61722000Y-56642000D01*
X57507000Y-56007000D02*
X56237500Y-54737500D01*
X58801000Y-56007000D02*
X57507000Y-56007000D01*
X67187000Y-51168000D02*
X67187000Y-52066000D01*
X67187000Y-52066000D02*
X66929000Y-52324000D01*
X73977500Y-54419500D02*
X71882000Y-52324000D01*
X73977500Y-56197500D02*
X73977500Y-54419500D01*
X69187000Y-46368000D02*
X69187000Y-45184000D01*
X69187000Y-45184000D02*
X68961000Y-44958000D01*
X74612500Y-59375000D02*
X74612500Y-58356500D01*
X74612500Y-58356500D02*
X74676000Y-58293000D01*
X74612500Y-59375000D02*
X74356000Y-59375000D01*
X74356000Y-59375000D02*
X72517000Y-61214000D01*
X72517000Y-61214000D02*
X72517000Y-62357000D01*
X69684000Y-65659000D02*
X69112500Y-65087500D01*
X72009000Y-65659000D02*
X69684000Y-65659000D01*
X72517000Y-65024000D02*
X72517000Y-65151000D01*
X72517000Y-65151000D02*
X72009000Y-65659000D01*
X63500000Y-45720000D02*
X63500000Y-44606250D01*
X65037000Y-48518000D02*
X63500000Y-48518000D01*
X57745000Y-50812500D02*
X59296500Y-50812500D01*
X59296500Y-50812500D02*
X59436000Y-50673000D01*
X65037000Y-50518000D02*
X62766000Y-50518000D01*
X62766000Y-50518000D02*
X62357000Y-50927000D01*
X66675000Y-43812500D02*
X66675000Y-44958000D01*
X71112010Y-49522010D02*
X69837000Y-49522010D01*
X71374000Y-49784000D02*
X71112010Y-49522010D01*
X67512500Y-35635500D02*
X67512500Y-34682500D01*
X68008500Y-36131500D02*
X67512500Y-35635500D01*
X68008500Y-39097750D02*
X68008500Y-36131500D01*
X67262500Y-39843750D02*
X68008500Y-39097750D01*
X68512500Y-35627500D02*
X68008500Y-36131500D01*
X68512500Y-34682500D02*
X68512500Y-35627500D01*
X67262500Y-41325000D02*
X66675000Y-41912500D01*
X67262500Y-39843750D02*
X67262500Y-41325000D01*
X69850000Y-44958000D02*
X69850000Y-43812500D01*
X69837000Y-49018000D02*
X71124000Y-49018000D01*
X71124000Y-49018000D02*
X71374000Y-48768000D01*
X68012500Y-34682500D02*
X68012500Y-33651000D01*
X68012500Y-33651000D02*
X68262500Y-33401000D01*
X68262500Y-33401000D02*
X68770500Y-33401000D01*
X69012500Y-33643000D02*
X69012500Y-34682500D01*
X68770500Y-33401000D02*
X69012500Y-33643000D01*
X69012500Y-34682500D02*
X69012500Y-35889500D01*
X69012500Y-35889500D02*
X68516500Y-36385500D01*
X68516500Y-39097750D02*
X69262500Y-39843750D01*
X68516500Y-36385500D02*
X68516500Y-39097750D01*
X69262500Y-41325000D02*
X69850000Y-41912500D01*
X69262500Y-39843750D02*
X69262500Y-41325000D01*
X74612500Y-40325000D02*
X74612500Y-39306500D01*
X74612500Y-39306500D02*
X74549000Y-39243000D01*
X70012500Y-35905500D02*
X70012500Y-34682500D01*
X69723000Y-36195000D02*
X70012500Y-35905500D01*
X67012500Y-34682500D02*
X67012500Y-36151500D01*
X67012500Y-36151500D02*
X67056000Y-36195000D01*
X61912500Y-38417500D02*
X61912500Y-38737500D01*
X62611000Y-37719000D02*
X61912500Y-38417500D01*
X56769000Y-60706000D02*
X53340000Y-60706000D01*
X53340000Y-60706000D02*
X52959000Y-60325000D01*
X52745000Y-48855000D02*
X52745000Y-47612500D01*
X52705000Y-48895000D02*
X52745000Y-48855000D01*
X71628000Y-64897000D02*
X72136000Y-64389000D01*
X71628000Y-65024000D02*
X71628000Y-64897000D01*
X72136000Y-64389000D02*
X72898000Y-64389000D01*
X72898000Y-64389000D02*
X73914000Y-65405000D01*
X73914000Y-65405000D02*
X82804000Y-65405000D01*
X82804000Y-65405000D02*
X84201000Y-64008000D01*
X83780000Y-51522000D02*
X84201000Y-51943000D01*
X83780000Y-50812500D02*
X83780000Y-51522000D01*
X84201000Y-64008000D02*
X84201000Y-51943000D01*
X61468000Y-46228000D02*
X60007500Y-44767500D01*
X62738000Y-47498000D02*
X61468000Y-46228000D01*
X62738000Y-49403000D02*
X62738000Y-47498000D01*
X59563000Y-52578000D02*
X62738000Y-49403000D01*
X61912500Y-57787500D02*
X59563000Y-55438000D01*
X59563000Y-55438000D02*
X59563000Y-52578000D01*
X84013000Y-37338000D02*
X84137500Y-37462500D01*
X82677000Y-37338000D02*
X84013000Y-37338000D01*
X60007500Y-63817500D02*
X60007500Y-63690500D01*
X60007500Y-63690500D02*
X58547000Y-62230000D01*
X58547000Y-62230000D02*
X56769000Y-62230000D01*
X55342750Y-63656250D02*
X53975000Y-63656250D01*
X56769000Y-62230000D02*
X55342750Y-63656250D01*
X79218750Y-63656250D02*
X79057500Y-63817500D01*
X82550000Y-63656250D02*
X79218750Y-63656250D01*
D33*
X84328000Y-43926250D02*
X84343750Y-43942000D01*
X84328000Y-42799000D02*
X84328000Y-43926250D01*
X84137500Y-34607500D02*
X84137500Y-35562500D01*
X84201000Y-34544000D02*
X84137500Y-34607500D01*
X61912500Y-59687500D02*
X61912500Y-60515500D01*
X80298250Y-61756250D02*
X82550000Y-61756250D01*
X54898250Y-61756250D02*
X53975000Y-61756250D01*
X55059500Y-61595000D02*
X54898250Y-61756250D01*
X61912500Y-60515500D02*
X60833000Y-61595000D01*
X60833000Y-61595000D02*
X55059500Y-61595000D01*
X82550000Y-61756250D02*
X82550000Y-60579000D01*
X73850500Y-63309500D02*
X74168000Y-62992000D01*
X61912500Y-60515500D02*
X64706500Y-63309500D01*
X64706500Y-63309500D02*
X73850500Y-63309500D01*
X80044250Y-61756250D02*
X80298250Y-61756250D01*
X79756000Y-61468000D02*
X80044250Y-61756250D01*
D32*
X80962500Y-43510750D02*
X82343750Y-44892000D01*
X80962500Y-40637500D02*
X80962500Y-43510750D01*
X67687000Y-46368000D02*
X67687000Y-45216000D01*
X67687000Y-45216000D02*
X67691000Y-45212000D01*
X80520500Y-38737500D02*
X80962500Y-38737500D01*
X78867000Y-37084000D02*
X80520500Y-38737500D01*
X77978000Y-36830000D02*
X78232000Y-37084000D01*
X78232000Y-37084000D02*
X78867000Y-37084000D01*
G36*
X71499268Y-53040041D02*
G01*
X71646315Y-53100949D01*
X71789383Y-53129407D01*
X72898000Y-54238025D01*
X72898000Y-54955402D01*
X72708473Y-55166630D01*
X72565843Y-55360971D01*
X72429769Y-55652446D01*
X72353174Y-55964867D01*
X72339000Y-56286226D01*
X72387793Y-56604176D01*
X72497677Y-56906499D01*
X72664430Y-57181575D01*
X72822747Y-57354500D01*
X72571286Y-57354500D01*
X72304094Y-57407648D01*
X72052404Y-57511901D01*
X71825889Y-57663254D01*
X71633254Y-57855889D01*
X71481901Y-58082404D01*
X71377648Y-58334094D01*
X71324500Y-58601286D01*
X71324500Y-58873714D01*
X71377648Y-59140906D01*
X71481901Y-59392596D01*
X71633254Y-59619111D01*
X71825889Y-59811746D01*
X72052404Y-59963099D01*
X72304094Y-60067352D01*
X72571286Y-60120500D01*
X72712475Y-60120500D01*
X72090050Y-60742926D01*
X72065815Y-60762815D01*
X71986463Y-60859507D01*
X71927498Y-60969821D01*
X71891188Y-61089519D01*
X71882000Y-61182809D01*
X71882000Y-61182819D01*
X71878929Y-61214000D01*
X71882000Y-61245182D01*
X71882001Y-61852982D01*
X71800959Y-61974268D01*
X71740051Y-62121315D01*
X71709000Y-62277419D01*
X71709000Y-62436581D01*
X71740051Y-62592685D01*
X71747637Y-62611000D01*
X64995828Y-62611000D01*
X64420750Y-62035922D01*
X64420750Y-61094000D01*
X66677928Y-61094000D01*
X66690188Y-61218482D01*
X66726498Y-61338180D01*
X66785463Y-61448494D01*
X66864815Y-61545185D01*
X66961506Y-61624537D01*
X67071820Y-61683502D01*
X67191518Y-61719812D01*
X67316000Y-61732072D01*
X67405250Y-61729000D01*
X67564000Y-61570250D01*
X67564000Y-60821000D01*
X67818000Y-60821000D01*
X67818000Y-61570250D01*
X67976750Y-61729000D01*
X68066000Y-61732072D01*
X68190482Y-61719812D01*
X68310180Y-61683502D01*
X68420494Y-61624537D01*
X68517185Y-61545185D01*
X68596537Y-61448494D01*
X68655502Y-61338180D01*
X68691812Y-61218482D01*
X68704072Y-61094000D01*
X68836928Y-61094000D01*
X68849188Y-61218482D01*
X68885498Y-61338180D01*
X68944463Y-61448494D01*
X69023815Y-61545185D01*
X69120506Y-61624537D01*
X69230820Y-61683502D01*
X69350518Y-61719812D01*
X69475000Y-61732072D01*
X69564250Y-61729000D01*
X69723000Y-61570250D01*
X69723000Y-60821000D01*
X69977000Y-60821000D01*
X69977000Y-61570250D01*
X70135750Y-61729000D01*
X70225000Y-61732072D01*
X70349482Y-61719812D01*
X70469180Y-61683502D01*
X70579494Y-61624537D01*
X70676185Y-61545185D01*
X70755537Y-61448494D01*
X70814502Y-61338180D01*
X70850812Y-61218482D01*
X70863072Y-61094000D01*
X70860000Y-60979750D01*
X70701250Y-60821000D01*
X69977000Y-60821000D01*
X69723000Y-60821000D01*
X68998750Y-60821000D01*
X68840000Y-60979750D01*
X68836928Y-61094000D01*
X68704072Y-61094000D01*
X68701000Y-60979750D01*
X68542250Y-60821000D01*
X67818000Y-60821000D01*
X67564000Y-60821000D01*
X66839750Y-60821000D01*
X66681000Y-60979750D01*
X66677928Y-61094000D01*
X64420750Y-61094000D01*
X64420750Y-59984574D01*
X64472596Y-59963099D01*
X64699111Y-59811746D01*
X64891746Y-59619111D01*
X65043099Y-59392596D01*
X65147352Y-59140906D01*
X65200500Y-58873714D01*
X65200500Y-58601286D01*
X65147352Y-58334094D01*
X65043099Y-58082404D01*
X64891746Y-57855889D01*
X64699111Y-57663254D01*
X64472596Y-57511901D01*
X64420750Y-57490426D01*
X64420750Y-55233000D01*
X64643000Y-55233000D01*
X64643000Y-55982250D01*
X64801750Y-56141000D01*
X64891000Y-56144072D01*
X65015482Y-56131812D01*
X65135180Y-56095502D01*
X65245494Y-56036537D01*
X65342185Y-55957185D01*
X65421537Y-55860494D01*
X65480502Y-55750180D01*
X65516812Y-55630482D01*
X65529072Y-55506000D01*
X65526000Y-55391750D01*
X65367250Y-55233000D01*
X64643000Y-55233000D01*
X64420750Y-55233000D01*
X64420750Y-54959000D01*
X64643000Y-54959000D01*
X64643000Y-54979000D01*
X65367250Y-54979000D01*
X65526000Y-54820250D01*
X65529072Y-54706000D01*
X65516812Y-54581518D01*
X65480502Y-54461820D01*
X65421537Y-54351506D01*
X65377676Y-54298061D01*
X65414929Y-54294392D01*
X65546598Y-54254451D01*
X65667943Y-54189591D01*
X65747653Y-54124174D01*
X66214328Y-53657500D01*
X66455309Y-53657500D01*
X66557930Y-53647393D01*
X66689597Y-53607452D01*
X66714764Y-53594000D01*
X67278819Y-53594000D01*
X67310000Y-53597071D01*
X67341181Y-53594000D01*
X67341192Y-53594000D01*
X67434482Y-53584812D01*
X67554180Y-53548502D01*
X67664494Y-53489537D01*
X67761185Y-53410185D01*
X67781074Y-53385950D01*
X68052001Y-53115024D01*
X68052001Y-53432974D01*
X67882932Y-53602043D01*
X66970500Y-53602043D01*
X66870915Y-53611851D01*
X66775157Y-53640899D01*
X66686905Y-53688071D01*
X66609552Y-53751552D01*
X66546071Y-53828905D01*
X66498899Y-53917157D01*
X66469851Y-54012915D01*
X66460043Y-54112500D01*
X66460043Y-54434932D01*
X65994046Y-54900930D01*
X65969816Y-54920815D01*
X65929341Y-54970134D01*
X65890463Y-55017507D01*
X65831498Y-55127821D01*
X65806203Y-55211209D01*
X65796549Y-55243037D01*
X65795189Y-55247519D01*
X65782929Y-55372000D01*
X65786001Y-55403191D01*
X65786000Y-57372819D01*
X65782929Y-57404000D01*
X65786000Y-57435181D01*
X65786000Y-57435191D01*
X65795188Y-57528481D01*
X65831498Y-57648179D01*
X65890463Y-57758493D01*
X65969815Y-57855185D01*
X65994050Y-57875074D01*
X66815175Y-58696200D01*
X66805543Y-58794000D01*
X66805543Y-59594000D01*
X66815351Y-59693585D01*
X66844399Y-59789343D01*
X66870491Y-59838157D01*
X66864815Y-59842815D01*
X66785463Y-59939506D01*
X66726498Y-60049820D01*
X66690188Y-60169518D01*
X66677928Y-60294000D01*
X66681000Y-60408250D01*
X66839750Y-60567000D01*
X67564000Y-60567000D01*
X67564000Y-60547000D01*
X67818000Y-60547000D01*
X67818000Y-60567000D01*
X68542250Y-60567000D01*
X68701000Y-60408250D01*
X68704072Y-60294000D01*
X68691812Y-60169518D01*
X68655502Y-60049820D01*
X68596537Y-59939506D01*
X68517185Y-59842815D01*
X68511509Y-59838157D01*
X68537601Y-59789343D01*
X68566649Y-59693585D01*
X68576457Y-59594000D01*
X68576457Y-58794000D01*
X68566649Y-58694415D01*
X68537601Y-58598657D01*
X68490429Y-58510405D01*
X68426948Y-58433052D01*
X68349595Y-58369571D01*
X68261343Y-58322399D01*
X68211505Y-58307281D01*
X68162068Y-58247043D01*
X68142185Y-58222815D01*
X68117955Y-58202930D01*
X67473637Y-57558613D01*
X67543500Y-57488750D01*
X67543500Y-56539500D01*
X67523500Y-56539500D01*
X67523500Y-56285500D01*
X67543500Y-56285500D01*
X67543500Y-56265500D01*
X67797500Y-56265500D01*
X67797500Y-56285500D01*
X67817500Y-56285500D01*
X67817500Y-56539500D01*
X67797500Y-56539500D01*
X67797500Y-57488750D01*
X67956250Y-57647500D01*
X68370500Y-57650572D01*
X68494982Y-57638312D01*
X68614680Y-57602002D01*
X68724994Y-57543037D01*
X68821685Y-57463685D01*
X68861054Y-57415714D01*
X68886905Y-57436929D01*
X68975157Y-57484101D01*
X69070915Y-57513149D01*
X69170500Y-57522957D01*
X69235500Y-57522957D01*
X69235501Y-58346001D01*
X69191405Y-58369571D01*
X69114052Y-58433052D01*
X69050571Y-58510405D01*
X69003399Y-58598657D01*
X68974351Y-58694415D01*
X68964543Y-58794000D01*
X68964543Y-59594000D01*
X68974351Y-59693585D01*
X69003399Y-59789343D01*
X69029491Y-59838157D01*
X69023815Y-59842815D01*
X68944463Y-59939506D01*
X68885498Y-60049820D01*
X68849188Y-60169518D01*
X68836928Y-60294000D01*
X68840000Y-60408250D01*
X68998750Y-60567000D01*
X69723000Y-60567000D01*
X69723000Y-60547000D01*
X69977000Y-60547000D01*
X69977000Y-60567000D01*
X70701250Y-60567000D01*
X70860000Y-60408250D01*
X70863072Y-60294000D01*
X70850812Y-60169518D01*
X70814502Y-60049820D01*
X70755537Y-59939506D01*
X70676185Y-59842815D01*
X70670509Y-59838157D01*
X70696601Y-59789343D01*
X70725649Y-59693585D01*
X70735457Y-59594000D01*
X70735457Y-58794000D01*
X70725649Y-58694415D01*
X70696601Y-58598657D01*
X70649429Y-58510405D01*
X70585948Y-58433052D01*
X70508595Y-58369571D01*
X70505500Y-58367917D01*
X70505500Y-57522957D01*
X70570500Y-57522957D01*
X70670085Y-57513149D01*
X70765843Y-57484101D01*
X70854095Y-57436929D01*
X70931448Y-57373448D01*
X70994929Y-57296095D01*
X71042101Y-57207843D01*
X71071149Y-57112085D01*
X71080957Y-57012500D01*
X71080957Y-56563067D01*
X71546955Y-56097070D01*
X71571185Y-56077185D01*
X71650537Y-55980494D01*
X71709502Y-55870180D01*
X71745812Y-55750482D01*
X71755000Y-55657192D01*
X71755000Y-55657181D01*
X71758071Y-55626000D01*
X71755000Y-55594819D01*
X71755000Y-53625189D01*
X71758072Y-53594000D01*
X71753591Y-53548502D01*
X71745812Y-53469518D01*
X71709502Y-53349820D01*
X71690085Y-53313493D01*
X71650538Y-53239506D01*
X71591069Y-53167043D01*
X71591065Y-53167039D01*
X71571185Y-53142815D01*
X71546962Y-53122936D01*
X71393182Y-52969156D01*
X71499268Y-53040041D01*
X71499268Y-53040041D01*
G37*
X71499268Y-53040041D02*
X71646315Y-53100949D01*
X71789383Y-53129407D01*
X72898000Y-54238025D01*
X72898000Y-54955402D01*
X72708473Y-55166630D01*
X72565843Y-55360971D01*
X72429769Y-55652446D01*
X72353174Y-55964867D01*
X72339000Y-56286226D01*
X72387793Y-56604176D01*
X72497677Y-56906499D01*
X72664430Y-57181575D01*
X72822747Y-57354500D01*
X72571286Y-57354500D01*
X72304094Y-57407648D01*
X72052404Y-57511901D01*
X71825889Y-57663254D01*
X71633254Y-57855889D01*
X71481901Y-58082404D01*
X71377648Y-58334094D01*
X71324500Y-58601286D01*
X71324500Y-58873714D01*
X71377648Y-59140906D01*
X71481901Y-59392596D01*
X71633254Y-59619111D01*
X71825889Y-59811746D01*
X72052404Y-59963099D01*
X72304094Y-60067352D01*
X72571286Y-60120500D01*
X72712475Y-60120500D01*
X72090050Y-60742926D01*
X72065815Y-60762815D01*
X71986463Y-60859507D01*
X71927498Y-60969821D01*
X71891188Y-61089519D01*
X71882000Y-61182809D01*
X71882000Y-61182819D01*
X71878929Y-61214000D01*
X71882000Y-61245182D01*
X71882001Y-61852982D01*
X71800959Y-61974268D01*
X71740051Y-62121315D01*
X71709000Y-62277419D01*
X71709000Y-62436581D01*
X71740051Y-62592685D01*
X71747637Y-62611000D01*
X64995828Y-62611000D01*
X64420750Y-62035922D01*
X64420750Y-61094000D01*
X66677928Y-61094000D01*
X66690188Y-61218482D01*
X66726498Y-61338180D01*
X66785463Y-61448494D01*
X66864815Y-61545185D01*
X66961506Y-61624537D01*
X67071820Y-61683502D01*
X67191518Y-61719812D01*
X67316000Y-61732072D01*
X67405250Y-61729000D01*
X67564000Y-61570250D01*
X67564000Y-60821000D01*
X67818000Y-60821000D01*
X67818000Y-61570250D01*
X67976750Y-61729000D01*
X68066000Y-61732072D01*
X68190482Y-61719812D01*
X68310180Y-61683502D01*
X68420494Y-61624537D01*
X68517185Y-61545185D01*
X68596537Y-61448494D01*
X68655502Y-61338180D01*
X68691812Y-61218482D01*
X68704072Y-61094000D01*
X68836928Y-61094000D01*
X68849188Y-61218482D01*
X68885498Y-61338180D01*
X68944463Y-61448494D01*
X69023815Y-61545185D01*
X69120506Y-61624537D01*
X69230820Y-61683502D01*
X69350518Y-61719812D01*
X69475000Y-61732072D01*
X69564250Y-61729000D01*
X69723000Y-61570250D01*
X69723000Y-60821000D01*
X69977000Y-60821000D01*
X69977000Y-61570250D01*
X70135750Y-61729000D01*
X70225000Y-61732072D01*
X70349482Y-61719812D01*
X70469180Y-61683502D01*
X70579494Y-61624537D01*
X70676185Y-61545185D01*
X70755537Y-61448494D01*
X70814502Y-61338180D01*
X70850812Y-61218482D01*
X70863072Y-61094000D01*
X70860000Y-60979750D01*
X70701250Y-60821000D01*
X69977000Y-60821000D01*
X69723000Y-60821000D01*
X68998750Y-60821000D01*
X68840000Y-60979750D01*
X68836928Y-61094000D01*
X68704072Y-61094000D01*
X68701000Y-60979750D01*
X68542250Y-60821000D01*
X67818000Y-60821000D01*
X67564000Y-60821000D01*
X66839750Y-60821000D01*
X66681000Y-60979750D01*
X66677928Y-61094000D01*
X64420750Y-61094000D01*
X64420750Y-59984574D01*
X64472596Y-59963099D01*
X64699111Y-59811746D01*
X64891746Y-59619111D01*
X65043099Y-59392596D01*
X65147352Y-59140906D01*
X65200500Y-58873714D01*
X65200500Y-58601286D01*
X65147352Y-58334094D01*
X65043099Y-58082404D01*
X64891746Y-57855889D01*
X64699111Y-57663254D01*
X64472596Y-57511901D01*
X64420750Y-57490426D01*
X64420750Y-55233000D01*
X64643000Y-55233000D01*
X64643000Y-55982250D01*
X64801750Y-56141000D01*
X64891000Y-56144072D01*
X65015482Y-56131812D01*
X65135180Y-56095502D01*
X65245494Y-56036537D01*
X65342185Y-55957185D01*
X65421537Y-55860494D01*
X65480502Y-55750180D01*
X65516812Y-55630482D01*
X65529072Y-55506000D01*
X65526000Y-55391750D01*
X65367250Y-55233000D01*
X64643000Y-55233000D01*
X64420750Y-55233000D01*
X64420750Y-54959000D01*
X64643000Y-54959000D01*
X64643000Y-54979000D01*
X65367250Y-54979000D01*
X65526000Y-54820250D01*
X65529072Y-54706000D01*
X65516812Y-54581518D01*
X65480502Y-54461820D01*
X65421537Y-54351506D01*
X65377676Y-54298061D01*
X65414929Y-54294392D01*
X65546598Y-54254451D01*
X65667943Y-54189591D01*
X65747653Y-54124174D01*
X66214328Y-53657500D01*
X66455309Y-53657500D01*
X66557930Y-53647393D01*
X66689597Y-53607452D01*
X66714764Y-53594000D01*
X67278819Y-53594000D01*
X67310000Y-53597071D01*
X67341181Y-53594000D01*
X67341192Y-53594000D01*
X67434482Y-53584812D01*
X67554180Y-53548502D01*
X67664494Y-53489537D01*
X67761185Y-53410185D01*
X67781074Y-53385950D01*
X68052001Y-53115024D01*
X68052001Y-53432974D01*
X67882932Y-53602043D01*
X66970500Y-53602043D01*
X66870915Y-53611851D01*
X66775157Y-53640899D01*
X66686905Y-53688071D01*
X66609552Y-53751552D01*
X66546071Y-53828905D01*
X66498899Y-53917157D01*
X66469851Y-54012915D01*
X66460043Y-54112500D01*
X66460043Y-54434932D01*
X65994046Y-54900930D01*
X65969816Y-54920815D01*
X65929341Y-54970134D01*
X65890463Y-55017507D01*
X65831498Y-55127821D01*
X65806203Y-55211209D01*
X65796549Y-55243037D01*
X65795189Y-55247519D01*
X65782929Y-55372000D01*
X65786001Y-55403191D01*
X65786000Y-57372819D01*
X65782929Y-57404000D01*
X65786000Y-57435181D01*
X65786000Y-57435191D01*
X65795188Y-57528481D01*
X65831498Y-57648179D01*
X65890463Y-57758493D01*
X65969815Y-57855185D01*
X65994050Y-57875074D01*
X66815175Y-58696200D01*
X66805543Y-58794000D01*
X66805543Y-59594000D01*
X66815351Y-59693585D01*
X66844399Y-59789343D01*
X66870491Y-59838157D01*
X66864815Y-59842815D01*
X66785463Y-59939506D01*
X66726498Y-60049820D01*
X66690188Y-60169518D01*
X66677928Y-60294000D01*
X66681000Y-60408250D01*
X66839750Y-60567000D01*
X67564000Y-60567000D01*
X67564000Y-60547000D01*
X67818000Y-60547000D01*
X67818000Y-60567000D01*
X68542250Y-60567000D01*
X68701000Y-60408250D01*
X68704072Y-60294000D01*
X68691812Y-60169518D01*
X68655502Y-60049820D01*
X68596537Y-59939506D01*
X68517185Y-59842815D01*
X68511509Y-59838157D01*
X68537601Y-59789343D01*
X68566649Y-59693585D01*
X68576457Y-59594000D01*
X68576457Y-58794000D01*
X68566649Y-58694415D01*
X68537601Y-58598657D01*
X68490429Y-58510405D01*
X68426948Y-58433052D01*
X68349595Y-58369571D01*
X68261343Y-58322399D01*
X68211505Y-58307281D01*
X68162068Y-58247043D01*
X68142185Y-58222815D01*
X68117955Y-58202930D01*
X67473637Y-57558613D01*
X67543500Y-57488750D01*
X67543500Y-56539500D01*
X67523500Y-56539500D01*
X67523500Y-56285500D01*
X67543500Y-56285500D01*
X67543500Y-56265500D01*
X67797500Y-56265500D01*
X67797500Y-56285500D01*
X67817500Y-56285500D01*
X67817500Y-56539500D01*
X67797500Y-56539500D01*
X67797500Y-57488750D01*
X67956250Y-57647500D01*
X68370500Y-57650572D01*
X68494982Y-57638312D01*
X68614680Y-57602002D01*
X68724994Y-57543037D01*
X68821685Y-57463685D01*
X68861054Y-57415714D01*
X68886905Y-57436929D01*
X68975157Y-57484101D01*
X69070915Y-57513149D01*
X69170500Y-57522957D01*
X69235500Y-57522957D01*
X69235501Y-58346001D01*
X69191405Y-58369571D01*
X69114052Y-58433052D01*
X69050571Y-58510405D01*
X69003399Y-58598657D01*
X68974351Y-58694415D01*
X68964543Y-58794000D01*
X68964543Y-59594000D01*
X68974351Y-59693585D01*
X69003399Y-59789343D01*
X69029491Y-59838157D01*
X69023815Y-59842815D01*
X68944463Y-59939506D01*
X68885498Y-60049820D01*
X68849188Y-60169518D01*
X68836928Y-60294000D01*
X68840000Y-60408250D01*
X68998750Y-60567000D01*
X69723000Y-60567000D01*
X69723000Y-60547000D01*
X69977000Y-60547000D01*
X69977000Y-60567000D01*
X70701250Y-60567000D01*
X70860000Y-60408250D01*
X70863072Y-60294000D01*
X70850812Y-60169518D01*
X70814502Y-60049820D01*
X70755537Y-59939506D01*
X70676185Y-59842815D01*
X70670509Y-59838157D01*
X70696601Y-59789343D01*
X70725649Y-59693585D01*
X70735457Y-59594000D01*
X70735457Y-58794000D01*
X70725649Y-58694415D01*
X70696601Y-58598657D01*
X70649429Y-58510405D01*
X70585948Y-58433052D01*
X70508595Y-58369571D01*
X70505500Y-58367917D01*
X70505500Y-57522957D01*
X70570500Y-57522957D01*
X70670085Y-57513149D01*
X70765843Y-57484101D01*
X70854095Y-57436929D01*
X70931448Y-57373448D01*
X70994929Y-57296095D01*
X71042101Y-57207843D01*
X71071149Y-57112085D01*
X71080957Y-57012500D01*
X71080957Y-56563067D01*
X71546955Y-56097070D01*
X71571185Y-56077185D01*
X71650537Y-55980494D01*
X71709502Y-55870180D01*
X71745812Y-55750482D01*
X71755000Y-55657192D01*
X71755000Y-55657181D01*
X71758071Y-55626000D01*
X71755000Y-55594819D01*
X71755000Y-53625189D01*
X71758072Y-53594000D01*
X71753591Y-53548502D01*
X71745812Y-53469518D01*
X71709502Y-53349820D01*
X71690085Y-53313493D01*
X71650538Y-53239506D01*
X71591069Y-53167043D01*
X71591065Y-53167039D01*
X71571185Y-53142815D01*
X71546962Y-53122936D01*
X71393182Y-52969156D01*
X71499268Y-53040041D01*
G36*
X70130862Y-53502888D02*
G01*
X69997500Y-53636250D01*
X69997500Y-54585500D01*
X70017500Y-54585500D01*
X70017500Y-54839500D01*
X69997500Y-54839500D01*
X69997500Y-54859500D01*
X69743500Y-54859500D01*
X69743500Y-54839500D01*
X69723500Y-54839500D01*
X69723500Y-54585500D01*
X69743500Y-54585500D01*
X69743500Y-53636250D01*
X69584750Y-53477500D01*
X69322000Y-53475551D01*
X69322000Y-52694025D01*
X70130862Y-53502888D01*
X70130862Y-53502888D01*
G37*
X70130862Y-53502888D02*
X69997500Y-53636250D01*
X69997500Y-54585500D01*
X70017500Y-54585500D01*
X70017500Y-54839500D01*
X69997500Y-54839500D01*
X69997500Y-54859500D01*
X69743500Y-54859500D01*
X69743500Y-54839500D01*
X69723500Y-54839500D01*
X69723500Y-54585500D01*
X69743500Y-54585500D01*
X69743500Y-53636250D01*
X69584750Y-53477500D01*
X69322000Y-53475551D01*
X69322000Y-52694025D01*
X70130862Y-53502888D01*
G36*
X71551903Y-34798000D02*
G01*
X71522957Y-34798000D01*
X71522957Y-34730658D01*
X71551903Y-34798000D01*
X71551903Y-34798000D01*
G37*
X71551903Y-34798000D02*
X71522957Y-34798000D01*
X71522957Y-34730658D01*
X71551903Y-34798000D01*
G36*
X65002043Y-34798000D02*
G01*
X64973097Y-34798000D01*
X65002043Y-34730658D01*
X65002043Y-34798000D01*
X65002043Y-34798000D01*
G37*
X65002043Y-34798000D02*
X64973097Y-34798000D01*
X65002043Y-34730658D01*
X65002043Y-34798000D01*
G36*
X71447500Y-29160500D02*
G01*
X71447500Y-29460500D01*
X72442000Y-29460500D01*
X72442000Y-29714500D01*
X71447500Y-29714500D01*
X71447500Y-30014500D01*
X71494085Y-30233487D01*
X71582497Y-30439178D01*
X71709339Y-30623669D01*
X71869736Y-30779869D01*
X72057524Y-30901776D01*
X72280626Y-30981619D01*
X72442001Y-30865193D01*
X72442001Y-30984883D01*
X72444453Y-31009778D01*
X72444419Y-31014630D01*
X72445213Y-31022732D01*
X72461406Y-31176797D01*
X72472026Y-31228534D01*
X72481932Y-31280462D01*
X72484285Y-31288255D01*
X72530094Y-31436239D01*
X72550580Y-31484973D01*
X72570364Y-31533940D01*
X72574185Y-31541128D01*
X72647865Y-31677397D01*
X72677426Y-31721224D01*
X72706348Y-31765420D01*
X72711492Y-31771728D01*
X72810239Y-31891091D01*
X72847731Y-31928322D01*
X72884701Y-31966075D01*
X72890973Y-31971264D01*
X72898000Y-31976995D01*
X72898000Y-32128257D01*
X72884374Y-32123381D01*
X72709500Y-32249546D01*
X72709500Y-33640500D01*
X72729500Y-33640500D01*
X72729500Y-33894500D01*
X72709500Y-33894500D01*
X72709500Y-33914500D01*
X72455500Y-33914500D01*
X72455500Y-33894500D01*
X72435500Y-33894500D01*
X72435500Y-33640500D01*
X72455500Y-33640500D01*
X72455500Y-32249546D01*
X72280626Y-32123381D01*
X72057524Y-32203224D01*
X71869736Y-32325131D01*
X71709339Y-32481331D01*
X71649794Y-32567940D01*
X71547074Y-32499305D01*
X71395477Y-32436511D01*
X71234543Y-32404500D01*
X71070457Y-32404500D01*
X70909523Y-32436511D01*
X70757926Y-32499305D01*
X70621493Y-32590466D01*
X70505466Y-32706493D01*
X70414305Y-32842926D01*
X70351511Y-32994523D01*
X70319500Y-33155457D01*
X70319500Y-33319543D01*
X70346160Y-33453577D01*
X70312915Y-33456851D01*
X70287500Y-33464561D01*
X70262085Y-33456851D01*
X70162500Y-33447043D01*
X69862500Y-33447043D01*
X69762915Y-33456851D01*
X69762500Y-33456977D01*
X69762085Y-33456851D01*
X69662500Y-33447043D01*
X69616630Y-33447043D01*
X69602002Y-33398820D01*
X69566119Y-33331688D01*
X69543038Y-33288507D01*
X69509379Y-33247493D01*
X69463685Y-33191815D01*
X69439455Y-33171931D01*
X69241574Y-32974050D01*
X69221685Y-32949815D01*
X69124994Y-32870463D01*
X69014680Y-32811498D01*
X68894982Y-32775188D01*
X68801692Y-32766000D01*
X68801681Y-32766000D01*
X68770500Y-32762929D01*
X68739319Y-32766000D01*
X68293680Y-32766000D01*
X68262499Y-32762929D01*
X68231318Y-32766000D01*
X68231308Y-32766000D01*
X68138018Y-32775188D01*
X68018320Y-32811498D01*
X67908006Y-32870463D01*
X67811315Y-32949815D01*
X67791429Y-32974046D01*
X67585545Y-33179931D01*
X67561316Y-33199815D01*
X67541432Y-33224044D01*
X67481963Y-33296507D01*
X67422998Y-33406821D01*
X67410797Y-33447043D01*
X67362500Y-33447043D01*
X67262915Y-33456851D01*
X67262500Y-33456977D01*
X67262085Y-33456851D01*
X67162500Y-33447043D01*
X66862500Y-33447043D01*
X66762915Y-33456851D01*
X66762500Y-33456977D01*
X66762085Y-33456851D01*
X66662500Y-33447043D01*
X66362500Y-33447043D01*
X66262915Y-33456851D01*
X66237500Y-33464561D01*
X66212085Y-33456851D01*
X66178840Y-33453577D01*
X66205500Y-33319543D01*
X66205500Y-33155457D01*
X66173489Y-32994523D01*
X66110695Y-32842926D01*
X66019534Y-32706493D01*
X65903507Y-32590466D01*
X65767074Y-32499305D01*
X65615477Y-32436511D01*
X65454543Y-32404500D01*
X65290457Y-32404500D01*
X65129523Y-32436511D01*
X64977926Y-32499305D01*
X64875206Y-32567940D01*
X64815661Y-32481331D01*
X64655264Y-32325131D01*
X64467476Y-32203224D01*
X64244374Y-32123381D01*
X64069500Y-32249546D01*
X64069500Y-33640500D01*
X64089500Y-33640500D01*
X64089500Y-33894500D01*
X64069500Y-33894500D01*
X64069500Y-33914500D01*
X63815500Y-33914500D01*
X63815500Y-33894500D01*
X63795500Y-33894500D01*
X63795500Y-33640500D01*
X63815500Y-33640500D01*
X63815500Y-32249546D01*
X63640626Y-32123381D01*
X63627000Y-32128257D01*
X63627000Y-31976418D01*
X63641091Y-31964761D01*
X63678322Y-31927269D01*
X63716075Y-31890299D01*
X63721264Y-31884027D01*
X63819173Y-31763979D01*
X63848425Y-31719951D01*
X63878268Y-31676367D01*
X63882139Y-31669208D01*
X63882140Y-31669207D01*
X63882142Y-31669203D01*
X63954867Y-31532426D01*
X63975001Y-31483576D01*
X63995818Y-31435008D01*
X63998225Y-31427232D01*
X64043000Y-31278930D01*
X64053269Y-31227071D01*
X64064249Y-31175411D01*
X64065101Y-31167315D01*
X64080218Y-31013142D01*
X64080218Y-31013130D01*
X64083000Y-30984883D01*
X64083000Y-30865194D01*
X64244374Y-30981619D01*
X64467476Y-30901776D01*
X64655264Y-30779869D01*
X64815661Y-30623669D01*
X64942503Y-30439178D01*
X65030915Y-30233487D01*
X65077500Y-30014500D01*
X65077500Y-29714500D01*
X64083000Y-29714500D01*
X64083000Y-29460500D01*
X65077500Y-29460500D01*
X65077500Y-29160500D01*
X65076968Y-29158000D01*
X71448032Y-29158000D01*
X71447500Y-29160500D01*
X71447500Y-29160500D01*
G37*
X71447500Y-29160500D02*
X71447500Y-29460500D01*
X72442000Y-29460500D01*
X72442000Y-29714500D01*
X71447500Y-29714500D01*
X71447500Y-30014500D01*
X71494085Y-30233487D01*
X71582497Y-30439178D01*
X71709339Y-30623669D01*
X71869736Y-30779869D01*
X72057524Y-30901776D01*
X72280626Y-30981619D01*
X72442001Y-30865193D01*
X72442001Y-30984883D01*
X72444453Y-31009778D01*
X72444419Y-31014630D01*
X72445213Y-31022732D01*
X72461406Y-31176797D01*
X72472026Y-31228534D01*
X72481932Y-31280462D01*
X72484285Y-31288255D01*
X72530094Y-31436239D01*
X72550580Y-31484973D01*
X72570364Y-31533940D01*
X72574185Y-31541128D01*
X72647865Y-31677397D01*
X72677426Y-31721224D01*
X72706348Y-31765420D01*
X72711492Y-31771728D01*
X72810239Y-31891091D01*
X72847731Y-31928322D01*
X72884701Y-31966075D01*
X72890973Y-31971264D01*
X72898000Y-31976995D01*
X72898000Y-32128257D01*
X72884374Y-32123381D01*
X72709500Y-32249546D01*
X72709500Y-33640500D01*
X72729500Y-33640500D01*
X72729500Y-33894500D01*
X72709500Y-33894500D01*
X72709500Y-33914500D01*
X72455500Y-33914500D01*
X72455500Y-33894500D01*
X72435500Y-33894500D01*
X72435500Y-33640500D01*
X72455500Y-33640500D01*
X72455500Y-32249546D01*
X72280626Y-32123381D01*
X72057524Y-32203224D01*
X71869736Y-32325131D01*
X71709339Y-32481331D01*
X71649794Y-32567940D01*
X71547074Y-32499305D01*
X71395477Y-32436511D01*
X71234543Y-32404500D01*
X71070457Y-32404500D01*
X70909523Y-32436511D01*
X70757926Y-32499305D01*
X70621493Y-32590466D01*
X70505466Y-32706493D01*
X70414305Y-32842926D01*
X70351511Y-32994523D01*
X70319500Y-33155457D01*
X70319500Y-33319543D01*
X70346160Y-33453577D01*
X70312915Y-33456851D01*
X70287500Y-33464561D01*
X70262085Y-33456851D01*
X70162500Y-33447043D01*
X69862500Y-33447043D01*
X69762915Y-33456851D01*
X69762500Y-33456977D01*
X69762085Y-33456851D01*
X69662500Y-33447043D01*
X69616630Y-33447043D01*
X69602002Y-33398820D01*
X69566119Y-33331688D01*
X69543038Y-33288507D01*
X69509379Y-33247493D01*
X69463685Y-33191815D01*
X69439455Y-33171931D01*
X69241574Y-32974050D01*
X69221685Y-32949815D01*
X69124994Y-32870463D01*
X69014680Y-32811498D01*
X68894982Y-32775188D01*
X68801692Y-32766000D01*
X68801681Y-32766000D01*
X68770500Y-32762929D01*
X68739319Y-32766000D01*
X68293680Y-32766000D01*
X68262499Y-32762929D01*
X68231318Y-32766000D01*
X68231308Y-32766000D01*
X68138018Y-32775188D01*
X68018320Y-32811498D01*
X67908006Y-32870463D01*
X67811315Y-32949815D01*
X67791429Y-32974046D01*
X67585545Y-33179931D01*
X67561316Y-33199815D01*
X67541432Y-33224044D01*
X67481963Y-33296507D01*
X67422998Y-33406821D01*
X67410797Y-33447043D01*
X67362500Y-33447043D01*
X67262915Y-33456851D01*
X67262500Y-33456977D01*
X67262085Y-33456851D01*
X67162500Y-33447043D01*
X66862500Y-33447043D01*
X66762915Y-33456851D01*
X66762500Y-33456977D01*
X66762085Y-33456851D01*
X66662500Y-33447043D01*
X66362500Y-33447043D01*
X66262915Y-33456851D01*
X66237500Y-33464561D01*
X66212085Y-33456851D01*
X66178840Y-33453577D01*
X66205500Y-33319543D01*
X66205500Y-33155457D01*
X66173489Y-32994523D01*
X66110695Y-32842926D01*
X66019534Y-32706493D01*
X65903507Y-32590466D01*
X65767074Y-32499305D01*
X65615477Y-32436511D01*
X65454543Y-32404500D01*
X65290457Y-32404500D01*
X65129523Y-32436511D01*
X64977926Y-32499305D01*
X64875206Y-32567940D01*
X64815661Y-32481331D01*
X64655264Y-32325131D01*
X64467476Y-32203224D01*
X64244374Y-32123381D01*
X64069500Y-32249546D01*
X64069500Y-33640500D01*
X64089500Y-33640500D01*
X64089500Y-33894500D01*
X64069500Y-33894500D01*
X64069500Y-33914500D01*
X63815500Y-33914500D01*
X63815500Y-33894500D01*
X63795500Y-33894500D01*
X63795500Y-33640500D01*
X63815500Y-33640500D01*
X63815500Y-32249546D01*
X63640626Y-32123381D01*
X63627000Y-32128257D01*
X63627000Y-31976418D01*
X63641091Y-31964761D01*
X63678322Y-31927269D01*
X63716075Y-31890299D01*
X63721264Y-31884027D01*
X63819173Y-31763979D01*
X63848425Y-31719951D01*
X63878268Y-31676367D01*
X63882139Y-31669208D01*
X63882140Y-31669207D01*
X63882142Y-31669203D01*
X63954867Y-31532426D01*
X63975001Y-31483576D01*
X63995818Y-31435008D01*
X63998225Y-31427232D01*
X64043000Y-31278930D01*
X64053269Y-31227071D01*
X64064249Y-31175411D01*
X64065101Y-31167315D01*
X64080218Y-31013142D01*
X64080218Y-31013130D01*
X64083000Y-30984883D01*
X64083000Y-30865194D01*
X64244374Y-30981619D01*
X64467476Y-30901776D01*
X64655264Y-30779869D01*
X64815661Y-30623669D01*
X64942503Y-30439178D01*
X65030915Y-30233487D01*
X65077500Y-30014500D01*
X65077500Y-29714500D01*
X64083000Y-29714500D01*
X64083000Y-29460500D01*
X65077500Y-29460500D01*
X65077500Y-29160500D01*
X65076968Y-29158000D01*
X71448032Y-29158000D01*
X71447500Y-29160500D01*
M02*
