%TF.GenerationSoftware,KiCad,Pcbnew,(5.1.2)-1*%
%TF.CreationDate,2019-08-09T17:52:41+09:00*%
%TF.ProjectId,Voyager4,566f7961-6765-4723-942e-6b696361645f,rev?*%
%TF.SameCoordinates,Original*%
%TF.FileFunction,Soldermask,Top*%
%TF.FilePolarity,Negative*%
%FSLAX46Y46*%
G04 Gerber Fmt 4.6, Leading zero omitted, Abs format (unit mm)*
G04 Created by KiCad (PCBNEW (5.1.2)-1) date 2019-08-09 17:52:41*
%MOMM*%
%LPD*%
G04 APERTURE LIST*
%ADD10C,4.800000*%
%ADD11C,2.150000*%
%ADD12C,3.400000*%
%ADD13C,4.387800*%
%ADD14C,0.100000*%
%ADD15C,0.970000*%
%ADD16O,1.400000X2.000000*%
%ADD17O,1.400000X2.500000*%
%ADD18C,1.050000*%
%ADD19R,0.700000X1.850000*%
%ADD20R,1.000000X1.850000*%
G04 APERTURE END LIST*
D10*
X51632800Y-27700799D03*
D11*
X63817500Y-39687500D03*
X53657500Y-39687500D03*
D12*
X54927500Y-37147500D03*
D13*
X58737500Y-39687500D03*
D12*
X61277500Y-34607500D03*
D14*
G36*
X60718769Y-49308668D02*
G01*
X60742309Y-49312160D01*
X60765394Y-49317942D01*
X60787801Y-49325959D01*
X60809314Y-49336134D01*
X60829726Y-49348369D01*
X60848840Y-49362545D01*
X60866473Y-49378527D01*
X60882455Y-49396160D01*
X60896631Y-49415274D01*
X60908866Y-49435686D01*
X60919041Y-49457199D01*
X60927058Y-49479606D01*
X60932840Y-49502691D01*
X60936332Y-49526231D01*
X60937500Y-49550000D01*
X60937500Y-50035000D01*
X60936332Y-50058769D01*
X60932840Y-50082309D01*
X60927058Y-50105394D01*
X60919041Y-50127801D01*
X60908866Y-50149314D01*
X60896631Y-50169726D01*
X60882455Y-50188840D01*
X60866473Y-50206473D01*
X60848840Y-50222455D01*
X60829726Y-50236631D01*
X60809314Y-50248866D01*
X60787801Y-50259041D01*
X60765394Y-50267058D01*
X60742309Y-50272840D01*
X60718769Y-50276332D01*
X60695000Y-50277500D01*
X59780000Y-50277500D01*
X59756231Y-50276332D01*
X59732691Y-50272840D01*
X59709606Y-50267058D01*
X59687199Y-50259041D01*
X59665686Y-50248866D01*
X59645274Y-50236631D01*
X59626160Y-50222455D01*
X59608527Y-50206473D01*
X59592545Y-50188840D01*
X59578369Y-50169726D01*
X59566134Y-50149314D01*
X59555959Y-50127801D01*
X59547942Y-50105394D01*
X59542160Y-50082309D01*
X59538668Y-50058769D01*
X59537500Y-50035000D01*
X59537500Y-49550000D01*
X59538668Y-49526231D01*
X59542160Y-49502691D01*
X59547942Y-49479606D01*
X59555959Y-49457199D01*
X59566134Y-49435686D01*
X59578369Y-49415274D01*
X59592545Y-49396160D01*
X59608527Y-49378527D01*
X59626160Y-49362545D01*
X59645274Y-49348369D01*
X59665686Y-49336134D01*
X59687199Y-49325959D01*
X59709606Y-49317942D01*
X59732691Y-49312160D01*
X59756231Y-49308668D01*
X59780000Y-49307500D01*
X60695000Y-49307500D01*
X60718769Y-49308668D01*
X60718769Y-49308668D01*
G37*
D15*
X60237500Y-49792500D03*
D14*
G36*
X57718769Y-49308668D02*
G01*
X57742309Y-49312160D01*
X57765394Y-49317942D01*
X57787801Y-49325959D01*
X57809314Y-49336134D01*
X57829726Y-49348369D01*
X57848840Y-49362545D01*
X57866473Y-49378527D01*
X57882455Y-49396160D01*
X57896631Y-49415274D01*
X57908866Y-49435686D01*
X57919041Y-49457199D01*
X57927058Y-49479606D01*
X57932840Y-49502691D01*
X57936332Y-49526231D01*
X57937500Y-49550000D01*
X57937500Y-50035000D01*
X57936332Y-50058769D01*
X57932840Y-50082309D01*
X57927058Y-50105394D01*
X57919041Y-50127801D01*
X57908866Y-50149314D01*
X57896631Y-50169726D01*
X57882455Y-50188840D01*
X57866473Y-50206473D01*
X57848840Y-50222455D01*
X57829726Y-50236631D01*
X57809314Y-50248866D01*
X57787801Y-50259041D01*
X57765394Y-50267058D01*
X57742309Y-50272840D01*
X57718769Y-50276332D01*
X57695000Y-50277500D01*
X56780000Y-50277500D01*
X56756231Y-50276332D01*
X56732691Y-50272840D01*
X56709606Y-50267058D01*
X56687199Y-50259041D01*
X56665686Y-50248866D01*
X56645274Y-50236631D01*
X56626160Y-50222455D01*
X56608527Y-50206473D01*
X56592545Y-50188840D01*
X56578369Y-50169726D01*
X56566134Y-50149314D01*
X56555959Y-50127801D01*
X56547942Y-50105394D01*
X56542160Y-50082309D01*
X56538668Y-50058769D01*
X56537500Y-50035000D01*
X56537500Y-49550000D01*
X56538668Y-49526231D01*
X56542160Y-49502691D01*
X56547942Y-49479606D01*
X56555959Y-49457199D01*
X56566134Y-49435686D01*
X56578369Y-49415274D01*
X56592545Y-49396160D01*
X56608527Y-49378527D01*
X56626160Y-49362545D01*
X56645274Y-49348369D01*
X56665686Y-49336134D01*
X56687199Y-49325959D01*
X56709606Y-49317942D01*
X56732691Y-49312160D01*
X56756231Y-49308668D01*
X56780000Y-49307500D01*
X57695000Y-49307500D01*
X57718769Y-49308668D01*
X57718769Y-49308668D01*
G37*
D15*
X57237500Y-49792500D03*
D14*
G36*
X60718769Y-48148668D02*
G01*
X60742309Y-48152160D01*
X60765394Y-48157942D01*
X60787801Y-48165959D01*
X60809314Y-48176134D01*
X60829726Y-48188369D01*
X60848840Y-48202545D01*
X60866473Y-48218527D01*
X60882455Y-48236160D01*
X60896631Y-48255274D01*
X60908866Y-48275686D01*
X60919041Y-48297199D01*
X60927058Y-48319606D01*
X60932840Y-48342691D01*
X60936332Y-48366231D01*
X60937500Y-48390000D01*
X60937500Y-48875000D01*
X60936332Y-48898769D01*
X60932840Y-48922309D01*
X60927058Y-48945394D01*
X60919041Y-48967801D01*
X60908866Y-48989314D01*
X60896631Y-49009726D01*
X60882455Y-49028840D01*
X60866473Y-49046473D01*
X60848840Y-49062455D01*
X60829726Y-49076631D01*
X60809314Y-49088866D01*
X60787801Y-49099041D01*
X60765394Y-49107058D01*
X60742309Y-49112840D01*
X60718769Y-49116332D01*
X60695000Y-49117500D01*
X59780000Y-49117500D01*
X59756231Y-49116332D01*
X59732691Y-49112840D01*
X59709606Y-49107058D01*
X59687199Y-49099041D01*
X59665686Y-49088866D01*
X59645274Y-49076631D01*
X59626160Y-49062455D01*
X59608527Y-49046473D01*
X59592545Y-49028840D01*
X59578369Y-49009726D01*
X59566134Y-48989314D01*
X59555959Y-48967801D01*
X59547942Y-48945394D01*
X59542160Y-48922309D01*
X59538668Y-48898769D01*
X59537500Y-48875000D01*
X59537500Y-48390000D01*
X59538668Y-48366231D01*
X59542160Y-48342691D01*
X59547942Y-48319606D01*
X59555959Y-48297199D01*
X59566134Y-48275686D01*
X59578369Y-48255274D01*
X59592545Y-48236160D01*
X59608527Y-48218527D01*
X59626160Y-48202545D01*
X59645274Y-48188369D01*
X59665686Y-48176134D01*
X59687199Y-48165959D01*
X59709606Y-48157942D01*
X59732691Y-48152160D01*
X59756231Y-48148668D01*
X59780000Y-48147500D01*
X60695000Y-48147500D01*
X60718769Y-48148668D01*
X60718769Y-48148668D01*
G37*
D15*
X60237500Y-48632500D03*
D14*
G36*
X57718769Y-48148668D02*
G01*
X57742309Y-48152160D01*
X57765394Y-48157942D01*
X57787801Y-48165959D01*
X57809314Y-48176134D01*
X57829726Y-48188369D01*
X57848840Y-48202545D01*
X57866473Y-48218527D01*
X57882455Y-48236160D01*
X57896631Y-48255274D01*
X57908866Y-48275686D01*
X57919041Y-48297199D01*
X57927058Y-48319606D01*
X57932840Y-48342691D01*
X57936332Y-48366231D01*
X57937500Y-48390000D01*
X57937500Y-48875000D01*
X57936332Y-48898769D01*
X57932840Y-48922309D01*
X57927058Y-48945394D01*
X57919041Y-48967801D01*
X57908866Y-48989314D01*
X57896631Y-49009726D01*
X57882455Y-49028840D01*
X57866473Y-49046473D01*
X57848840Y-49062455D01*
X57829726Y-49076631D01*
X57809314Y-49088866D01*
X57787801Y-49099041D01*
X57765394Y-49107058D01*
X57742309Y-49112840D01*
X57718769Y-49116332D01*
X57695000Y-49117500D01*
X56780000Y-49117500D01*
X56756231Y-49116332D01*
X56732691Y-49112840D01*
X56709606Y-49107058D01*
X56687199Y-49099041D01*
X56665686Y-49088866D01*
X56645274Y-49076631D01*
X56626160Y-49062455D01*
X56608527Y-49046473D01*
X56592545Y-49028840D01*
X56578369Y-49009726D01*
X56566134Y-48989314D01*
X56555959Y-48967801D01*
X56547942Y-48945394D01*
X56542160Y-48922309D01*
X56538668Y-48898769D01*
X56537500Y-48875000D01*
X56537500Y-48390000D01*
X56538668Y-48366231D01*
X56542160Y-48342691D01*
X56547942Y-48319606D01*
X56555959Y-48297199D01*
X56566134Y-48275686D01*
X56578369Y-48255274D01*
X56592545Y-48236160D01*
X56608527Y-48218527D01*
X56626160Y-48202545D01*
X56645274Y-48188369D01*
X56665686Y-48176134D01*
X56687199Y-48165959D01*
X56709606Y-48157942D01*
X56732691Y-48152160D01*
X56756231Y-48148668D01*
X56780000Y-48147500D01*
X57695000Y-48147500D01*
X57718769Y-48148668D01*
X57718769Y-48148668D01*
G37*
D15*
X57237500Y-48632500D03*
D11*
X82867500Y-58737500D03*
X72707500Y-58737500D03*
D12*
X73977500Y-56197500D03*
D13*
X77787500Y-58737500D03*
D12*
X80327500Y-53657500D03*
D11*
X63817500Y-58737500D03*
X53657500Y-58737500D03*
D12*
X54927500Y-56197500D03*
D13*
X58737500Y-58737500D03*
D12*
X61277500Y-53657500D03*
D11*
X82867500Y-39687500D03*
X72707500Y-39687500D03*
D12*
X73977500Y-37147500D03*
D13*
X77787500Y-39687500D03*
D12*
X80327500Y-34607500D03*
D16*
X63942500Y-26600000D03*
X72582500Y-26600000D03*
D17*
X63942500Y-30780000D03*
X72582500Y-30780000D03*
D18*
X71152500Y-30250000D03*
X65372500Y-30250000D03*
D19*
X68512500Y-31695000D03*
X68012500Y-31695000D03*
X67512500Y-31695000D03*
X69012500Y-31695000D03*
X67012500Y-31695000D03*
X69512500Y-31695000D03*
X66512500Y-31695000D03*
X70012500Y-31695000D03*
D20*
X70712500Y-31695000D03*
X65812500Y-31695000D03*
X71487500Y-31695000D03*
X65037500Y-31695000D03*
M02*
