%TF.GenerationSoftware,KiCad,Pcbnew,(5.1.2)-1*%
%TF.CreationDate,2019-08-09T17:52:41+09:00*%
%TF.ProjectId,Voyager4,566f7961-6765-4723-942e-6b696361645f,rev?*%
%TF.SameCoordinates,Original*%
%TF.FileFunction,Paste,Top*%
%TF.FilePolarity,Positive*%
%FSLAX46Y46*%
G04 Gerber Fmt 4.6, Leading zero omitted, Abs format (unit mm)*
G04 Created by KiCad (PCBNEW (5.1.2)-1) date 2019-08-09 17:52:41*
%MOMM*%
%LPD*%
G04 APERTURE LIST*
%ADD10C,0.100000*%
%ADD11C,0.570000*%
%ADD12R,0.300000X1.450000*%
%ADD13R,0.600000X1.450000*%
G04 APERTURE END LIST*
D10*
G36*
X60608967Y-49508186D02*
G01*
X60622800Y-49510238D01*
X60636366Y-49513636D01*
X60649532Y-49518347D01*
X60662174Y-49524326D01*
X60674169Y-49531516D01*
X60685401Y-49539846D01*
X60695763Y-49549237D01*
X60705154Y-49559599D01*
X60713484Y-49570831D01*
X60720674Y-49582826D01*
X60726653Y-49595468D01*
X60731364Y-49608634D01*
X60734762Y-49622200D01*
X60736814Y-49636033D01*
X60737500Y-49650000D01*
X60737500Y-49935000D01*
X60736814Y-49948967D01*
X60734762Y-49962800D01*
X60731364Y-49976366D01*
X60726653Y-49989532D01*
X60720674Y-50002174D01*
X60713484Y-50014169D01*
X60705154Y-50025401D01*
X60695763Y-50035763D01*
X60685401Y-50045154D01*
X60674169Y-50053484D01*
X60662174Y-50060674D01*
X60649532Y-50066653D01*
X60636366Y-50071364D01*
X60622800Y-50074762D01*
X60608967Y-50076814D01*
X60595000Y-50077500D01*
X59880000Y-50077500D01*
X59866033Y-50076814D01*
X59852200Y-50074762D01*
X59838634Y-50071364D01*
X59825468Y-50066653D01*
X59812826Y-50060674D01*
X59800831Y-50053484D01*
X59789599Y-50045154D01*
X59779237Y-50035763D01*
X59769846Y-50025401D01*
X59761516Y-50014169D01*
X59754326Y-50002174D01*
X59748347Y-49989532D01*
X59743636Y-49976366D01*
X59740238Y-49962800D01*
X59738186Y-49948967D01*
X59737500Y-49935000D01*
X59737500Y-49650000D01*
X59738186Y-49636033D01*
X59740238Y-49622200D01*
X59743636Y-49608634D01*
X59748347Y-49595468D01*
X59754326Y-49582826D01*
X59761516Y-49570831D01*
X59769846Y-49559599D01*
X59779237Y-49549237D01*
X59789599Y-49539846D01*
X59800831Y-49531516D01*
X59812826Y-49524326D01*
X59825468Y-49518347D01*
X59838634Y-49513636D01*
X59852200Y-49510238D01*
X59866033Y-49508186D01*
X59880000Y-49507500D01*
X60595000Y-49507500D01*
X60608967Y-49508186D01*
X60608967Y-49508186D01*
G37*
D11*
X60237500Y-49792500D03*
D10*
G36*
X57608967Y-49508186D02*
G01*
X57622800Y-49510238D01*
X57636366Y-49513636D01*
X57649532Y-49518347D01*
X57662174Y-49524326D01*
X57674169Y-49531516D01*
X57685401Y-49539846D01*
X57695763Y-49549237D01*
X57705154Y-49559599D01*
X57713484Y-49570831D01*
X57720674Y-49582826D01*
X57726653Y-49595468D01*
X57731364Y-49608634D01*
X57734762Y-49622200D01*
X57736814Y-49636033D01*
X57737500Y-49650000D01*
X57737500Y-49935000D01*
X57736814Y-49948967D01*
X57734762Y-49962800D01*
X57731364Y-49976366D01*
X57726653Y-49989532D01*
X57720674Y-50002174D01*
X57713484Y-50014169D01*
X57705154Y-50025401D01*
X57695763Y-50035763D01*
X57685401Y-50045154D01*
X57674169Y-50053484D01*
X57662174Y-50060674D01*
X57649532Y-50066653D01*
X57636366Y-50071364D01*
X57622800Y-50074762D01*
X57608967Y-50076814D01*
X57595000Y-50077500D01*
X56880000Y-50077500D01*
X56866033Y-50076814D01*
X56852200Y-50074762D01*
X56838634Y-50071364D01*
X56825468Y-50066653D01*
X56812826Y-50060674D01*
X56800831Y-50053484D01*
X56789599Y-50045154D01*
X56779237Y-50035763D01*
X56769846Y-50025401D01*
X56761516Y-50014169D01*
X56754326Y-50002174D01*
X56748347Y-49989532D01*
X56743636Y-49976366D01*
X56740238Y-49962800D01*
X56738186Y-49948967D01*
X56737500Y-49935000D01*
X56737500Y-49650000D01*
X56738186Y-49636033D01*
X56740238Y-49622200D01*
X56743636Y-49608634D01*
X56748347Y-49595468D01*
X56754326Y-49582826D01*
X56761516Y-49570831D01*
X56769846Y-49559599D01*
X56779237Y-49549237D01*
X56789599Y-49539846D01*
X56800831Y-49531516D01*
X56812826Y-49524326D01*
X56825468Y-49518347D01*
X56838634Y-49513636D01*
X56852200Y-49510238D01*
X56866033Y-49508186D01*
X56880000Y-49507500D01*
X57595000Y-49507500D01*
X57608967Y-49508186D01*
X57608967Y-49508186D01*
G37*
D11*
X57237500Y-49792500D03*
D10*
G36*
X60608967Y-48348186D02*
G01*
X60622800Y-48350238D01*
X60636366Y-48353636D01*
X60649532Y-48358347D01*
X60662174Y-48364326D01*
X60674169Y-48371516D01*
X60685401Y-48379846D01*
X60695763Y-48389237D01*
X60705154Y-48399599D01*
X60713484Y-48410831D01*
X60720674Y-48422826D01*
X60726653Y-48435468D01*
X60731364Y-48448634D01*
X60734762Y-48462200D01*
X60736814Y-48476033D01*
X60737500Y-48490000D01*
X60737500Y-48775000D01*
X60736814Y-48788967D01*
X60734762Y-48802800D01*
X60731364Y-48816366D01*
X60726653Y-48829532D01*
X60720674Y-48842174D01*
X60713484Y-48854169D01*
X60705154Y-48865401D01*
X60695763Y-48875763D01*
X60685401Y-48885154D01*
X60674169Y-48893484D01*
X60662174Y-48900674D01*
X60649532Y-48906653D01*
X60636366Y-48911364D01*
X60622800Y-48914762D01*
X60608967Y-48916814D01*
X60595000Y-48917500D01*
X59880000Y-48917500D01*
X59866033Y-48916814D01*
X59852200Y-48914762D01*
X59838634Y-48911364D01*
X59825468Y-48906653D01*
X59812826Y-48900674D01*
X59800831Y-48893484D01*
X59789599Y-48885154D01*
X59779237Y-48875763D01*
X59769846Y-48865401D01*
X59761516Y-48854169D01*
X59754326Y-48842174D01*
X59748347Y-48829532D01*
X59743636Y-48816366D01*
X59740238Y-48802800D01*
X59738186Y-48788967D01*
X59737500Y-48775000D01*
X59737500Y-48490000D01*
X59738186Y-48476033D01*
X59740238Y-48462200D01*
X59743636Y-48448634D01*
X59748347Y-48435468D01*
X59754326Y-48422826D01*
X59761516Y-48410831D01*
X59769846Y-48399599D01*
X59779237Y-48389237D01*
X59789599Y-48379846D01*
X59800831Y-48371516D01*
X59812826Y-48364326D01*
X59825468Y-48358347D01*
X59838634Y-48353636D01*
X59852200Y-48350238D01*
X59866033Y-48348186D01*
X59880000Y-48347500D01*
X60595000Y-48347500D01*
X60608967Y-48348186D01*
X60608967Y-48348186D01*
G37*
D11*
X60237500Y-48632500D03*
D10*
G36*
X57608967Y-48348186D02*
G01*
X57622800Y-48350238D01*
X57636366Y-48353636D01*
X57649532Y-48358347D01*
X57662174Y-48364326D01*
X57674169Y-48371516D01*
X57685401Y-48379846D01*
X57695763Y-48389237D01*
X57705154Y-48399599D01*
X57713484Y-48410831D01*
X57720674Y-48422826D01*
X57726653Y-48435468D01*
X57731364Y-48448634D01*
X57734762Y-48462200D01*
X57736814Y-48476033D01*
X57737500Y-48490000D01*
X57737500Y-48775000D01*
X57736814Y-48788967D01*
X57734762Y-48802800D01*
X57731364Y-48816366D01*
X57726653Y-48829532D01*
X57720674Y-48842174D01*
X57713484Y-48854169D01*
X57705154Y-48865401D01*
X57695763Y-48875763D01*
X57685401Y-48885154D01*
X57674169Y-48893484D01*
X57662174Y-48900674D01*
X57649532Y-48906653D01*
X57636366Y-48911364D01*
X57622800Y-48914762D01*
X57608967Y-48916814D01*
X57595000Y-48917500D01*
X56880000Y-48917500D01*
X56866033Y-48916814D01*
X56852200Y-48914762D01*
X56838634Y-48911364D01*
X56825468Y-48906653D01*
X56812826Y-48900674D01*
X56800831Y-48893484D01*
X56789599Y-48885154D01*
X56779237Y-48875763D01*
X56769846Y-48865401D01*
X56761516Y-48854169D01*
X56754326Y-48842174D01*
X56748347Y-48829532D01*
X56743636Y-48816366D01*
X56740238Y-48802800D01*
X56738186Y-48788967D01*
X56737500Y-48775000D01*
X56737500Y-48490000D01*
X56738186Y-48476033D01*
X56740238Y-48462200D01*
X56743636Y-48448634D01*
X56748347Y-48435468D01*
X56754326Y-48422826D01*
X56761516Y-48410831D01*
X56769846Y-48399599D01*
X56779237Y-48389237D01*
X56789599Y-48379846D01*
X56800831Y-48371516D01*
X56812826Y-48364326D01*
X56825468Y-48358347D01*
X56838634Y-48353636D01*
X56852200Y-48350238D01*
X56866033Y-48348186D01*
X56880000Y-48347500D01*
X57595000Y-48347500D01*
X57608967Y-48348186D01*
X57608967Y-48348186D01*
G37*
D11*
X57237500Y-48632500D03*
D12*
X68512500Y-31695000D03*
X68012500Y-31695000D03*
X67512500Y-31695000D03*
X69012500Y-31695000D03*
X67012500Y-31695000D03*
X69512500Y-31695000D03*
X66512500Y-31695000D03*
X70012500Y-31695000D03*
D13*
X70712500Y-31695000D03*
X65812500Y-31695000D03*
X71487500Y-31695000D03*
X65037500Y-31695000D03*
M02*
