%TF.GenerationSoftware,KiCad,Pcbnew,(5.1.2)-1*%
%TF.CreationDate,2019-08-09T17:52:41+09:00*%
%TF.ProjectId,Voyager4,566f7961-6765-4723-942e-6b696361645f,rev?*%
%TF.SameCoordinates,Original*%
%TF.FileFunction,Legend,Top*%
%TF.FilePolarity,Positive*%
%FSLAX46Y46*%
G04 Gerber Fmt 4.6, Leading zero omitted, Abs format (unit mm)*
G04 Created by KiCad (PCBNEW (5.1.2)-1) date 2019-08-09 17:52:41*
%MOMM*%
%LPD*%
G04 APERTURE LIST*
%ADD10C,0.600000*%
%ADD11C,0.450000*%
%ADD12C,0.150000*%
%ADD13C,0.300000*%
%ADD14C,4.800000*%
%ADD15C,2.150000*%
%ADD16C,3.400000*%
%ADD17C,4.387800*%
%ADD18C,0.100000*%
%ADD19C,0.970000*%
%ADD20O,1.400000X2.000000*%
%ADD21O,1.400000X2.500000*%
%ADD22C,1.050000*%
%ADD23R,0.700000X1.850000*%
%ADD24R,1.000000X1.850000*%
G04 APERTURE END LIST*
D10*
X75619235Y-62706250D02*
G75*
G03X75619235Y-62706250I-212985J0D01*
G01*
X80381735Y-62706250D02*
G75*
G03X80381735Y-62706250I-212985J0D01*
G01*
X78794235Y-62706250D02*
G75*
G03X78794235Y-62706250I-212985J0D01*
G01*
X77206735Y-62706250D02*
G75*
G03X77206735Y-62706250I-212985J0D01*
G01*
X60537985Y-62706250D02*
G75*
G03X60537985Y-62706250I-212985J0D01*
G01*
X57362985Y-62706250D02*
G75*
G03X57362985Y-62706250I-212985J0D01*
G01*
X58950485Y-62706250D02*
G75*
G03X58950485Y-62706250I-212985J0D01*
G01*
X78794235Y-43656250D02*
G75*
G03X78794235Y-43656250I-212985J0D01*
G01*
X77206735Y-43656250D02*
G75*
G03X77206735Y-43656250I-212985J0D01*
G01*
X58950485Y-43656250D02*
G75*
G03X58950485Y-43656250I-212985J0D01*
G01*
X69850000Y-47625000D02*
X69850000Y-33337500D01*
X85725000Y-47625000D02*
X69850000Y-47625000D01*
X85725000Y-31750000D02*
X85725000Y-47625000D01*
X72231250Y-31750000D02*
X85725000Y-31750000D01*
X66675000Y-33337500D02*
X66675000Y-47625000D01*
X50800000Y-31750000D02*
X64293750Y-31750000D01*
X50800000Y-47625000D02*
X50800000Y-31750000D01*
X66675000Y-47625000D02*
X50800000Y-47625000D01*
X50800000Y-50800000D02*
X66675000Y-50800000D01*
X50800000Y-66675000D02*
X50800000Y-50800000D01*
X66675000Y-66675000D02*
X50800000Y-66675000D01*
X66675000Y-50800000D02*
X66675000Y-66675000D01*
X85725000Y-50800000D02*
X69850000Y-50800000D01*
X85725000Y-66675000D02*
X85725000Y-50800000D01*
X69850000Y-66675000D02*
X85725000Y-66675000D01*
X69850000Y-50800000D02*
X69850000Y-66675000D01*
D11*
X70643750Y-65881250D02*
X70643750Y-51593750D01*
X84931250Y-65881250D02*
X70643750Y-65881250D01*
X84931250Y-51593750D02*
X84931250Y-65881250D01*
X70643750Y-51593750D02*
X84931250Y-51593750D01*
X51593750Y-51593750D02*
X65881250Y-51593750D01*
X51593750Y-65881250D02*
X51593750Y-51593750D01*
X65881250Y-65881250D02*
X51593750Y-65881250D01*
X65881250Y-51593750D02*
X65881250Y-65881250D01*
X51593750Y-32543750D02*
X65881250Y-32543750D01*
X51593750Y-46831250D02*
X51593750Y-32543750D01*
X65881250Y-46831250D02*
X51593750Y-46831250D01*
X65881250Y-32543750D02*
X65881250Y-46831250D01*
X70643750Y-46831250D02*
X70643750Y-32543750D01*
X84931250Y-46831250D02*
X70643750Y-46831250D01*
X84931250Y-32543750D02*
X84931250Y-46831250D01*
X70643750Y-32543750D02*
X84931250Y-32543750D01*
D12*
X83343750Y-45243750D02*
X72231250Y-45243750D01*
X83343750Y-34131250D02*
X83343750Y-45243750D01*
X72231250Y-34131250D02*
X83343750Y-34131250D01*
X72231250Y-45243750D02*
X72231250Y-34131250D01*
X53181250Y-45243750D02*
X64293750Y-45243750D01*
X53181250Y-34131250D02*
X53181250Y-45243750D01*
X64293750Y-34131250D02*
X53181250Y-34131250D01*
X64293750Y-45243750D02*
X64293750Y-34131250D01*
X53181250Y-53181250D02*
X64293750Y-53181250D01*
X53181250Y-64293750D02*
X53181250Y-53181250D01*
X64293750Y-64293750D02*
X53181250Y-64293750D01*
X64293750Y-53181250D02*
X64293750Y-64293750D01*
X72231250Y-64293750D02*
X72231250Y-53181250D01*
X83343750Y-64293750D02*
X72231250Y-64293750D01*
X83343750Y-53181250D02*
X83343750Y-64293750D01*
X72231250Y-53181250D02*
X83343750Y-53181250D01*
D13*
X71437500Y-65087500D02*
X71437500Y-52387500D01*
X84137500Y-65087500D02*
X71437500Y-65087500D01*
X84137500Y-52387500D02*
X84137500Y-65087500D01*
X71437500Y-52387500D02*
X84137500Y-52387500D01*
X52387500Y-52387500D02*
X65087500Y-52387500D01*
X52387500Y-65087500D02*
X52387500Y-52387500D01*
X65087500Y-65087500D02*
X52387500Y-65087500D01*
X65087500Y-52387500D02*
X65087500Y-65087500D01*
X52387500Y-33337500D02*
X65087500Y-33337500D01*
X52387500Y-46037500D02*
X52387500Y-33337500D01*
X65087500Y-46037500D02*
X52387500Y-46037500D01*
X65087500Y-33337500D02*
X65087500Y-46037500D01*
X71437500Y-46037500D02*
X71437500Y-33337500D01*
X84137500Y-46037500D02*
X71437500Y-46037500D01*
X84137500Y-33337500D02*
X84137500Y-46037500D01*
X71437500Y-33337500D02*
X84137500Y-33337500D01*
D12*
X59091053Y-49212500D02*
G75*
G03X59091053Y-49212500I-353553J0D01*
G01*
X57337500Y-49062500D02*
X57337500Y-49362500D01*
X60137500Y-49062500D02*
X60137500Y-49362500D01*
X59487500Y-50162500D02*
X57987500Y-50162500D01*
X57987500Y-48262500D02*
X59487500Y-48262500D01*
X53435416Y-49617261D02*
X53578273Y-49664880D01*
X53816369Y-49664880D01*
X53911607Y-49617261D01*
X53959226Y-49569642D01*
X54006845Y-49474404D01*
X54006845Y-49379166D01*
X53959226Y-49283928D01*
X53911607Y-49236309D01*
X53816369Y-49188690D01*
X53625892Y-49141071D01*
X53530654Y-49093452D01*
X53483035Y-49045833D01*
X53435416Y-48950595D01*
X53435416Y-48855357D01*
X53483035Y-48760119D01*
X53530654Y-48712500D01*
X53625892Y-48664880D01*
X53863988Y-48664880D01*
X54006845Y-48712500D01*
X54340178Y-48664880D02*
X54578273Y-49664880D01*
X54768750Y-48950595D01*
X54959226Y-49664880D01*
X55197321Y-48664880D01*
X56102083Y-49664880D02*
X55530654Y-49664880D01*
X55816369Y-49664880D02*
X55816369Y-48664880D01*
X55721130Y-48807738D01*
X55625892Y-48902976D01*
X55530654Y-48950595D01*
X66524404Y-29614880D02*
X66524404Y-30424404D01*
X66572023Y-30519642D01*
X66619642Y-30567261D01*
X66714880Y-30614880D01*
X66905357Y-30614880D01*
X67000595Y-30567261D01*
X67048214Y-30519642D01*
X67095833Y-30424404D01*
X67095833Y-29614880D01*
X67524404Y-30567261D02*
X67667261Y-30614880D01*
X67905357Y-30614880D01*
X68000595Y-30567261D01*
X68048214Y-30519642D01*
X68095833Y-30424404D01*
X68095833Y-30329166D01*
X68048214Y-30233928D01*
X68000595Y-30186309D01*
X67905357Y-30138690D01*
X67714880Y-30091071D01*
X67619642Y-30043452D01*
X67572023Y-29995833D01*
X67524404Y-29900595D01*
X67524404Y-29805357D01*
X67572023Y-29710119D01*
X67619642Y-29662500D01*
X67714880Y-29614880D01*
X67952976Y-29614880D01*
X68095833Y-29662500D01*
X68857738Y-30091071D02*
X69000595Y-30138690D01*
X69048214Y-30186309D01*
X69095833Y-30281547D01*
X69095833Y-30424404D01*
X69048214Y-30519642D01*
X69000595Y-30567261D01*
X68905357Y-30614880D01*
X68524404Y-30614880D01*
X68524404Y-29614880D01*
X68857738Y-29614880D01*
X68952976Y-29662500D01*
X69000595Y-29710119D01*
X69048214Y-29805357D01*
X69048214Y-29900595D01*
X69000595Y-29995833D01*
X68952976Y-30043452D01*
X68857738Y-30091071D01*
X68524404Y-30091071D01*
X70048214Y-30614880D02*
X69476785Y-30614880D01*
X69762500Y-30614880D02*
X69762500Y-29614880D01*
X69667261Y-29757738D01*
X69572023Y-29852976D01*
X69476785Y-29900595D01*
%LPC*%
D14*
X51632800Y-27700799D03*
D15*
X63817500Y-39687500D03*
X53657500Y-39687500D03*
D16*
X54927500Y-37147500D03*
D17*
X58737500Y-39687500D03*
D16*
X61277500Y-34607500D03*
D18*
G36*
X60718769Y-49308668D02*
G01*
X60742309Y-49312160D01*
X60765394Y-49317942D01*
X60787801Y-49325959D01*
X60809314Y-49336134D01*
X60829726Y-49348369D01*
X60848840Y-49362545D01*
X60866473Y-49378527D01*
X60882455Y-49396160D01*
X60896631Y-49415274D01*
X60908866Y-49435686D01*
X60919041Y-49457199D01*
X60927058Y-49479606D01*
X60932840Y-49502691D01*
X60936332Y-49526231D01*
X60937500Y-49550000D01*
X60937500Y-50035000D01*
X60936332Y-50058769D01*
X60932840Y-50082309D01*
X60927058Y-50105394D01*
X60919041Y-50127801D01*
X60908866Y-50149314D01*
X60896631Y-50169726D01*
X60882455Y-50188840D01*
X60866473Y-50206473D01*
X60848840Y-50222455D01*
X60829726Y-50236631D01*
X60809314Y-50248866D01*
X60787801Y-50259041D01*
X60765394Y-50267058D01*
X60742309Y-50272840D01*
X60718769Y-50276332D01*
X60695000Y-50277500D01*
X59780000Y-50277500D01*
X59756231Y-50276332D01*
X59732691Y-50272840D01*
X59709606Y-50267058D01*
X59687199Y-50259041D01*
X59665686Y-50248866D01*
X59645274Y-50236631D01*
X59626160Y-50222455D01*
X59608527Y-50206473D01*
X59592545Y-50188840D01*
X59578369Y-50169726D01*
X59566134Y-50149314D01*
X59555959Y-50127801D01*
X59547942Y-50105394D01*
X59542160Y-50082309D01*
X59538668Y-50058769D01*
X59537500Y-50035000D01*
X59537500Y-49550000D01*
X59538668Y-49526231D01*
X59542160Y-49502691D01*
X59547942Y-49479606D01*
X59555959Y-49457199D01*
X59566134Y-49435686D01*
X59578369Y-49415274D01*
X59592545Y-49396160D01*
X59608527Y-49378527D01*
X59626160Y-49362545D01*
X59645274Y-49348369D01*
X59665686Y-49336134D01*
X59687199Y-49325959D01*
X59709606Y-49317942D01*
X59732691Y-49312160D01*
X59756231Y-49308668D01*
X59780000Y-49307500D01*
X60695000Y-49307500D01*
X60718769Y-49308668D01*
X60718769Y-49308668D01*
G37*
D19*
X60237500Y-49792500D03*
D18*
G36*
X57718769Y-49308668D02*
G01*
X57742309Y-49312160D01*
X57765394Y-49317942D01*
X57787801Y-49325959D01*
X57809314Y-49336134D01*
X57829726Y-49348369D01*
X57848840Y-49362545D01*
X57866473Y-49378527D01*
X57882455Y-49396160D01*
X57896631Y-49415274D01*
X57908866Y-49435686D01*
X57919041Y-49457199D01*
X57927058Y-49479606D01*
X57932840Y-49502691D01*
X57936332Y-49526231D01*
X57937500Y-49550000D01*
X57937500Y-50035000D01*
X57936332Y-50058769D01*
X57932840Y-50082309D01*
X57927058Y-50105394D01*
X57919041Y-50127801D01*
X57908866Y-50149314D01*
X57896631Y-50169726D01*
X57882455Y-50188840D01*
X57866473Y-50206473D01*
X57848840Y-50222455D01*
X57829726Y-50236631D01*
X57809314Y-50248866D01*
X57787801Y-50259041D01*
X57765394Y-50267058D01*
X57742309Y-50272840D01*
X57718769Y-50276332D01*
X57695000Y-50277500D01*
X56780000Y-50277500D01*
X56756231Y-50276332D01*
X56732691Y-50272840D01*
X56709606Y-50267058D01*
X56687199Y-50259041D01*
X56665686Y-50248866D01*
X56645274Y-50236631D01*
X56626160Y-50222455D01*
X56608527Y-50206473D01*
X56592545Y-50188840D01*
X56578369Y-50169726D01*
X56566134Y-50149314D01*
X56555959Y-50127801D01*
X56547942Y-50105394D01*
X56542160Y-50082309D01*
X56538668Y-50058769D01*
X56537500Y-50035000D01*
X56537500Y-49550000D01*
X56538668Y-49526231D01*
X56542160Y-49502691D01*
X56547942Y-49479606D01*
X56555959Y-49457199D01*
X56566134Y-49435686D01*
X56578369Y-49415274D01*
X56592545Y-49396160D01*
X56608527Y-49378527D01*
X56626160Y-49362545D01*
X56645274Y-49348369D01*
X56665686Y-49336134D01*
X56687199Y-49325959D01*
X56709606Y-49317942D01*
X56732691Y-49312160D01*
X56756231Y-49308668D01*
X56780000Y-49307500D01*
X57695000Y-49307500D01*
X57718769Y-49308668D01*
X57718769Y-49308668D01*
G37*
D19*
X57237500Y-49792500D03*
D18*
G36*
X60718769Y-48148668D02*
G01*
X60742309Y-48152160D01*
X60765394Y-48157942D01*
X60787801Y-48165959D01*
X60809314Y-48176134D01*
X60829726Y-48188369D01*
X60848840Y-48202545D01*
X60866473Y-48218527D01*
X60882455Y-48236160D01*
X60896631Y-48255274D01*
X60908866Y-48275686D01*
X60919041Y-48297199D01*
X60927058Y-48319606D01*
X60932840Y-48342691D01*
X60936332Y-48366231D01*
X60937500Y-48390000D01*
X60937500Y-48875000D01*
X60936332Y-48898769D01*
X60932840Y-48922309D01*
X60927058Y-48945394D01*
X60919041Y-48967801D01*
X60908866Y-48989314D01*
X60896631Y-49009726D01*
X60882455Y-49028840D01*
X60866473Y-49046473D01*
X60848840Y-49062455D01*
X60829726Y-49076631D01*
X60809314Y-49088866D01*
X60787801Y-49099041D01*
X60765394Y-49107058D01*
X60742309Y-49112840D01*
X60718769Y-49116332D01*
X60695000Y-49117500D01*
X59780000Y-49117500D01*
X59756231Y-49116332D01*
X59732691Y-49112840D01*
X59709606Y-49107058D01*
X59687199Y-49099041D01*
X59665686Y-49088866D01*
X59645274Y-49076631D01*
X59626160Y-49062455D01*
X59608527Y-49046473D01*
X59592545Y-49028840D01*
X59578369Y-49009726D01*
X59566134Y-48989314D01*
X59555959Y-48967801D01*
X59547942Y-48945394D01*
X59542160Y-48922309D01*
X59538668Y-48898769D01*
X59537500Y-48875000D01*
X59537500Y-48390000D01*
X59538668Y-48366231D01*
X59542160Y-48342691D01*
X59547942Y-48319606D01*
X59555959Y-48297199D01*
X59566134Y-48275686D01*
X59578369Y-48255274D01*
X59592545Y-48236160D01*
X59608527Y-48218527D01*
X59626160Y-48202545D01*
X59645274Y-48188369D01*
X59665686Y-48176134D01*
X59687199Y-48165959D01*
X59709606Y-48157942D01*
X59732691Y-48152160D01*
X59756231Y-48148668D01*
X59780000Y-48147500D01*
X60695000Y-48147500D01*
X60718769Y-48148668D01*
X60718769Y-48148668D01*
G37*
D19*
X60237500Y-48632500D03*
D18*
G36*
X57718769Y-48148668D02*
G01*
X57742309Y-48152160D01*
X57765394Y-48157942D01*
X57787801Y-48165959D01*
X57809314Y-48176134D01*
X57829726Y-48188369D01*
X57848840Y-48202545D01*
X57866473Y-48218527D01*
X57882455Y-48236160D01*
X57896631Y-48255274D01*
X57908866Y-48275686D01*
X57919041Y-48297199D01*
X57927058Y-48319606D01*
X57932840Y-48342691D01*
X57936332Y-48366231D01*
X57937500Y-48390000D01*
X57937500Y-48875000D01*
X57936332Y-48898769D01*
X57932840Y-48922309D01*
X57927058Y-48945394D01*
X57919041Y-48967801D01*
X57908866Y-48989314D01*
X57896631Y-49009726D01*
X57882455Y-49028840D01*
X57866473Y-49046473D01*
X57848840Y-49062455D01*
X57829726Y-49076631D01*
X57809314Y-49088866D01*
X57787801Y-49099041D01*
X57765394Y-49107058D01*
X57742309Y-49112840D01*
X57718769Y-49116332D01*
X57695000Y-49117500D01*
X56780000Y-49117500D01*
X56756231Y-49116332D01*
X56732691Y-49112840D01*
X56709606Y-49107058D01*
X56687199Y-49099041D01*
X56665686Y-49088866D01*
X56645274Y-49076631D01*
X56626160Y-49062455D01*
X56608527Y-49046473D01*
X56592545Y-49028840D01*
X56578369Y-49009726D01*
X56566134Y-48989314D01*
X56555959Y-48967801D01*
X56547942Y-48945394D01*
X56542160Y-48922309D01*
X56538668Y-48898769D01*
X56537500Y-48875000D01*
X56537500Y-48390000D01*
X56538668Y-48366231D01*
X56542160Y-48342691D01*
X56547942Y-48319606D01*
X56555959Y-48297199D01*
X56566134Y-48275686D01*
X56578369Y-48255274D01*
X56592545Y-48236160D01*
X56608527Y-48218527D01*
X56626160Y-48202545D01*
X56645274Y-48188369D01*
X56665686Y-48176134D01*
X56687199Y-48165959D01*
X56709606Y-48157942D01*
X56732691Y-48152160D01*
X56756231Y-48148668D01*
X56780000Y-48147500D01*
X57695000Y-48147500D01*
X57718769Y-48148668D01*
X57718769Y-48148668D01*
G37*
D19*
X57237500Y-48632500D03*
D15*
X82867500Y-58737500D03*
X72707500Y-58737500D03*
D16*
X73977500Y-56197500D03*
D17*
X77787500Y-58737500D03*
D16*
X80327500Y-53657500D03*
D15*
X63817500Y-58737500D03*
X53657500Y-58737500D03*
D16*
X54927500Y-56197500D03*
D17*
X58737500Y-58737500D03*
D16*
X61277500Y-53657500D03*
D15*
X82867500Y-39687500D03*
X72707500Y-39687500D03*
D16*
X73977500Y-37147500D03*
D17*
X77787500Y-39687500D03*
D16*
X80327500Y-34607500D03*
D20*
X63942500Y-26600000D03*
X72582500Y-26600000D03*
D21*
X63942500Y-30780000D03*
X72582500Y-30780000D03*
D22*
X71152500Y-30250000D03*
X65372500Y-30250000D03*
D23*
X68512500Y-31695000D03*
X68012500Y-31695000D03*
X67512500Y-31695000D03*
X69012500Y-31695000D03*
X67012500Y-31695000D03*
X69512500Y-31695000D03*
X66512500Y-31695000D03*
X70012500Y-31695000D03*
D24*
X70712500Y-31695000D03*
X65812500Y-31695000D03*
X71487500Y-31695000D03*
X65037500Y-31695000D03*
M02*
