%TF.GenerationSoftware,KiCad,Pcbnew,(5.0.0)*%
%TF.CreationDate,2019-01-27T02:24:25-08:00*%
%TF.ProjectId,Voyager4,566F7961676572342E6B696361645F70,rev?*%
%TF.SameCoordinates,Original*%
%TF.FileFunction,Legend,Top*%
%TF.FilePolarity,Positive*%
%FSLAX46Y46*%
G04 Gerber Fmt 4.6, Leading zero omitted, Abs format (unit mm)*
G04 Created by KiCad (PCBNEW (5.0.0)) date 01/27/19 02:24:25*
%MOMM*%
%LPD*%
G01*
G04 APERTURE LIST*
%ADD10C,0.300000*%
%ADD11C,0.010000*%
%ADD12C,4.387800*%
%ADD13C,2.150000*%
%ADD14O,1.400000X2.000000*%
%ADD15O,1.400000X2.500000*%
%ADD16C,1.050000*%
G04 APERTURE END LIST*
D10*
X73634571Y-48383857D02*
X73634571Y-49183857D01*
X73348857Y-47926714D02*
X73063142Y-48783857D01*
X73806000Y-48783857D01*
X53206250Y-47952976D02*
X54206250Y-50252976D01*
X55206250Y-47952976D01*
X56777678Y-47952976D02*
X57349107Y-47952976D01*
X57634821Y-48062500D01*
X57920535Y-48281547D01*
X58063392Y-48719642D01*
X58063392Y-49486309D01*
X57920535Y-49924404D01*
X57634821Y-50143452D01*
X57349107Y-50252976D01*
X56777678Y-50252976D01*
X56491964Y-50143452D01*
X56206250Y-49924404D01*
X56063392Y-49486309D01*
X56063392Y-48719642D01*
X56206250Y-48281547D01*
X56491964Y-48062500D01*
X56777678Y-47952976D01*
X59920535Y-49157738D02*
X59920535Y-50252976D01*
X58920535Y-47952976D02*
X59920535Y-49157738D01*
X60920535Y-47952976D01*
X61777678Y-49595833D02*
X63206250Y-49595833D01*
X61491964Y-50252976D02*
X62491964Y-47952976D01*
X63491964Y-50252976D01*
X66063392Y-48062500D02*
X65777678Y-47952976D01*
X65349107Y-47952976D01*
X64920535Y-48062500D01*
X64634821Y-48281547D01*
X64491964Y-48500595D01*
X64349107Y-48938690D01*
X64349107Y-49267261D01*
X64491964Y-49705357D01*
X64634821Y-49924404D01*
X64920535Y-50143452D01*
X65349107Y-50252976D01*
X65634821Y-50252976D01*
X66063392Y-50143452D01*
X66206250Y-50033928D01*
X66206250Y-49267261D01*
X65634821Y-49267261D01*
X67491964Y-49048214D02*
X68491964Y-49048214D01*
X68920535Y-50252976D02*
X67491964Y-50252976D01*
X67491964Y-47952976D01*
X68920535Y-47952976D01*
X71920535Y-50252976D02*
X70920535Y-49157738D01*
X70206250Y-50252976D02*
X70206250Y-47952976D01*
X71349107Y-47952976D01*
X71634821Y-48062500D01*
X71777678Y-48172023D01*
X71920535Y-48391071D01*
X71920535Y-48719642D01*
X71777678Y-48938690D01*
X71634821Y-49048214D01*
X71349107Y-49157738D01*
X70206250Y-49157738D01*
D11*
G36*
X81114900Y-48348900D02*
X80791050Y-48348900D01*
X80791050Y-48025050D01*
X81114900Y-48025050D01*
X81114900Y-48348900D01*
X81114900Y-48348900D01*
G37*
X81114900Y-48348900D02*
X80791050Y-48348900D01*
X80791050Y-48025050D01*
X81114900Y-48025050D01*
X81114900Y-48348900D01*
G36*
X81438750Y-48977550D02*
X81114900Y-48977550D01*
X81114900Y-48672750D01*
X81438750Y-48672750D01*
X81438750Y-48977550D01*
X81438750Y-48977550D01*
G37*
X81438750Y-48977550D02*
X81114900Y-48977550D01*
X81114900Y-48672750D01*
X81438750Y-48672750D01*
X81438750Y-48977550D01*
G36*
X80791050Y-48977550D02*
X80486250Y-48977550D01*
X80486250Y-48672750D01*
X80791050Y-48672750D01*
X80791050Y-48977550D01*
X80791050Y-48977550D01*
G37*
X80791050Y-48977550D02*
X80486250Y-48977550D01*
X80486250Y-48672750D01*
X80791050Y-48672750D01*
X80791050Y-48977550D01*
G36*
X81743550Y-49625250D02*
X81438750Y-49625250D01*
X81438750Y-49301400D01*
X81743550Y-49301400D01*
X81743550Y-49625250D01*
X81743550Y-49625250D01*
G37*
X81743550Y-49625250D02*
X81438750Y-49625250D01*
X81438750Y-49301400D01*
X81743550Y-49301400D01*
X81743550Y-49625250D01*
G36*
X81114900Y-49625250D02*
X80791050Y-49625250D01*
X80791050Y-49301400D01*
X81114900Y-49301400D01*
X81114900Y-49625250D01*
X81114900Y-49625250D01*
G37*
X81114900Y-49625250D02*
X80791050Y-49625250D01*
X80791050Y-49301400D01*
X81114900Y-49301400D01*
X81114900Y-49625250D01*
G36*
X80486250Y-49625250D02*
X80162400Y-49625250D01*
X80162400Y-49301400D01*
X80486250Y-49301400D01*
X80486250Y-49625250D01*
X80486250Y-49625250D01*
G37*
X80486250Y-49625250D02*
X80162400Y-49625250D01*
X80162400Y-49301400D01*
X80486250Y-49301400D01*
X80486250Y-49625250D01*
G36*
X82067400Y-50253900D02*
X81743550Y-50253900D01*
X81743550Y-49930050D01*
X82067400Y-49930050D01*
X82067400Y-50253900D01*
X82067400Y-50253900D01*
G37*
X82067400Y-50253900D02*
X81743550Y-50253900D01*
X81743550Y-49930050D01*
X82067400Y-49930050D01*
X82067400Y-50253900D01*
G36*
X80162400Y-50253900D02*
X79838550Y-50253900D01*
X79838550Y-49930050D01*
X80162400Y-49930050D01*
X80162400Y-50253900D01*
X80162400Y-50253900D01*
G37*
X80162400Y-50253900D02*
X79838550Y-50253900D01*
X79838550Y-49930050D01*
X80162400Y-49930050D01*
X80162400Y-50253900D01*
G36*
X80965675Y-46834935D02*
X81064969Y-46836032D01*
X81154339Y-46839357D01*
X81236413Y-46845235D01*
X81313824Y-46853987D01*
X81389202Y-46865938D01*
X81465177Y-46881409D01*
X81544381Y-46900724D01*
X81580603Y-46910434D01*
X81747441Y-46962625D01*
X81909111Y-47026093D01*
X82065002Y-47100522D01*
X82214499Y-47185594D01*
X82356991Y-47280992D01*
X82478707Y-47375393D01*
X82604842Y-47487973D01*
X82722711Y-47609129D01*
X82831768Y-47738007D01*
X82931466Y-47873753D01*
X83021257Y-48015513D01*
X83100595Y-48162432D01*
X83168933Y-48313657D01*
X83225724Y-48468334D01*
X83264727Y-48602742D01*
X83291183Y-48714731D01*
X83311471Y-48820279D01*
X83326185Y-48923697D01*
X83335920Y-49029294D01*
X83341268Y-49141379D01*
X83341791Y-49161700D01*
X83339615Y-49336337D01*
X83325060Y-49508164D01*
X83298128Y-49677156D01*
X83258825Y-49843290D01*
X83207155Y-50006543D01*
X83155797Y-50137689D01*
X83133331Y-50189901D01*
X83114081Y-50233227D01*
X83096586Y-50270590D01*
X83079385Y-50304910D01*
X83061016Y-50339110D01*
X83040020Y-50376112D01*
X83016720Y-50415825D01*
X82921345Y-50564841D01*
X82817261Y-50704622D01*
X82704363Y-50835271D01*
X82582543Y-50956897D01*
X82451697Y-51069603D01*
X82311719Y-51173498D01*
X82165825Y-51266720D01*
X82123561Y-51291495D01*
X82086830Y-51312276D01*
X82052711Y-51330524D01*
X82018282Y-51347700D01*
X81980620Y-51365265D01*
X81936805Y-51384680D01*
X81887689Y-51405797D01*
X81810702Y-51437435D01*
X81739728Y-51463866D01*
X81670037Y-51486656D01*
X81596898Y-51507371D01*
X81530825Y-51523957D01*
X81399211Y-51552401D01*
X81273536Y-51572942D01*
X81150153Y-51586014D01*
X81025419Y-51592048D01*
X80952975Y-51592510D01*
X80912000Y-51592098D01*
X80873503Y-51591534D01*
X80839998Y-51590867D01*
X80814002Y-51590150D01*
X80798027Y-51589432D01*
X80797400Y-51589386D01*
X80624460Y-51570225D01*
X80454255Y-51539036D01*
X80287470Y-51496073D01*
X80124794Y-51441590D01*
X79966912Y-51375841D01*
X79814514Y-51299080D01*
X79668285Y-51211561D01*
X79547521Y-51127536D01*
X79409178Y-51016859D01*
X79280632Y-50898170D01*
X79162060Y-50771731D01*
X79053642Y-50637805D01*
X78955559Y-50496654D01*
X78867988Y-50348541D01*
X78791110Y-50193728D01*
X78725104Y-50032477D01*
X78670150Y-49865050D01*
X78660434Y-49830603D01*
X78639341Y-49749168D01*
X78622233Y-49672108D01*
X78608787Y-49596793D01*
X78598679Y-49520593D01*
X78591588Y-49440876D01*
X78587189Y-49355011D01*
X78585160Y-49260369D01*
X78584935Y-49215675D01*
X78585475Y-49171386D01*
X79011135Y-49171386D01*
X79011217Y-49235496D01*
X79012550Y-49299228D01*
X79015107Y-49359329D01*
X79018864Y-49412547D01*
X79021840Y-49441100D01*
X79047339Y-49598938D01*
X79084661Y-49752230D01*
X79133660Y-49900677D01*
X79194195Y-50043978D01*
X79266121Y-50181835D01*
X79349294Y-50313947D01*
X79443572Y-50440014D01*
X79548810Y-50559737D01*
X79566679Y-50578308D01*
X79674066Y-50679967D01*
X79790628Y-50774316D01*
X79914204Y-50859771D01*
X80042635Y-50934753D01*
X80079266Y-50953702D01*
X80138792Y-50983022D01*
X80190985Y-51007197D01*
X80239383Y-51027651D01*
X80287522Y-51045807D01*
X80338940Y-51063086D01*
X80391000Y-51079081D01*
X80542370Y-51118612D01*
X80690971Y-51146172D01*
X80837961Y-51161871D01*
X80984502Y-51165813D01*
X81131751Y-51158108D01*
X81184984Y-51152524D01*
X81334850Y-51129369D01*
X81478515Y-51095922D01*
X81617985Y-51051582D01*
X81755266Y-50995751D01*
X81832832Y-50958792D01*
X81969338Y-50884057D01*
X82096871Y-50801069D01*
X82216037Y-50709279D01*
X82327443Y-50608139D01*
X82431695Y-50497103D01*
X82529399Y-50375622D01*
X82616013Y-50251107D01*
X82636114Y-50218154D01*
X82659572Y-50176451D01*
X82684932Y-50128897D01*
X82710738Y-50078385D01*
X82735534Y-50027811D01*
X82757864Y-49980073D01*
X82776271Y-49938065D01*
X82787022Y-49911000D01*
X82837316Y-49757767D01*
X82875232Y-49603576D01*
X82900739Y-49448859D01*
X82913804Y-49294051D01*
X82914394Y-49139585D01*
X82902477Y-48985893D01*
X82878021Y-48833409D01*
X82870178Y-48796575D01*
X82843259Y-48687540D01*
X82812613Y-48586594D01*
X82776663Y-48489305D01*
X82733830Y-48391245D01*
X82703702Y-48329266D01*
X82628739Y-48194187D01*
X82543279Y-48065838D01*
X82447938Y-47944794D01*
X82343329Y-47831631D01*
X82230068Y-47726925D01*
X82108767Y-47631251D01*
X81980041Y-47545187D01*
X81844505Y-47469308D01*
X81729160Y-47415283D01*
X81591857Y-47362167D01*
X81453814Y-47320569D01*
X81313424Y-47290162D01*
X81169080Y-47270620D01*
X81019176Y-47261617D01*
X80968850Y-47260905D01*
X80810374Y-47266001D01*
X80657072Y-47282517D01*
X80508324Y-47310638D01*
X80363511Y-47350553D01*
X80222014Y-47402448D01*
X80083215Y-47466510D01*
X79946493Y-47542927D01*
X79865935Y-47594295D01*
X79754389Y-47675517D01*
X79647030Y-47767122D01*
X79545172Y-47867571D01*
X79450128Y-47975324D01*
X79363209Y-48088844D01*
X79285728Y-48206592D01*
X79218997Y-48327028D01*
X79191161Y-48385364D01*
X79142038Y-48501251D01*
X79101853Y-48612642D01*
X79069648Y-48723000D01*
X79044464Y-48835791D01*
X79025344Y-48954476D01*
X79018623Y-49009300D01*
X79014813Y-49055036D01*
X79012325Y-49110148D01*
X79011135Y-49171386D01*
X78585475Y-49171386D01*
X78586331Y-49101278D01*
X78591030Y-48996585D01*
X78599490Y-48898919D01*
X78612168Y-48805608D01*
X78629521Y-48713975D01*
X78652009Y-48621347D01*
X78680088Y-48525049D01*
X78714217Y-48422406D01*
X78726772Y-48387000D01*
X78789480Y-48231224D01*
X78863753Y-48080557D01*
X78949437Y-47935208D01*
X79046381Y-47795386D01*
X79154433Y-47661302D01*
X79273439Y-47533166D01*
X79403246Y-47411187D01*
X79488716Y-47339043D01*
X79557379Y-47286648D01*
X79635410Y-47232788D01*
X79719898Y-47179229D01*
X79807928Y-47127744D01*
X79896590Y-47080099D01*
X79982971Y-47038066D01*
X79987775Y-47035871D01*
X80043743Y-47011973D01*
X80108688Y-46986864D01*
X80179113Y-46961729D01*
X80251523Y-46937749D01*
X80322421Y-46916108D01*
X80388311Y-46897991D01*
X80413819Y-46891676D01*
X80488399Y-46875062D01*
X80559578Y-46861734D01*
X80629982Y-46851421D01*
X80702235Y-46843855D01*
X80778962Y-46838765D01*
X80862787Y-46835882D01*
X80956336Y-46834934D01*
X80965675Y-46834935D01*
X80965675Y-46834935D01*
G37*
X80965675Y-46834935D02*
X81064969Y-46836032D01*
X81154339Y-46839357D01*
X81236413Y-46845235D01*
X81313824Y-46853987D01*
X81389202Y-46865938D01*
X81465177Y-46881409D01*
X81544381Y-46900724D01*
X81580603Y-46910434D01*
X81747441Y-46962625D01*
X81909111Y-47026093D01*
X82065002Y-47100522D01*
X82214499Y-47185594D01*
X82356991Y-47280992D01*
X82478707Y-47375393D01*
X82604842Y-47487973D01*
X82722711Y-47609129D01*
X82831768Y-47738007D01*
X82931466Y-47873753D01*
X83021257Y-48015513D01*
X83100595Y-48162432D01*
X83168933Y-48313657D01*
X83225724Y-48468334D01*
X83264727Y-48602742D01*
X83291183Y-48714731D01*
X83311471Y-48820279D01*
X83326185Y-48923697D01*
X83335920Y-49029294D01*
X83341268Y-49141379D01*
X83341791Y-49161700D01*
X83339615Y-49336337D01*
X83325060Y-49508164D01*
X83298128Y-49677156D01*
X83258825Y-49843290D01*
X83207155Y-50006543D01*
X83155797Y-50137689D01*
X83133331Y-50189901D01*
X83114081Y-50233227D01*
X83096586Y-50270590D01*
X83079385Y-50304910D01*
X83061016Y-50339110D01*
X83040020Y-50376112D01*
X83016720Y-50415825D01*
X82921345Y-50564841D01*
X82817261Y-50704622D01*
X82704363Y-50835271D01*
X82582543Y-50956897D01*
X82451697Y-51069603D01*
X82311719Y-51173498D01*
X82165825Y-51266720D01*
X82123561Y-51291495D01*
X82086830Y-51312276D01*
X82052711Y-51330524D01*
X82018282Y-51347700D01*
X81980620Y-51365265D01*
X81936805Y-51384680D01*
X81887689Y-51405797D01*
X81810702Y-51437435D01*
X81739728Y-51463866D01*
X81670037Y-51486656D01*
X81596898Y-51507371D01*
X81530825Y-51523957D01*
X81399211Y-51552401D01*
X81273536Y-51572942D01*
X81150153Y-51586014D01*
X81025419Y-51592048D01*
X80952975Y-51592510D01*
X80912000Y-51592098D01*
X80873503Y-51591534D01*
X80839998Y-51590867D01*
X80814002Y-51590150D01*
X80798027Y-51589432D01*
X80797400Y-51589386D01*
X80624460Y-51570225D01*
X80454255Y-51539036D01*
X80287470Y-51496073D01*
X80124794Y-51441590D01*
X79966912Y-51375841D01*
X79814514Y-51299080D01*
X79668285Y-51211561D01*
X79547521Y-51127536D01*
X79409178Y-51016859D01*
X79280632Y-50898170D01*
X79162060Y-50771731D01*
X79053642Y-50637805D01*
X78955559Y-50496654D01*
X78867988Y-50348541D01*
X78791110Y-50193728D01*
X78725104Y-50032477D01*
X78670150Y-49865050D01*
X78660434Y-49830603D01*
X78639341Y-49749168D01*
X78622233Y-49672108D01*
X78608787Y-49596793D01*
X78598679Y-49520593D01*
X78591588Y-49440876D01*
X78587189Y-49355011D01*
X78585160Y-49260369D01*
X78584935Y-49215675D01*
X78585475Y-49171386D01*
X79011135Y-49171386D01*
X79011217Y-49235496D01*
X79012550Y-49299228D01*
X79015107Y-49359329D01*
X79018864Y-49412547D01*
X79021840Y-49441100D01*
X79047339Y-49598938D01*
X79084661Y-49752230D01*
X79133660Y-49900677D01*
X79194195Y-50043978D01*
X79266121Y-50181835D01*
X79349294Y-50313947D01*
X79443572Y-50440014D01*
X79548810Y-50559737D01*
X79566679Y-50578308D01*
X79674066Y-50679967D01*
X79790628Y-50774316D01*
X79914204Y-50859771D01*
X80042635Y-50934753D01*
X80079266Y-50953702D01*
X80138792Y-50983022D01*
X80190985Y-51007197D01*
X80239383Y-51027651D01*
X80287522Y-51045807D01*
X80338940Y-51063086D01*
X80391000Y-51079081D01*
X80542370Y-51118612D01*
X80690971Y-51146172D01*
X80837961Y-51161871D01*
X80984502Y-51165813D01*
X81131751Y-51158108D01*
X81184984Y-51152524D01*
X81334850Y-51129369D01*
X81478515Y-51095922D01*
X81617985Y-51051582D01*
X81755266Y-50995751D01*
X81832832Y-50958792D01*
X81969338Y-50884057D01*
X82096871Y-50801069D01*
X82216037Y-50709279D01*
X82327443Y-50608139D01*
X82431695Y-50497103D01*
X82529399Y-50375622D01*
X82616013Y-50251107D01*
X82636114Y-50218154D01*
X82659572Y-50176451D01*
X82684932Y-50128897D01*
X82710738Y-50078385D01*
X82735534Y-50027811D01*
X82757864Y-49980073D01*
X82776271Y-49938065D01*
X82787022Y-49911000D01*
X82837316Y-49757767D01*
X82875232Y-49603576D01*
X82900739Y-49448859D01*
X82913804Y-49294051D01*
X82914394Y-49139585D01*
X82902477Y-48985893D01*
X82878021Y-48833409D01*
X82870178Y-48796575D01*
X82843259Y-48687540D01*
X82812613Y-48586594D01*
X82776663Y-48489305D01*
X82733830Y-48391245D01*
X82703702Y-48329266D01*
X82628739Y-48194187D01*
X82543279Y-48065838D01*
X82447938Y-47944794D01*
X82343329Y-47831631D01*
X82230068Y-47726925D01*
X82108767Y-47631251D01*
X81980041Y-47545187D01*
X81844505Y-47469308D01*
X81729160Y-47415283D01*
X81591857Y-47362167D01*
X81453814Y-47320569D01*
X81313424Y-47290162D01*
X81169080Y-47270620D01*
X81019176Y-47261617D01*
X80968850Y-47260905D01*
X80810374Y-47266001D01*
X80657072Y-47282517D01*
X80508324Y-47310638D01*
X80363511Y-47350553D01*
X80222014Y-47402448D01*
X80083215Y-47466510D01*
X79946493Y-47542927D01*
X79865935Y-47594295D01*
X79754389Y-47675517D01*
X79647030Y-47767122D01*
X79545172Y-47867571D01*
X79450128Y-47975324D01*
X79363209Y-48088844D01*
X79285728Y-48206592D01*
X79218997Y-48327028D01*
X79191161Y-48385364D01*
X79142038Y-48501251D01*
X79101853Y-48612642D01*
X79069648Y-48723000D01*
X79044464Y-48835791D01*
X79025344Y-48954476D01*
X79018623Y-49009300D01*
X79014813Y-49055036D01*
X79012325Y-49110148D01*
X79011135Y-49171386D01*
X78585475Y-49171386D01*
X78586331Y-49101278D01*
X78591030Y-48996585D01*
X78599490Y-48898919D01*
X78612168Y-48805608D01*
X78629521Y-48713975D01*
X78652009Y-48621347D01*
X78680088Y-48525049D01*
X78714217Y-48422406D01*
X78726772Y-48387000D01*
X78789480Y-48231224D01*
X78863753Y-48080557D01*
X78949437Y-47935208D01*
X79046381Y-47795386D01*
X79154433Y-47661302D01*
X79273439Y-47533166D01*
X79403246Y-47411187D01*
X79488716Y-47339043D01*
X79557379Y-47286648D01*
X79635410Y-47232788D01*
X79719898Y-47179229D01*
X79807928Y-47127744D01*
X79896590Y-47080099D01*
X79982971Y-47038066D01*
X79987775Y-47035871D01*
X80043743Y-47011973D01*
X80108688Y-46986864D01*
X80179113Y-46961729D01*
X80251523Y-46937749D01*
X80322421Y-46916108D01*
X80388311Y-46897991D01*
X80413819Y-46891676D01*
X80488399Y-46875062D01*
X80559578Y-46861734D01*
X80629982Y-46851421D01*
X80702235Y-46843855D01*
X80778962Y-46838765D01*
X80862787Y-46835882D01*
X80956336Y-46834934D01*
X80965675Y-46834935D01*
%LPC*%
D12*
X58737500Y-58737500D03*
D13*
X53657500Y-58737500D03*
X63817500Y-58737500D03*
D12*
X58737500Y-39687500D03*
D13*
X53657500Y-39687500D03*
X63817500Y-39687500D03*
X82867500Y-39687500D03*
X72707500Y-39687500D03*
D12*
X77787500Y-39687500D03*
X77787500Y-58737500D03*
D13*
X72707500Y-58737500D03*
X82867500Y-58737500D03*
D14*
X72582500Y-29587500D03*
X63942500Y-29587500D03*
D15*
X72582500Y-33767500D03*
X63942500Y-33767500D03*
D16*
X65372500Y-33237500D03*
X71152500Y-33237500D03*
M02*
