%TF.GenerationSoftware,KiCad,Pcbnew,(5.1.2)-1*%
%TF.CreationDate,2019-08-09T17:52:41+09:00*%
%TF.ProjectId,Voyager4,566f7961-6765-4723-942e-6b696361645f,rev?*%
%TF.SameCoordinates,Original*%
%TF.FileFunction,Profile,NP*%
%FSLAX46Y46*%
G04 Gerber Fmt 4.6, Leading zero omitted, Abs format (unit mm)*
G04 Created by KiCad (PCBNEW (5.1.2)-1) date 2019-08-09 17:52:41*
%MOMM*%
%LPD*%
G04 APERTURE LIST*
%ADD10C,0.200000*%
G04 APERTURE END LIST*
D10*
X72911002Y-23957391D02*
G75*
G02X74032800Y-25200799I-128202J-1243408D01*
G01*
X49007800Y-26700800D02*
G75*
G02X50257799Y-25450799I1250000J1D01*
G01*
X82307799Y-71750799D02*
X82307799Y-70250799D01*
X52732800Y-70750799D02*
G75*
G03X52732800Y-70750799I-1100000J0D01*
G01*
X86032799Y-27700799D02*
G75*
G03X86032799Y-27700799I-1100000J0D01*
G01*
X75782800Y-29950798D02*
X80557800Y-29950798D01*
X54257800Y-26700799D02*
X54257800Y-28200799D01*
X53007800Y-25450799D02*
G75*
G02X54257800Y-26700799I0J-1250000D01*
G01*
X63654597Y-23957391D02*
X72911002Y-23957391D01*
X62532799Y-28200799D02*
G75*
G02X60782800Y-29950798I-1749999J0D01*
G01*
X56007800Y-29950799D02*
G75*
G02X54257800Y-28200799I0J1750000D01*
G01*
X87557800Y-71750799D02*
G75*
G02X86307800Y-73000799I-1250000J0D01*
G01*
X50257799Y-73000799D02*
G75*
G02X49007799Y-71750799I0J1250000D01*
G01*
X82307799Y-26700800D02*
G75*
G02X83557800Y-25450799I1250001J0D01*
G01*
X80557800Y-68500799D02*
X56007800Y-68500799D01*
X86307800Y-73000799D02*
X83557800Y-73000799D01*
X82307799Y-28200799D02*
X82307799Y-26700799D01*
X86307800Y-25450800D02*
G75*
G02X87557800Y-26700800I0J-1250000D01*
G01*
X86032800Y-70750799D02*
G75*
G03X86032800Y-70750799I-1100000J0D01*
G01*
X83557800Y-25450799D02*
X86307800Y-25450800D01*
X49007799Y-71750799D02*
X49007799Y-26700799D01*
X54257800Y-70250799D02*
X54257799Y-71750799D01*
X75782800Y-29950800D02*
G75*
G02X74032800Y-28200800I0J1750000D01*
G01*
X74032800Y-25200799D02*
X74032800Y-28200800D01*
X56007800Y-29950798D02*
X60782800Y-29950798D01*
X62532800Y-28200799D02*
X62532799Y-25200799D01*
X62532800Y-25200800D02*
G75*
G02X63654597Y-23957391I1250000J1D01*
G01*
X83557799Y-73000799D02*
G75*
G02X82307799Y-71750799I0J1250000D01*
G01*
X80557799Y-68500799D02*
G75*
G02X82307799Y-70250799I0J-1750000D01*
G01*
X50257799Y-25450799D02*
X53007800Y-25450799D01*
X53007800Y-73000799D02*
X50257800Y-73000799D01*
X54257800Y-70250797D02*
G75*
G02X56007800Y-68500799I1749999J-1D01*
G01*
X82307798Y-28200800D02*
G75*
G02X80557800Y-29950798I-1749998J0D01*
G01*
X54257799Y-71750798D02*
G75*
G02X53007800Y-73000799I-1250000J-1D01*
G01*
X87557800Y-26700800D02*
X87557800Y-71750799D01*
M02*
