M48
; DRILL file {KiCad (5.1.2)-1} date 08/09/19 17:52:43
; FORMAT={-:-/ absolute / inch / decimal}
; #@! TF.CreationDate,2019-08-09T17:52:43+09:00
; #@! TF.GenerationSoftware,Kicad,Pcbnew,(5.1.2)-1
; #@! TF.FileFunction,NonPlated,1,2,NPTH
FMAT,2
INCH
T1C0.0256
T2C0.0689
T3C0.1181
T4C0.1570
%
G90
G05
T1
X2.5737Y-1.1909
X2.8013Y-1.1909
T2
X2.1125Y-2.3125
X2.5125Y-2.3125
X2.8625Y-2.3125
X3.2625Y-2.3125
X2.8625Y-1.5625
X3.2625Y-1.5625
X2.1125Y-1.5625
X2.5125Y-1.5625
T3
X2.1625Y-2.2125
X2.4125Y-2.1125
X2.9125Y-2.2125
X3.1625Y-2.1125
X2.9125Y-1.4625
X3.1625Y-1.3625
X2.1625Y-1.4625
X2.4125Y-1.3625
T4
X2.3125Y-2.3125
X3.0625Y-2.3125
X3.0625Y-1.5625
X2.3125Y-1.5625
T0
M30
